<svg viewBox="0 0 750 1334" xmlns="http://www.w3.org/2000/svg" fill-rule="evenodd" clip-rule="evenodd" stroke-linejoin="round" stroke-miterlimit="1.414"><g opacity=".851" id="background map"><g id="crossbar"><clipPath id="_clip1"><path d="M0 277.86h749.4v1055.8H0z"/></clipPath><g opacity=".12" clip-path="url(#_clip1)"><path id="crossbar1" d="M316.79 1008.71l-.61 1.134 1.135.616.613-1.134-1.14-.616zm7.346-13.582l-.613 1.136 1.136.613.612-1.13-1.136-.62zm-2.448 4.528l-3.064 5.66 1.14.615 3.06-5.66-1.136-.614zm14.69-27.165l-3.058 5.662 1.136.613 3.06-5.658-1.137-.616zm-4.898 9.062l-.61 1.125 1.138.616.608-1.125-1.136-.616zm-2.448 4.525l-3.06 5.66 1.137.615 3.06-5.66-1.138-.615zm-34.283 63.383l-.614 1.133 1.14.616.61-1.134-1.137-.616zm4.898-9.06l-3.06 5.658 1.137.616 3.062-5.66-1.14-.614zm14.69-27.16l-3.06 5.658 1.138.614 3.06-5.66-1.137-.612zm-4.895 9.06l-.614 1.13 1.138.617.61-1.13-1.135-.617zm-2.45 4.52l-3.062 5.662 1.14.613 3.06-5.66-1.138-.615zm-4.897 9.05l-.61 1.133 1.135.616.615-1.13-1.14-.62zm78.363-144.867l-3.063 5.658 1.136.617 3.062-5.658-1.136-.617zm-12.247 22.637l-.61 1.128 1.136.616.61-1.128-1.137-.616zm-2.45 4.528l-3.06 5.66 1.137.615 3.06-5.66-1.137-.615zm7.35-13.59l-3.062 5.662 1.14.616 3.06-5.66-1.138-.617zm9.794-18.1l-.614 1.133 1.136.614.613-1.133-1.136-.613zM292.3 1053.99l-3.063 5.66 1.14.614 3.06-5.658-1.138-.616zm83.26-153.934l-.61 1.13 1.135.617.614-1.13-1.14-.617zm-29.387 54.328l-.613 1.133 1.14.616.612-1.136-1.14-.613zm-2.448 4.525l-3.06 5.66 1.138.617 3.06-5.662-1.138-.616zm-4.896 9.055l-.614 1.134 1.136.615.613-1.136-1.136-.615zm14.693-27.168l-.614 1.136 1.138.614.61-1.13-1.135-.62zm4.896-9.048l-3.063 5.655 1.14.616 3.058-5.657-1.136-.614zm-7.35 13.583l-3.057 5.654 1.136.613 3.058-5.65-1.14-.617zm9.797-18.112l-.614 1.135 1.14.613.612-1.133-1.138-.614zm-164.07 303.33l-3.06 5.662 1.135.613 3.064-5.66-1.14-.615zm29.384-54.32l-3.057 5.65 1.138.62 3.057-5.654-1.136-.616zm-4.897 9.05l-.61 1.133 1.135.614.613-1.134-1.137-.613zm14.696-27.16l-.615 1.133 1.136.613.615-1.13-1.136-.616zm-7.348 13.57l-.61 1.134 1.135.616.614-1.134-1.138-.616zm-9.797 18.12l-3.06 5.656 1.14.62 3.058-5.663-1.138-.613zm14.696-27.17l-3.06 5.66 1.135.615 3.064-5.66-1.14-.615zm154.275-285.22l-3.06 5.655 1.138.618 3.058-5.66-1.135-.614zM213.94 1198.86l-.612 1.133 1.136.613.613-1.13-1.138-.616zm-14.692 27.16l-.613 1.136 1.136.614.614-1.134-1.136-.616zm4.893-9.05l-3.06 5.66 1.14.612 3.06-5.66-1.14-.612zm7.35-13.59l-3.06 5.66 1.135.617 3.062-5.66-1.136-.617zm-4.898 9.06l-.61 1.126 1.138.616.608-1.128-1.136-.614zm-14.69 27.17l-.614 1.13 1.136.617.616-1.133-1.14-.614zm80.807-149.41l-.614 1.136 1.14.613.612-1.134-1.14-.616zm-2.45 4.53l-3.06 5.658 1.14.616 3.06-5.66-1.14-.614zm17.145-31.69l-.616 1.133 1.138.616.613-1.137-1.135-.613zm-2.448 4.53l-3.064 5.662 1.136.613 3.063-5.66-1.136-.615zm-4.9 9.05l-.612 1.133 1.136.616.615-1.132-1.14-.618zm-2.45 4.53l-3.063 5.66 1.14.615 3.06-5.662-1.136-.613zm-29.383 54.33l-3.064 5.656 1.14.62 3.06-5.662-1.136-.614zm-7.35 13.58l-3.06 5.66 1.135.615 3.06-5.66-1.135-.615zm22.04-40.75l-3.058 5.656 1.14.616 3.057-5.66-1.138-.612zm-19.59 36.22l-.612 1.128 1.14.62.61-1.132-1.14-.616zm14.692-27.16l-.608 1.125 1.136.616.61-1.127-1.138-.613zm-2.448 4.52l-3.06 5.664 1.135.614 3.064-5.66-1.14-.618zm-4.896 9.06l-.613 1.134 1.137.613.61-1.133-1.135-.614zm14.693-27.17l-.613 1.133 1.136.614.613-1.13-1.135-.617zm254.678-470.84l-3.062 5.663 1.135.613 3.064-5.66-1.137-.615zm2.445-4.52l-.61 1.13 1.133.615.617-1.133-1.14-.613zm-7.344 13.577l-.613 1.13 1.14.617.61-1.133-1.136-.613zm12.243-22.634l-3.064 5.658 1.138.617 3.063-5.658-1.136-.617zm7.346-13.584l-3.06 5.657 1.138.616 3.062-5.66-1.14-.614zm-4.896 9.052l-.613 1.133 1.136.616.613-1.132-1.136-.616zm-31.834 58.853l-3.064 5.662 1.137.616 3.062-5.662-1.137-.615zm-4.9 9.062l-.61 1.125 1.136.616.61-1.128-1.136-.613zm19.59-36.224l-3.058 5.658 1.138.617 3.06-5.658-1.14-.617zm-22.04 40.75l-3.06 5.66 1.138.614 3.062-5.66-1.14-.615zm14.694-27.164l-3.062 5.658 1.136.616 3.065-5.66-1.138-.615zm-4.896 9.05l-.613 1.133 1.14.616.61-1.134-1.136-.616zm7.345-13.58l-.61 1.135 1.135.613.613-1.13-1.138-.617zm29.386-54.33l-.612 1.137 1.14.613.612-1.133-1.14-.616zm190.935 139.377l3.482 5.402 1.083-.697-3.48-5.408-1.085.702zm8.362 12.978l3.48 5.408 1.08-.696-3.48-5.408-1.08.695zM725.325 736.3l.704 1.08 1.08-.7-.7-1.083-1.085.702zm20.592 29.593l-1.08.694 3.49 5.416 1.073-.702-3.483-5.407zm-3.866-3.634l.694 1.08 1.083-.695-.694-1.08-1.082.694zm-8.36-12.983l.697 1.08 1.08-.696-.696-1.076-1.08.693zm-13.933-21.634l3.478 5.408 1.085-.7-3.483-5.403-1.08.696zm-19.51-30.296l.694 1.082 1.084-.7-.696-1.077-1.08.694zm2.788 4.33l3.488 5.41 1.072-.698-3.48-5.41-1.08.697zm13.933 21.638l.7 1.085 1.076-.7-.693-1.08-1.082.695zm-5.573-8.656l3.488 5.412 1.077-.7-3.485-5.407-1.08.694zm-2.787-4.33l.7 1.086 1.073-.7-.69-1.08-1.082.695zm-244.89 26.742l-.61 1.13 1.135.617.613-1.135-1.14-.613zm-39.18 72.432l-3.06 5.66 1.138.617 3.06-5.66-1.137-.616zm-4.9 9.06l-.614 1.135 1.14.615.612-1.134-1.14-.615zm7.35-13.585l-.615 1.135 1.136.613.613-1.133-1.136-.616zm7.345-13.58l-.616 1.136 1.14.613.612-1.134-1.137-.616zm-17.144 31.69l-3.062 5.66 1.14.615 3.06-5.658-1.14-.616zm14.693-27.162l-3.062 5.66 1.14.615 3.06-5.662-1.137-.612zm-34.283 63.38l-.613 1.135 1.136.616.613-1.135-1.136-.616zm-2.448 4.527l-3.06 5.66 1.135.617 3.064-5.66-1.138-.617zm9.797-18.11l-.617 1.134 1.14.612.612-1.133-1.136-.615zm4.895-9.053l-3.06 5.66 1.135.617 3.06-5.662-1.135-.616zm2.448-4.528l-.613 1.136 1.136.613.616-1.133-1.14-.616zm-9.797 18.112l-3.06 5.66 1.135.617 3.065-5.66-1.14-.617zm83.26-153.93l-.612 1.135 1.136.615.616-1.136-1.14-.615zm-95.5 176.562l-.613 1.136 1.136.616.612-1.136-1.136-.616zm78.36-144.872l-3.06 5.66 1.137.615 3.06-5.658-1.137-.616zm2.445-4.525l-.61 1.134 1.137.616.613-1.133-1.14-.616zm-31.833 58.857l-3.06 5.66 1.137.614 3.06-5.657-1.137-.616zm39.184-72.44l-.61 1.133 1.136.613.613-1.133-1.14-.613zm-2.45 4.53l-3.06 5.654 1.14.617 3.06-5.654-1.14-.616zm7.35-13.586l-3.062 5.662 1.136.616 3.06-5.66-1.135-.617zm-22.04 40.747l-3.062 5.66 1.14.615 3.06-5.66-1.14-.615zm-19.59 36.216l-.613 1.134 1.138.616.614-1.134-1.14-.617zm4.896-9.05l-3.06 5.658 1.135.617 3.065-5.66-1.14-.614zm9.795-18.107l-.61 1.128 1.14.616.607-1.128-1.136-.616zm-2.447 4.528l-3.064 5.66 1.137.615 3.062-5.66-1.137-.616zm-4.9 9.05l-.612 1.134 1.14.616.613-1.133-1.14-.615zm111.884-283.253l3.485 5.404 1.08-.696-3.488-5.413-1.077.706zm-84.61-133.772l-.7-1.08-1.085.7.696 1.08 1.088-.7zm5.57 8.653l-3.483-5.407-1.085.702 3.484 5.405 1.083-.7zm-25.086-38.943l-3.48-5.408-1.08.695 3.487 5.41 1.074-.698zm102.94 248.358c-.435.794-1.315 1.165-2.16 1.02l.35-.647-1.14-.616-.35.65c-.585-.63-.753-1.573-.327-2.373.26-.48.707-.84 1.23-.998l-.056-.18c.554-.16 1.168-.116 1.71.177l-.09.165c1.006.544 1.372 1.79.833 2.8m.787-5.795c-2.66-1.437-5.974-.45-7.41 2.205-1.332 2.464-.564 5.475 1.67 7.05l-1.058 1.958 1.138.616 1.06-1.96c2.537 1.005 5.48.002 6.81-2.46 1.437-2.658.45-5.97-2.21-7.41m48.828-88.907l-1.14-.613-3.06 5.656 1.14.616 3.06-5.66zM459.568 321.245l-.7-1.08-1.076.696.696 1.08 1.08-.695zm86.096 267.04l-1.136-.613-.61 1.125 1.138.616.608-1.128zm-80.523-258.38l-3.48-5.412-1.084.694 3.485 5.41 1.08-.693zm8.364 12.975l-3.483-5.408-1.08.7 3.48 5.41 1.084-.702zm-5.576-8.65l-.696-1.083-1.077.696.69 1.082 1.083-.696zm136.51 145.397l-1.137-.614-.612 1.13 1.14.617.61-1.133zm-54.68-15.958l.695 1.08 1.083-.694-.696-1.083-1.083.696zm2.79 4.327l3.48 5.408 1.084-.7-3.488-5.412-1.077.704zm71.48-24.59l-1.137-.612-3.058 5.658 1.136.616 3.06-5.662zm-12.244 22.64l-1.14-.615-.612 1.13 1.14.617.612-1.132zm-67.597-11.034l3.482 5.408 1.077-.695-3.486-5.41-1.073.698zm-2.787-4.328l.696 1.083 1.08-.696-.696-1.083-1.08.695zm75.283 6.31l-1.14-.616-3.06 5.657 1.138.616 3.063-5.658zm2.448-4.534l-1.135-.612-.614 1.13 1.137.617.614-1.134zm-429.677 791.67l-3.064 5.667 1.135.616 3.064-5.664-1.137-.62zM578.4 551.437l-.005-.002.938-.57-.933.572zm.165-3.562c-.645-.35-1.664-.672-2.714-.035-.322.19-.618.51-.807.86-.728 1.644-.17 3 .616 4.42.577.928 1.273 1.66 2.132 2.14.65.35 1.64.647 2.672.07.39-.242.672-.57.85-.9.73-1.646.17-2.995-.607-4.414-.584-.933-1.28-1.66-2.142-2.14m-20.445-71.223l.693 1.078 1.086-.698-.695-1.08-1.085.7zm-23.307-38.568l-.698-1.082-1.075.698.696 1.084 1.077-.7zm-8.357-12.984l-.7-1.08-1.076.7.693 1.077 1.083-.696zm5.573 8.66l-3.483-5.408-1.08.693 3.48 5.41 1.082-.695zm-375.025 870.36l1.136.616 3.063-5.66-1.136-.617-3.062 5.66zM523.67 420.776l-3.483-5.408-1.083.693 3.483 5.412 1.082-.696zM142.31 1331.29l1.138.616 3.06-5.66-1.135-.617-3.064 5.66zM431.7 277.976l-.07-.115-1.08.695.07.114 1.08-.694zM149.66 1317.7l1.137.614 3.062-5.66-1.14-.615-3.06 5.66zm4.895-9.05l1.138.613.614-1.133-1.136-.616-.615 1.136zm-7.347 13.58l1.136.62.616-1.137-1.14-.613-.612 1.13zm295.64-1026.953l-.696-1.08-1.08.696.693 1.08 1.083-.696zm55.736 86.552l-3.48-5.406-1.08.693 3.477 5.408 1.084-.696zM440.06 290.95l-3.48-5.41-1.08.695 3.48 5.408 1.08-.693zm-5.572-8.656l-.693-1.083-1.086.702.693 1.082 1.085-.7zm16.72 25.968l-.696-1.083-1.083.697.698 1.08 1.08-.693zm66.885 103.856l-.693-1.08-1.083.7.694 1.08 1.083-.7zm-26.858-39.33l.696 1.08 1.083-.697-.696-1.077-1.082.693zm24.07 35.007l-3.48-5.41-1.08.698 3.48 5.406 1.08-.693zm-29.64-43.664l3.48 5.408 1.08-.692-3.48-5.408-1.08.693zm24.066 35.008l-.695-1.08-1.078.697.694 1.08 1.08-.696zm-8.357-12.983l-.696-1.082-1.08.698.694 1.08 1.083-.696zm5.574 8.66l-3.483-5.412-1.083.696 3.487 5.41 1.08-.694zm-58.526-90.884l-3.48-5.408-1.08.696 3.48 5.41 1.08-.697zM666.81 645.42l.7 1.084 1.073-.7-.695-1.08-1.077.695zm2.78 4.327l3.49 5.41 1.077-.696-3.483-5.407-1.083.694zm8.364 12.98l3.48 5.412 1.083-.7-3.478-5.41-1.085.698zm-2.79-4.324l.705 1.085 1.072-.7-.695-1.08-1.082.695zm-16.717-25.966l.7 1.08 1.074-.696-.695-1.08-1.08.697zm-13.93-21.632l3.482 5.4 1.075-.696-3.48-5.41-1.077.705zm-2.79-4.328l.696 1.08 1.087-.7-.702-1.084-1.08.704zm11.152 17.304l3.483 5.412 1.075-.7-3.483-5.41-1.075.7zm8.352 12.983l3.49 5.41 1.075-.696-3.483-5.41-1.083.696zm22.293 34.624l.7 1.082 1.08-.702-.695-1.083-1.085.702zm-33.44-51.934l.704 1.086 1.077-.697-.7-1.088-1.08.698zM177.208 1266.77l-.613 1.133 1.138.616.61-1.134-1.135-.616zm4.896-9.06l-3.06 5.658 1.137.616 3.063-5.66-1.14-.614zm2.448-4.52l-.613 1.136 1.137.613.614-1.132-1.138-.618zm-9.792 18.1l-3.06 5.662 1.135.613 3.064-5.66-1.14-.615zm521.888-581.906l-.893-1.387-1.08.694 1.208 1.878c-.296.472-.608.915-.902 1.397-5.985 10.016-14.412 13.27-23.703 15.55l-1.816-2.822-86.55-134.4 1.52-.938c.482-.155.95-.366 1.386-.638.344-.208.62-.488.907-.752.43-.146.845-.322 1.234-.562 1.03-.635 1.835-1.536 2.392-2.58 2.415-4.71.978-11.938-3.163-18.794-2.736-4.446-6.2-7.86-9.686-9.753-.996-.54-2.023-.95-3.047-1.216l.598-1.103-1.135-.613-.614 1.13 1.012.547c-2.045-.505-4.077-.396-5.848.68-.352.215-.656.487-.955.76-.41.15-.81.327-1.195.56-.432.263-.835.585-1.187.945l-2.18 1.34-71.64-111.252 1.196-2.216c.09.163.173.33.237.56l.196.72 1.955-5.693.702-1.293 40.35 21.825-.115.074 3.48 5.407 1.08-.693-2.347-3.656 54.5 29.477 7.743 12.03-2.49 4.602 1.135.616 2.152-3.98 118.104 183.383c-7.557 2.832-15.83 9.947-22.536 20.168M564.69 542.01l1.41-.866 1.065-.653.006-.005 1.8-1.106c.497-.116 1.073-.13 1.702-.047l-2.267 4.195 1.136.613 2.447-4.516c.584.19 1.2.45 1.856.803 2.84 1.528 6.002 4.576 8.472 8.6 3.872 6.17 4.68 12.84 3.066 15.584-.14.262-.305.473-.476.675l-1.787 1.1-.01.002-1.947 1.194-16.47-25.57zm4.926 25.118c.488-2.02.464-4.09-.07-6.037l2.713 4.417-2.644 1.62zm-5.413-13.115l.464-.856 1.36 2.21c-.555-.503-1.168-.95-1.824-1.354m1.52 14.507c-.214.392-.45.757-.712 1.1l-.058.084-.237.437-.29.18-.078.072c-.334.283-.694.536-1.072.77-2.798 1.715-6.195 1.694-8.894.233-1.327-.72-2.487-1.78-3.32-3.142-1.72-2.797-1.7-6.194-.24-8.91.297-.54.663-1.042 1.068-1.514 2.557-2.374 6.34-3.078 9.648-1.603l-.477.885 1.132.616.483-.888c3.856 2.483 5.253 7.565 3.048 11.68m2.898 21.267l-1.13 2.093-18.39-9.95 1.135-2.087 18.386 9.944zm-9.3 9.077l-22.725-12.29.138-.257-8.4-4.544 2.872-5.31L562.33 593.3l-3.01 5.564zm-28.62-29.587l4.156 2.248 1.01-1.874c1.06.243 2.102.55 3.153.85l-1.372 2.532 11.448 6.195-1.133 2.09-18.392-9.95 1.13-2.09zm27.388 6.374c1.296.06 2.6-.063 3.88-.426l-1.224 2.26c-.864-.63-1.752-1.24-2.656-1.833m-16.283-4.343l19.05 10.304c.364.286.708.6 1.065.897l-21.45-11.6c.445.136.893.25 1.335.4m5.048-5.014c.288 1.256.755 2.488 1.462 3.643.14.22.3.42.448.63-1.14-.507-2.29-.99-3.448-1.43l1.538-2.843zm16.22-15.728l.81 1.323-.816 1.51c-.987-.465-2.006-.78-3.038-.96l3.042-1.873zm-70.633-127.32l-.803 1.48c-.112-.008-.22-.018-.35-.002l1.153-1.478zm1.13.622l-.62 1.8c-.054-.112-.126-.2-.193-.296l.814-1.503zm-12.383-11.53l13.27 7.18-.702 1.296-3.75 4.824.77-.31c.238-.09.43-.122.614-.138l-.88 1.623-9.323-14.477zm-21.6-33.54c9.61-2.312 19.392-5.96 26.01-17.104 6.424-10.81 14.862-18.266 21.928-21.14l2.078 3.234L591.1 470.33l-94.9-51.327 6.957-12.86-1.136-.612-6.956 12.86-15.32-8.29-20.157-31.303zm262.5 292.854l2.113-.583-125.79-195.323 3.614 1.955.608-1.13-5.664-3.063-84.656-131.46-3.477-5.396-1.19.42c-8.237 2.874-17.474 10.887-24.578 22.61l-.192.125.056.088c-.03.05-.066.1-.098.152-6.515 10.894-15.944 13.795-26.19 16.136l-2.242.508 34.363 53.357L0 1333.665h1.464l488.093-902.382 70.65 109.706-.786.482-1.087.67 3.37 5.485-7.956 4.896c-.5.22-.984.477-1.46.768-1.095.665-2.026 1.497-2.823 2.417-.837.83-1.608 1.744-2.195 2.832-.27.487-.49.988-.683 1.492l-4.342 8.024c-3.928-1.272-7.922-2.157-11.93-2.667l-1.09-.134-.702 1.296c-2.782-.285-5.58-.392-8.376-.315l.013.49c2.704-.074 5.416.03 8.107.297l-414.672 766.64h3.653L513.643 600.82l.57.305-396.226 732.54h3.653L526.66 584.86l15 8.116-2.64 4.88 1.135.616 2.642-4.883 14.99 8.11-395.915 731.964h3.653L550.992 621.02l.57.308-385.3 712.336h3.655l402.88-744.84-.706-.837c-2.623-3.08-5.55-5.936-8.762-8.528l3.8-7.025 7.136-4.39.89 1.454 2.48 4.03v.006l2.53-1.557 86.588 134.455 3.053 4.74 1.104-.26c9.866-2.29 20.03-5.838 26.834-17.3.02-.026.035-.055.053-.08l.368.57 1.072-.7-.693-1.074c7.088-11.354 16.352-18.746 23.544-20.68m-30.2 12.715l.696 1.078 1.077-.69-.692-1.084-1.08.695zm-5.573-8.658l3.485 5.413 1.077-.7-3.482-5.407-1.08.694zM167.41 1284.88l-3.06 5.656 1.138.616 3.06-5.66-1.137-.612zm2.45-4.52l-.61 1.128 1.137.613.608-1.124-1.136-.616zm-7.345 13.57l-.614 1.13 1.14.617.61-1.13-1.135-.617zm445.768-739.39l.698 1.084 1.084-.696-.7-1.083-1.08.694zm-11.192-61.327l-1.138-.616-.61 1.13 1.135.617.614-1.13zm-7.346 13.576l-1.133-.614-.615 1.133 1.136.615.614-1.136zm-2.448 4.527l-1.136-.616-2.48 4.585-.475.312.166.262-.274.503 1.14.616.425-.79.32-.206-.113-.173 2.43-4.493zm48.85 86.502l3.49 5.412 1.08-.7-3.49-5.41-1.08.697zm-55.495-76.93l1.137.617.61-1.13-1.138-.617-.61 1.13zm13.99-23.15l-1.133-.615-3.064 5.656 1.138.617 3.06-5.658zm-25.368-3.783l3.48 5.41 1.08-.695-3.483-5.408-1.078.693zm12.92 17.7l-3.48-5.41-1.08.694 3.477 5.41 1.082-.694zm-6.443 18.292l1.138.613 3.06-5.66-1.137-.615-3.06 5.66zm.17-28.035l-1.077.698.693 1.083 1.083-.696-.7-1.085zm10.07 18.01l3.48 5.408 1.08-.696-3.483-5.41-1.078.698zm39.015 60.587l.7 1.077 1.07-.697-.695-1.08-1.075.7zm-5.578-8.66l3.488 5.41 1.082-.694-3.488-5.413-1.083.696zm-2.787-4.33l.7 1.086 1.076-.7-.693-1.08-1.083.695zm11.147 17.313l3.485 5.41 1.083-.693-3.488-5.413-1.08.695zm-36.224-56.254l.696 1.08 1.084-.7-.7-1.075-1.08.696zm41.805 64.91l.693 1.083 1.076-.698-.693-1.08-1.075.696zm-33.443-51.925l.694 1.08 1.08-.7-.695-1.084-1.08.705zm-5.576-8.656l3.482 5.407 1.085-.7-3.493-5.406-1.075.7zm16.722 25.96l3.483 5.41 1.074-.7-3.48-5.407-1.078.696zm-44.59-69.24l.697 1.08 1.08-.694-.705-1.085-1.072.7zm36.23 56.258l3.48 5.408 1.077-.7-3.48-5.407-1.078.698z" fill="#c6714b" fill-rule="nonzero"/></g></g><g id="rectangle"><clipPath id="_clip2"><path d="M6.04 327.986H426.72v797.7H6.04z"/></clipPath><g opacity=".12" clip-path="url(#_clip2)"><path id="rectanglecurve" d="M358.92 601.293c0 .17-.012.37-.05.605-.21.328-.626.688-1.237.97-.608.28-1.344.417-2.23.417-1.084 0-1.916-.31-2.562-.912-.62-.6-.956-1.504-.956-2.773 0-1.24.3-2.158.875-2.814.583-.653 1.372-.984 2.45-.99.653.006 1.207.134 1.677.39.47.26.842.608 1.133 1.064.304.467.525.998.68 1.595.144.595.22 1.22.22 1.864v.583zm.51 0v-.584c0-.686-.085-1.353-.242-1.996-.165-.637-.408-1.22-.74-1.736-.34-.525-.783-.938-1.32-1.237-.556-.298-1.19-.444-1.92-.444-1.177-.006-2.145.38-2.825 1.157-.678.765-1.006 1.83-1.006 3.147 0 1.352.36 2.42 1.115 3.14.75.705 1.736 1.054 2.912 1.054.936 0 1.75-.154 2.44-.47.677-.31 1.192-.73 1.496-1.263.07-.343.09-.562.09-.767m-.226 2.64l.123-.875-.566.678c-.473.565-.993.946-1.545 1.162-.558.214-1.32.336-2.275.336-.74 0-1.424-.125-2.067-.362-.645-.24-1.21-.584-1.706-1.048-.488-.454-.875-1.014-1.16-1.688-.286-.664-.424-1.435-.424-2.315 0-.863.125-1.66.373-2.383.248-.73.608-1.352 1.083-1.885.476-.52 1.068-.94 1.78-1.24.715-.307 1.563-.456 2.528-.456 1.835.005 3.22.584 4.22 1.752 1 1.154 1.527 2.81 1.527 4.994 0 2.07-.238 3.87-.702 5.4-.464 1.542-1.104 2.83-1.91 3.878-.818 1.048-1.767 1.86-2.874 2.44-1.057.557-2.182.922-3.403 1.096l-.368-1.294c.98-.18 1.884-.488 2.697-.922.89-.478 1.65-1.078 2.29-1.8.644-.734 1.156-1.552 1.556-2.47.397-.917.672-1.917.82-2.997m-2.748 5.128c-.606.678-1.326 1.244-2.15 1.694-.842.454-1.78.752-2.82.915l-.286.042.577 2.05.056.208.214-.024c1.365-.165 2.63-.565 3.8-1.178 1.173-.616 2.18-1.48 3.03-2.58.858-1.103 1.524-2.447 2-4.042.482-1.586.716-3.437.716-5.544 0-2.26-.533-4.048-1.645-5.333-1.096-1.28-2.656-1.92-4.6-1.916-1.02 0-1.936.158-2.723.49-.773.33-1.432.788-1.957 1.37-.523.583-.92 1.27-1.19 2.055-.27.788-.405 1.636-.405 2.55 0 .934.152 1.777.464 2.513.312.73.736 1.36 1.28 1.86.547.508 1.176.89 1.88 1.153.702.254 1.454.387 2.243.387.997 0 1.808-.12 2.46-.36.41-.163.804-.403 1.17-.717-.147.736-.37 1.426-.65 2.07-.383.876-.868 1.65-1.465 2.335m13.448-5.495l.392-.208-.382-.232c-.458-.27-.874-.555-1.27-.853-.38-.294-.72-.622-1.012-.998-.282-.362-.517-.773-.682-1.24-.157-.434-.245-.968-.245-1.573 0-.695.12-1.32.352-1.87.234-.558.576-1.033 1.02-1.433.45-.408.98-.725 1.612-.952.626-.227 1.336-.35 2.15-.35.746 0 1.418.107 2.026.323.602.21 1.1.502 1.506.864.41.358.722.8.95 1.307.225.492.34 1.047.34 1.668 0 1.016-.235 1.896-.688 2.66-.456.762-1.224 1.53-2.317 2.298l-.323.23.344.194c.477.272.928.573 1.34.896.425.322.79.68 1.1 1.066.31.384.552.816.728 1.304.173.478.26 1.024.26 1.646 0 .768-.127 1.466-.377 2.088-.24.62-.598 1.154-1.067 1.597-.475.445-1.056.808-1.752 1.064-.685.252-1.475.388-2.373.388-.872 0-1.622-.13-2.272-.376-.664-.246-1.208-.587-1.654-1.003-.454-.42-.782-.908-1.01-1.48-.228-.57-.343-1.19-.343-1.86 0-1.122.29-2.074.87-2.896.573-.816 1.498-1.576 2.776-2.27m-3.19 1.982c-.64.9-.957 1.974-.957 3.184 0 .728.12 1.414.373 2.048.253.638.637 1.19 1.13 1.66.5.468 1.115.836 1.824 1.11.712.268 1.536.398 2.45.398.942 0 1.798-.138 2.553-.41.75-.28 1.394-.675 1.917-1.17.53-.494.928-1.092 1.2-1.782.27-.686.4-1.45.4-2.272 0-.672-.088-1.275-.285-1.822-.2-.525-.463-1.013-.804-1.445-.34-.42-.733-.803-1.184-1.15-.34-.266-.7-.51-1.07-.733.97-.72 1.68-1.453 2.145-2.224.51-.85.752-1.83.752-2.92 0-.677-.12-1.312-.38-1.877-.253-.572-.608-1.06-1.075-1.48-.464-.404-1.02-.727-1.68-.956-.66-.235-1.397-.35-2.19-.35-.863 0-1.634.128-2.32.374-.684.25-1.274.605-1.78 1.048-.49.45-.88.99-1.142 1.618-.266.622-.4 1.315-.4 2.067 0 .657.094 1.238.28 1.753.192.51.443.965.76 1.373.32.406.69.766 1.1 1.086.298.226.612.448.948.66-1.13.662-1.983 1.393-2.567 2.214m2.43-5.885c-.18-.354-.278-.772-.278-1.255 0-.333.067-.66.19-.968.13-.312.312-.587.562-.813.26-.238.563-.438.926-.592.354-.152.76-.235 1.234-.235.763.005 1.384.235 1.923.704.528.46.787 1.094.795 1.99 0 .715-.187 1.352-.558 1.947-.354.56-.912 1.155-1.658 1.75-.43-.22-.836-.443-1.23-.686-.43-.25-.81-.538-1.142-.842-.32-.285-.57-.624-.765-.997m3.048 3.05l.142.068.125-.096c.85-.66 1.483-1.314 1.907-1.973.424-.676.643-1.414.643-2.22 0-.992-.323-1.81-.968-2.368-.623-.546-1.39-.826-2.263-.826-.53 0-1.005.09-1.432.272-.413.173-.77.408-1.072.68-.306.285-.53.616-.682.994-.15.37-.234.76-.234 1.163 0 .552.12 1.053.34 1.493.223.416.508.803.87 1.134.36.333.76.632 1.225.9.443.28.918.534 1.4.777m-3.08 3.652c.43-.696 1.158-1.357 2.203-1.952.454.238.886.486 1.302.736.45.267.85.566 1.192.894.346.322.618.685.832 1.072.193.376.297.818.297 1.338 0 .528-.096.974-.264 1.352-.186.387-.413.694-.71.942-.303.248-.65.43-1.05.562-.392.136-.81.198-1.248.198-.546 0-1.016-.083-1.416-.248-.406-.166-.742-.382-1.017-.654-.266-.266-.46-.58-.602-.965-.138-.37-.21-.776-.21-1.187 0-.642.224-1.338.69-2.088m-.234 4.603c.328.323.728.576 1.192.76.46.192 1 .28 1.597.28.488 0 .963-.07 1.408-.216.456-.153.856-.37 1.203-.66.365-.29.645-.666.853-1.11.215-.458.32-.986.32-1.57 0-.59-.12-1.122-.37-1.576-.24-.442-.54-.842-.92-1.2-.375-.357-.81-.682-1.284-.96-.46-.28-.952-.56-1.46-.818l-.12-.06-.113.068c-1.155.64-1.995 1.368-2.507 2.194-.5.806-.765 1.592-.765 2.352 0 .472.086.93.246 1.366.155.44.408.826.72 1.15m31.568 209.97c-2-1.942-4.016-3.094-6.064-3.38V784.57l6.064 36.368zm-7.493-409.294l-6.05-36.314c1.987 2.144 4.005 3.2 6.05 3.35v32.964zm0 405.85c-2.045.156-4.063 1.214-6.055 3.358l6.056-36.31v32.953zm1.43-438.876c2.048-.283 4.064-1.438 6.064-3.376l-6.064 36.37v-32.994zm32.34 38.013v-1.438h-32.34v-.472l6.82-40.98-.556.585c-2.12 2.203-4.208 3.467-6.264 3.776V351.34h-1.43v26.83c-2.058-.163-4.135-1.328-6.253-3.838l-.597-.698.15.91 6.7 40.167v.482H288.794v1.437H392.95v360.324H290.024v1.43H392.95v3.082l-6.853 41.08.6-.706c2.118-2.507 4.192-3.67 6.254-3.838v19.534h1.43V818.07c2.056.31 4.144 1.567 6.264 3.783l.557.592-6.82-40.984v-3.076h25.013v-1.43H394.38V416.63h32.34zM87.67 992.75h-1.43v1.437h1.43v-1.438zm11.46 0h-7.155v1.437h7.154v-1.438zm4.295 1.437h1.43v-1.438h-1.43v1.437zm85.926 0h1.438v-1.438h-1.437v1.437zm-17.18 0h1.43v-1.438h-1.43v1.437zm5.733 0h7.154v-1.438h-7.154v1.437zm-27.21-1.438h-7.166v1.437h7.165v-1.438zm-11.462 0h-1.43v1.437h1.43v-1.438zm17.187 0h-1.426v1.437h1.427v-1.438zm-34.373 0h-1.43v1.437h1.43v-1.438zm-5.728 0h-7.16v1.437h7.16v-1.438zm17.187 0h-7.166v1.437h7.166v-1.438zm130.325 1.437h7.157v-1.438h-7.157v1.437zm-68.744 0h7.16v-1.438h-7.16v1.437zm80.2 0h1.432v-1.438h-1.432v1.437zm22.912 0h7.157v-1.438h-7.157v1.437zm-5.723 0h1.427v-1.438h-1.427v1.437zm-11.464 0h7.167v-1.438h-7.168v1.437zm-74.473 0h1.435v-1.438h-1.435v1.437zm5.726 0h7.165v-1.438h-7.165v1.437zm11.464 0h1.43v-1.438h-1.43v1.437zm22.912 0h7.164v-1.438h-7.165v1.437zm11.457 0h1.435v-1.438h-1.435v1.437zm-97.384 0h7.166v-1.438h-7.167v1.437zm-137.485 0h7.16v-1.438h-7.16v1.437zm-5.728 0h1.43v-1.438H17.5v1.437zm40.1 0h7.16v-1.438H57.6v1.437zm-51.56 0h7.164v-1.438H6.04v1.437zm28.64 0h1.436v-1.438H34.68v1.437zm5.732 0h7.157v-1.438H40.41v1.437zm11.453 0h1.438v-1.438h-1.438v1.437zm106.168-77.942v-3.95h-1.43v7.158h1.43v-1.774c41.286.46 74.62 33.784 75.07 75.07h-3.65v1.437h3.65c-.45 41.282-33.784 74.607-75.07 75.066v-2.29h-1.43v2.29c-41.282-.456-74.615-33.782-75.068-75.067h.408v-1.438h-.41c.183-19.843 8.14-38.848 22.183-52.886l-1.013-1.008v-.008c-14.31 14.304-22.42 33.683-22.608 53.902h-5.318v1.437h5.318c.386 42.082 34.43 76.116 76.51 76.5v3.44h1.428v-3.44c42.083-.386 76.118-34.424 76.504-76.5h2.08v-1.438h-2.08c-.386-42.078-34.42-76.12-76.504-76.504m83.2 77.94c-.477 46.01-37.813 83.126-83.914 83.217-46.348-.09-83.852-37.592-83.932-83.936.08-46.35 37.584-83.844 83.93-83.932 46.102.088 83.44 37.2 83.915 83.214h-.32v1.437h.32zM157.32 905.96c-48.09 0-87.108 38.802-87.497 86.792h-.768v1.437h.768c.39 47.99 39.408 86.794 87.496 86.794 48.32 0 87.513-39.19 87.513-87.515 0-48.324-39.192-87.51-87.514-87.51m-.716-307.3h1.43v-1.436h-1.43v1.437zm0 28.638h1.43v-7.16h-1.43v7.16zm0 51.56h1.43v-7.162h-1.43v7.162zm0-63.013h1.43v-1.435h-1.43v1.435zm0 17.187h1.43V631.6h-1.43v1.432zm0 34.373h1.43v-1.435h-1.43v1.435zm0-22.917h1.43v-7.158h-1.43v7.158zm0 17.186h1.43v-7.16h-1.43v7.16zm1.43-270.68h-1.43v1.438h1.43v-1.438zm-1.43 219.12h1.43v-7.16h-1.43v7.16zm0-85.925h1.43v-7.16h-1.43v7.16zm0 5.73h1.43v-1.435h-1.43v1.435zm0-17.19h1.43v-1.432h-1.43v1.432zm0 28.646h1.43v-7.16h-1.43v7.16zm0-34.376h1.43v-7.158h-1.43V507zm0 40.104h1.43v-1.435h-1.43v1.434zm0 28.642h1.43v-7.165h-1.43v7.166zm0 5.726h1.43v-1.427h-1.43v1.427zm0 11.456h1.43v-7.16h-1.43v7.16zm0-28.643h1.43v-1.43h-1.43v1.43zm0-5.725h1.43v-7.163h-1.43v7.163zm0 91.658h1.43v-1.434h-1.43v1.434zm0 114.57h1.43v-7.156h-1.43v7.157zm0 5.726h1.43v-1.43h-1.43v1.43zm0-274.97h1.43v-1.432h-1.43v1.432zm0 257.786h1.43v-1.434h-1.43v1.434zm1.43-390.976h-1.43v7.163h1.43v-7.163zm0 34.374h-1.43v7.16h1.43v-7.16zm-1.43 350.872h1.43v-7.16h-1.43v7.16zm1.43-339.416h-1.43v1.434h1.43v-1.434zm0-34.368h-1.43v1.43h1.43v-1.43zm0 5.725h-1.43v7.16h1.43v-7.16zm0-34.372h-1.43v7.165h1.43v-7.165zm0-5.726h-1.43v1.427h1.43v-1.428zm-1.43 356.606h1.43v-7.163h-1.43v7.163zm0-11.462h1.43v-1.426h-1.43v1.426zm1.43-356.6h-1.43v7.16h1.43v-7.16zm-1.43 408.16h1.43v-1.434h-1.43v1.434zm0-17.186h1.43v-1.438h-1.43v1.438zm0 11.456h1.43v-7.158h-1.43v7.158zm0-17.187h1.43v-7.158h-1.43v7.157zm1.43-356.6h-1.43v1.428h1.43v-1.43zm-1.43 345.143h1.43v-1.435h-1.43v1.435zm1.43 307.907h-1.43v1.437h1.43v-1.437zm0-85.926h-1.43v1.432h1.43v-1.432zm0 5.73h-1.43v7.158h1.43v-7.157zm0 11.457h-1.43v1.436h1.43v-1.435zm0 40.097h-1.43v7.157h1.43v-7.157zm-1.43 110.273h1.43v-7.157h-1.43v7.157zm0 34.37h1.43v-7.163h-1.43v7.163zm1.43-110.27h-1.43v7.155h1.43v-7.155zm-1.43 98.82h1.43v-1.435h-1.43v1.435zm0-5.73h1.43v-7.16h-1.43v7.16zm1.43-110.276h-1.43v7.16h1.43v-7.16zm0 45.826h-1.43v1.435h1.43v-1.435zm0-17.18h-1.43v1.435h1.43v-1.435zm-1.43-227.716h1.43v-7.157h-1.43v7.157zm1.43 233.446h-1.43v7.16h1.43v-7.16zm0 28.64h-1.43v1.43h1.43v-1.43zm0-11.46h-1.43v7.157h1.43v-7.157zm0-103.116h-1.43v7.168h1.43v-7.168zm-1.43-456.85h1.43v-7.16h-1.43v7.16zm1.43 468.314h-1.43v1.426h1.43v-1.426zm0 5.722h-1.43v7.168h1.43v-7.168zm0 11.462h-1.43v1.43h1.43v-1.43zm-1.43 121.728h1.43v-1.432h-1.43v1.432zm1.43-104.544h-1.43v1.434h1.43v-1.434zm-1.43-565.694h1.43v-1.432h-1.43v1.432zm0 475.467h1.43v-7.158h-1.43v7.157zm0-11.454h1.43v-1.435h-1.43v1.436zm0-452.558h1.43V431.1h-1.43v7.158zm0 22.915h1.43v-1.43h-1.43v1.43zm0 11.46h1.43v-7.167h-1.43v7.168zm0-28.65h1.43v-1.426h-1.43v1.427zm0 34.37h1.43v-1.423h-1.43v1.424zm0-22.908h1.43v-7.165h-1.43v7.165zm0 429.643h1.43v-7.163h-1.43v7.163zm0-68.747h1.43v-7.156h-1.43v7.157zm1.43-30.07h-1.43v1.428h1.43v-1.43zm-1.43 64.444h1.43v-7.16h-1.43v7.16zm0-11.456h1.43v-1.434h-1.43v1.434zm0-5.728h1.43v-7.16h-1.43v7.16zm0-11.456h1.43v-1.434h-1.43v1.434zm0 34.374h1.43v-1.435h-1.43v1.435zm0 17.178h1.43V872.2h-1.43v1.426zm0-68.74h1.43v-1.433h-1.43v1.432zm0 63.015h1.43v-7.162h-1.43v7.163zm84.875-92.242h-2.196v-353.44l2.195 2.606v350.834zm-5.77-.005h-33.634v-348.52h32.992v-3.584h-32.992v-3.438h33.635v355.54zm-37.223 0h-8.856V420.11h8.857v355.543zm-10.288 0h-30.167v-.843h-1.43v.843h-30.17l.008-355.54h30.164v.96h1.43v-.96h30.165v355.54zm-63.196 0h-8.864V427.128h7.35v-3.574h-7.35v-3.442h8.864v355.54zm-12.443-352.1H78.928v-3.44h33.634v3.44zm0 352.1H78.928V427.128h33.634v348.525zm-37.21-352.1h-.565l.566-.492v.494zm0 352.105h-2.194V427.13h2.195v348.528zm163.934-358.994v-.134h-38.987l-.013-.002h-42.25v-2.614h-1.43v2.614H114.36l-.015.002H75.35v1.78l-5.767 5.04v355.884h5.768v.006h81.254v2.733h1.43v-2.733h81.25v-.006h5.773V423.506l-.42-.496-5.353-6.346z" fill="#c6714b" fill-rule="nonzero"/></g></g><g id="circlemiddle"><clipPath id="_clip3"><path d="M143.47 685.62h249.72V916.18H143.47z"/></clipPath><g opacity=".12" clip-path="url(#_clip3)"><path id="circlemiddlecurve" d="M270.28 704.695h-1.19v1.19h1.19v-1.19zm69.414 101.776c-.397 38.388-31.55 69.356-70.01 69.428-38.67-.072-69.958-31.363-70.024-70.027.066-38.668 31.354-69.95 70.024-70.023 38.46.072 69.616 31.035 70.01 69.427h-.266v1.197h.266zm-70.01-73.61c-40.12 0-72.675 32.374-73 72.414h-.643v1.197h.644c.325 40.04 32.88 72.415 73 72.415 40.317 0 73.013-32.696 73.013-73.014 0-40.316-32.696-73.01-73.013-73.01m.597-37.727h-1.19v5.976h1.19v-5.977zm0 14.338h-1.19v5.977h1.19v-5.976zm0 14.337h-1.19v5.974h1.19v-5.973zm0-4.778h-1.19v1.196h1.19v-1.197zm54.81 87.44h1.19v-1.196h-1.19v1.197zm-52.574 0h5.976v-1.196h-5.976v1.197zm-60.942-1.196h-1.194v1.197h1.194v-1.196zm58.707-114.92h-1.19v1.197h1.19v-1.196zm16.577 116.117h5.968v-1.196h-5.968v1.197zm9.552 0h1.2v-1.196h-1.2v1.197zm19.114 0h5.978v-1.196h-5.978v1.197zm-4.776 0h1.197v-1.196h-1.197v1.197zm-9.558 0h5.974v-1.196h-5.974v1.197zm-19.117 0h1.195v-1.196h-1.195v1.197zm86.03 0h1.194v-1.196h-1.195v1.197zm4.775 0h5.982v-1.196h-5.982v1.197zm-14.333 0h5.973v-1.196h-5.973v1.197zM270.28 685.62h-1.19v1.15h1.19v-1.15zm83.484 120.85h1.194v-1.196h-1.194v1.197zm28.68 0h1.19v-1.196h-1.19v1.197zm4.776 0h5.97v-1.196h-5.97v1.197zm-234.19 0h1.192v-1.196h-1.192v1.197zm19.118 0h5.973v-1.196h-5.972v1.197zm-4.782 0h1.198v-1.196h-1.198v1.197zm176.838 0h5.978v-1.196h-5.978v1.197zm-162.502 0h1.2v-1.196h-1.2v1.197zm-38.232 0h5.976v-1.196h-5.976v1.197zm14.34 0h5.972v-1.196h-5.973v1.197zm28.676 0h5.974v-1.196h-5.974v1.197zm83.795 12.924h-1.19v1.2h1.19v-1.2zm0-43.01h-1.19v1.19h1.19v-1.19zm0-14.34h-1.19v1.195h1.19v-1.195zm0 47.795h-1.19v5.973h1.19v-5.974zm0-43.02h-1.19v5.98h1.19v-5.98zm0 38.238h-1.19v1.195h1.19v-1.195zm0-9.557h-1.19v5.974h1.19V795.5zm0-4.778h-1.19v1.192h1.19v-1.192zm0-9.563h-1.19v5.98h1.19v-5.98zm-1.19 120.68h1.19v-5.974h-1.19v5.973zm0 14.338h1.19v-5.973h-1.19v5.973zm0-9.557h1.19v-1.197h-1.19v1.198zm0-14.338h1.19v-1.197h-1.19v1.197zm1.19-144.576h-1.19v1.195h1.19v-1.194zm0 4.78h-1.19v5.975h1.19v-5.973zM269.09 887.5h1.19v-5.97h-1.19v5.97zm-47.953-82.224h-5.97v1.197h5.97v-1.196zm33.456 0H253.4v1.197h1.193v-1.196zm9.56 0h-5.976v1.197h5.976v-1.196zm-28.68 0H229.5v1.197h5.973v-1.196zm14.34 0h-5.977v1.197h5.976v-1.196zm20.468-63.83v-3.295h-1.19v5.97h1.19v-1.478c34.444.38 62.252 28.187 62.63 62.632h-3.045v1.197h3.045c-.378 34.444-28.186 62.247-62.63 62.63v-1.91h-1.19v1.91c-34.446-.38-62.257-28.183-62.636-62.63h.342v-1.196h-.344c.157-16.557 6.794-32.416 18.51-44.123l-.846-.844v-.003c-11.94 11.934-18.704 28.1-18.862 44.97h-4.434v1.198h4.434c.323 35.11 28.726 63.508 63.835 63.825v2.872h1.19v-2.872c35.108-.32 63.505-28.717 63.828-63.824h1.736v-1.196h-1.736c-.323-35.107-28.72-63.51-63.827-63.83m-30.028 63.83h-1.192v1.197h1.192v-1.196zm28.677 0h-1.19v1.197h1.19v-1.196zm-44.212 1.197h1.192v-1.196h-1.192v1.197zm45.563 17.708h-1.19v5.97h1.19v-5.97zm0 14.336h-1.19v5.973h1.19v-5.973zm0-4.78h-1.19v1.2h1.19v-1.2zm0 14.34h-1.19v1.197h1.19v-1.196zm0 14.34h-1.19v1.19h1.19v-1.19zm0-9.56h-1.19v5.975h1.19v-5.975z" fill="#c6714b" fill-rule="nonzero"/></g></g><g id="toplines"><clipPath id="_clip4"><path d="M525.026 0h85.98v236.12h-85.98z"/></clipPath><g opacity=".2" clip-path="url(#_clip4)"><path id="toplinescurve" d="M567.487 164.675c0-2.323.38-4.05 1.112-5.19.735-1.138 1.764-1.685 3.172-1.69 1.53.005 2.59.552 3.27 1.658.68 1.118 1.037 2.862 1.034 5.222.003 2.317-.38 4.048-1.112 5.184-.736 1.135-1.773 1.687-3.192 1.69-1.504-.003-2.544-.58-3.24-1.76-.693-1.195-1.045-2.9-1.045-5.115m4.256 7.226h.03c1.517.007 2.703-.62 3.493-1.85s1.162-3.018 1.168-5.375c-.006-2.4-.358-4.198-1.09-5.403-.742-1.22-1.958-1.837-3.572-1.832-1.504-.005-2.688.627-3.47 1.856-.794 1.227-1.17 3.02-1.17 5.38 0 2.25.36 4.012 1.09 5.29.74 1.277 1.94 1.935 3.52 1.935m-2.636-7.225c-.006-1.936.23-3.35.67-4.232.45-.872 1.08-1.278 1.996-1.286.502 0 .907.13 1.24.38.334.25.606.612.83 1.098.216.488.378 1.074.472 1.762.098.694.146 1.448.146 2.278 0 1.946-.232 3.362-.674 4.234-.443.87-1.083 1.27-2.014 1.274-.464 0-.842-.123-1.168-.38-.33-.257-.613-.623-.837-1.103-.224-.48-.392-1.06-.5-1.743-.105-.685-.16-1.445-.16-2.282m1.28 5.408c.385.31.857.46 1.385.458h.024c1.032 0 1.832-.516 2.307-1.47.483-.963.712-2.42.712-4.395 0-.843-.05-1.614-.152-2.328-.093-.71-.26-1.33-.496-1.86-.24-.527-.552-.943-.944-1.24-.397-.292-.888-.442-1.45-.442-1.035-.005-1.835.51-2.313 1.483-.482.97-.71 2.42-.712 4.387 0 .848.056 1.63.17 2.336.113.71.286 1.318.53 1.838.242.523.554.936.938 1.235m-6.47.15v1.087h-6.565v-1.088h2.726v-9.608l.195-1.125.113-.644-1.2 1.416-1.97 1.405-.534-.714 4.15-3.206.414.03v12.445h2.672zm-3.192-12.793l-4.538 3.46.845 1.132.105.136 2.285-1.635.395-.466-.085.525-.003 9.285h-2.73v1.795h7.274v-1.795h-2.67V157.44h-.876zm12.984-120.477h-7.4v-.318c.278-.29.606-.642.984-1.056.408-.45.83-.945 1.264-1.483.435-.542.872-1.12 1.296-1.726.427-.607.81-1.228 1.16-1.855.35-.632.627-1.258.838-1.885.216-.62.322-1.22.322-1.79.003-.666-.192-1.25-.586-1.703-.403-.467-1.022-.696-1.79-.696-.52 0-1.026.107-1.512.318-.41.176-.77.373-1.085.595l-.47-.808c.41-.33.89-.595 1.448-.79.6-.213 1.25-.32 1.95-.32.54 0 1.01.075 1.41.232.416.152.754.37 1.034.648.28.283.494.614.643.998.15.39.224.816.224 1.277 0 .66-.13 1.352-.374 2.053-.248.712-.576 1.427-.98 2.147-.407.723-.858 1.427-1.362 2.117-.51.69-1.01 1.35-1.517 1.968l-.93.82-.067.052v.368l1.46-.253 4.038.008v1.083zm.355-1.438h-4.424l-.774.128.597-.522c.53-.645 1.035-1.306 1.547-2.005.506-.704.973-1.418 1.386-2.154.414-.73.747-1.466 1.006-2.2.26-.738.392-1.463.392-2.17 0-.5-.083-.968-.246-1.4-.168-.432-.408-.808-.722-1.125-.318-.318-.71-.558-1.155-.734-.452-.17-.97-.252-1.543-.252-.733 0-1.424.115-2.067.34-.645.23-1.202.545-1.677.95l-.11.097.715 1.237.1.17.167-.12c.323-.245.707-.47 1.168-.666.445-.192.904-.285 1.373-.285.712 0 1.195.195 1.52.57.33.388.504.87.504 1.47 0 .523-.098 1.083-.304 1.68-.205.598-.477 1.206-.816 1.82-.34.618-.717 1.226-1.138 1.826-.42.6-.85 1.173-1.278 1.707-.434.538-.85 1.024-1.25 1.464-.406.44-.747.808-1.03 1.11l-.048.047v.816h8.107v-1.795zm4.496.227c.268.11.575.205.906.288.426.1.9.147 1.418.147.46 0 .89-.067 1.288-.2.395-.14.744-.347 1.032-.614.296-.27.526-.597.686-.965.165-.376.25-.784.25-1.22 0-.943-.285-1.68-.874-2.167-.58-.473-1.368-.703-2.34-.703h-1.266v-.338l2.774-4.28.87-.823.418-.394-1.832.282h-3.654v-1.088h6.603v.336l-3.073 4.61-.643.53-.066.052v.34l.877-.18c.46.02.917.102 1.336.275.422.165.785.403 1.094.717.304.315.547.69.72 1.13.174.44.26.934.26 1.502 0 .682-.12 1.277-.353 1.797-.236.528-.56.962-.956 1.314-.406.356-.883.63-1.435.815-.556.19-1.134.285-1.756.285-.573 0-1.09-.045-1.55-.136-.386-.077-.732-.168-1.04-.28l.305-1.032zm.67 1.66c.484.095 1.022.14 1.614.14.656 0 1.278-.1 1.867-.3.593-.2 1.118-.497 1.556-.887.44-.384.792-.864 1.045-1.432.262-.573.388-1.216.388-1.944 0-.603-.088-1.147-.28-1.633-.195-.482-.46-.898-.803-1.248-.34-.35-.747-.62-1.208-.803-.464-.184-.968-.28-1.504-.294l-.075.014.206-.168 3.157-4.74v-.797h-7.31v1.794h4.034l.74-.112-.49.472-2.86 4.398v.797h1.623c.915 0 1.613.216 2.115.624.488.403.74 1.016.744 1.893 0 .39-.075.746-.216 1.07-.15.332-.352.617-.6.852-.26.235-.56.413-.915.54-.36.12-.747.183-1.17.183-.494 0-.945-.048-1.33-.14-.4-.098-.745-.215-1.033-.348l-.192-.09-.464 1.58-.046.15.152.066c.363.15.784.267 1.26.36m21.036 165.827c-1.074-1.03-2.165-1.653-3.272-1.835v-17.797l3.272 19.632zM595.99 75.67l-3.258-19.537c1.07 1.118 2.155 1.688 3.26 1.8V75.67zm0 125.7c-1.103.113-2.19.69-3.258 1.81l3.26-19.56v17.75zm-46.983 1.867c-1.072-1.024-2.163-1.648-3.264-1.83v-17.74l3.264 19.57zm-4.272-55.634l-3.26-19.55c1.07 1.126 2.16 1.694 3.26 1.806v17.743zm0 53.77c-1.104.11-2.192.686-3.26 1.808l3.26-19.56v17.753zm1.008-71.55c1.1-.18 2.192-.804 3.267-1.828l-3.267 19.584v-17.756zM596.996 57.9c1.104-.18 2.19-.804 3.267-1.833L596.996 75.7V57.9zm-1.05 19.655l.045.285v100.592h-50.247V149.76l.184-1.107h8.096v-1.005h-7.928l3.448-20.7-.395.407c-1.154 1.205-2.29 1.904-3.405 2.106v-16.17h-1.008v16.21c-1.117-.124-2.243-.775-3.397-2.135l-.42-.493.105.635 3.355 20.14h-19.352v1.006h19.52l.19 1.11v28.67H527.67v1.004h17.065v2.022l-3.816 22.895.415-.486c1.155-1.37 2.285-2.01 3.4-2.14v10.97h1.008v-10.932c1.115.205 2.245.904 3.403 2.112l.397.413-3.8-22.813v-2.043h50.248v2.024l-3.815 22.905.416-.496c1.156-1.366 2.286-2.01 3.4-2.14v10.97h1.006v-10.932c1.115.2 2.25.9 3.414 2.11l.392.415-3.806-22.86v-1.996h14.01v-1.005h-14.01V77.87l.048-.315h13.864v-1.008h-13.693l3.587-21.523-.398.408c-1.157 1.203-2.296 1.904-3.408 2.104V0h-1.005v57.573c-1.116-.122-2.244-.77-3.4-2.138l-.412-.483.1.627 3.497 20.967M526.823 236.12v-1.005" fill="#c6714b" fill-rule="nonzero"/></g></g></g></svg>