<svg viewBox="0 0 1318 1938" xmlns="http://www.w3.org/2000/svg" fill-rule="evenodd" clip-rule="evenodd" stroke-linejoin="round" stroke-miterlimit="1.414"><g id="Layer 1" fill-rule="nonzero"><path id="right-bottom-right" d="M1190.37 1391.3l-42.963 11.666 11.46 41.656h46.196l-14.693-53.322z" fill="#d4641b"/><path id="right-lower" d="M1174 1056.6l-59.048 220.853 43.026 11.77 62.07-232.602-46.048-.02z" fill="#d4641b"/><path id="center-light" d="M916.838 1085.45L705.676 943.434l-.608-216.307 94.048-175.733-16.558-17.878-237.33 190.08 67.11 57.63v162.266l-211.452 141.734 140.59 370.525-114.1 300.19 95.265 105.243 40.982-152.896 43.022 11.443-45.035 168.9 48.892 48.214 96.832.22 41.275-40.49-46.22-176.287 43.022-11.443 39.842 151.966 104.65-105.307-113.508-299.664 140.442-370.39z" fill="#faaa44"/><path id="left-bottom" d="M563.846 1707.63l-41.205 153.557 46.033-.048 38.194-142.067-43.02-11.443z" fill="#d4641b"/><path id="right-bottom" d="M745.156 1708.96l40.1 151.853-46.09-.11-37.03-140.3 43.02-11.443z" fill="#d4641b"/><path id="right-light" d="M1219.98 1056.49l-62.067 232.278-42.72-11.387 58.672-220.76-116.906-307.764-53.495 201.458-43.02-11.442 50.482-190.006L726.88.042 681.965 0l.317 564.845 100.19-80.14 58.542 66.852-91.016 175.35-.11 193.178 221.59 147.92L824 1455.797l101.892 268.35 144.603-144.057-39.134-141.594 42.964-11.667 32.82 117.388 61.82-61.373-21.464-79.755 42.96-11.666 14.723 53.312 112.5-111.267.017-18.21-97.72-258.77z" fill="#faaa44"/><path id="right-bottom-left" d="M1074.47 1426.99l-42.963 11.667 28.94 104.573h46.033l-32.01-116.24z" fill="#d4641b"/><path id="right-upper" d="M1011 748.63l-50.552 190.245 43.02 11.443 53.564-201.66-46.032-.028z" fill="#d4641b"/><path id="left-light" d="M306.765 747.99l51.152 189.52-43.024 11.447-54.157-200.978-116.904 307.764 58.672 220.76-42.72 11.387-62.067-232.27L0 1314.38l.013 18.22 112.504 111.26 14.718-53.32 42.962 11.668-21.466 79.755 61.817 61.376 32.826-117.388 42.963 11.66L247.2 1579.22l144.61 144.055 101.883-268.352-147.474-387.798L556.506 926.38l5.922-126.324-82.443-76.237 155.49-128.508V.016L590.46 0 306.766 747.99z" fill="#faaa44"/><path id="left-bottom-right" d="M243.224 1426.11l42.965 11.66-28.945 104.575H211.21l32.014-116.235z" fill="#d4641b"/><path id="left-bottom-left" d="M127.328 1390.43l42.963 11.66-11.46 41.657H112.63l14.696-53.317z" fill="#d4641b"/><path id="left-upper" d="M307.03 747.416l50.886 190.094-43.024 11.448L261 747.438l46.03-.022z" fill="#d4641b"/><path id="left-lower" d="M144.028 1055.05l59.046 220.853-43.024 11.776-62.07-232.604 46.048-.026z" fill="#d4641b"/><path id="right-long-line" d="M971.208 1068.01L749.885 920.092l.11-193.176 91.016-175.35-41.895-.167-94.048 175.735.61 216.307 211.35 141.87-140.654 370.655 101.563 268.25 47.955-.06-101.9-268.19 131.005-345.235 16.213-42.722z" fill="#d4641b"/><path id="left-long-line" d="M612.338 781.23l-66.78-57.52-65.572.108 82.443 76.24-5.924 126.323-210.288 140.745 16.52 43.165 131.006 345.23-101.9 268.194 47.956.056 101.733-267.808-140.653-370.656 211.458-141.81V781.228z" fill="#d4641b"/></g></svg>