<?xml version="1.0" standalone="no"?><!DOCTYPE svg PUBLIC "-//W3C//DTD SVG 1.1//EN" "http://www.w3.org/Graphics/SVG/1.1/DTD/svg11.dtd"><svg width="100%" height="100%" viewBox="0 0 750 1334" version="1.1" xmlns="http://www.w3.org/2000/svg" xmlns:xlink="http://www.w3.org/1999/xlink" xml:space="preserve" style="fill-rule:evenodd;clip-rule:evenodd;stroke-linejoin:round;stroke-miterlimit:1.41421;"><g opacity="0.85069" id="background map"><g id="crossbar"><clipPath id="_clip1"><rect x="0" y="277.861" width="749.4" height="1055.8"/></clipPath><g clip-path="url(#_clip1)"><g opacity="0.119995"><path id="crossbar1" d="M316.789,1008.71l-0.61,1.134l1.136,0.616l0.613,-1.134l-1.139,-0.616ZM324.136,995.128l-0.613,1.136l1.136,0.613l0.613,-1.13l-1.136,-0.619ZM321.688,999.656l-3.064,5.659l1.139,0.616l3.061,-5.662l-1.136,-0.613ZM336.379,972.491l-3.059,5.661l1.136,0.613l3.061,-5.658l-1.138,-0.616ZM331.48,981.552l-0.611,1.125l1.139,0.616l0.608,-1.125l-1.136,-0.616ZM329.032,986.077l-3.061,5.659l1.138,0.616l3.062,-5.661l-1.139,-0.614ZM294.749,1049.46l-0.613,1.133l1.139,0.616l0.61,-1.133l-1.136,-0.616ZM299.648,1040.4l-3.061,5.658l1.138,0.616l3.062,-5.661l-1.139,-0.613ZM314.339,1013.24l-3.062,5.658l1.139,0.614l3.059,-5.659l-1.136,-0.613ZM309.443,1022.3l-0.614,1.131l1.139,0.616l0.611,-1.131l-1.136,-0.616ZM306.992,1026.82l-3.061,5.662l1.138,0.613l3.062,-5.659l-1.139,-0.616ZM302.096,1035.87l-0.611,1.133l1.136,0.616l0.614,-1.13l-1.139,-0.619ZM380.459,891.003l-3.062,5.658l1.136,0.616l3.062,-5.658l-1.136,-0.616ZM368.213,913.64l-0.61,1.128l1.136,0.616l0.61,-1.128l-1.136,-0.616ZM365.763,918.168l-3.059,5.659l1.136,0.616l3.061,-5.659l-1.138,-0.616ZM373.112,904.579l-3.061,5.661l1.138,0.616l3.062,-5.659l-1.139,-0.618ZM382.907,886.477l-0.614,1.134l1.136,0.613l0.614,-1.133l-1.136,-0.614ZM292.299,1053.99l-3.062,5.661l1.139,0.613l3.061,-5.658l-1.138,-0.616ZM375.56,900.056l-0.611,1.131l1.136,0.616l0.614,-1.131l-1.139,-0.616ZM346.173,954.384l-0.613,1.133l1.139,0.616l0.613,-1.136l-1.139,-0.613ZM343.725,958.909l-3.061,5.662l1.139,0.616l3.061,-5.662l-1.139,-0.616ZM338.829,967.965l-0.613,1.134l1.136,0.616l0.613,-1.136l-1.136,-0.614ZM353.523,940.797l-0.614,1.136l1.139,0.614l0.611,-1.131l-1.136,-0.619ZM358.419,931.749l-3.062,5.656l1.139,0.616l3.059,-5.658l-1.136,-0.614ZM351.069,945.333l-3.056,5.654l1.136,0.613l3.059,-5.651l-1.139,-0.616ZM360.867,927.221l-0.614,1.134l1.139,0.613l0.613,-1.133l-1.138,-0.614ZM196.797,1230.55l-3.061,5.662l1.136,0.613l3.064,-5.659l-1.139,-0.616ZM226.181,1176.23l-3.058,5.65l1.138,0.619l3.056,-5.653l-1.136,-0.616ZM221.283,1185.28l-0.611,1.133l1.136,0.614l0.613,-1.134l-1.138,-0.613ZM235.979,1158.12l-0.614,1.133l1.136,0.613l0.614,-1.13l-1.136,-0.616ZM228.632,1171.69l-0.611,1.134l1.136,0.616l0.614,-1.134l-1.139,-0.616ZM218.835,1189.81l-3.059,5.656l1.139,0.619l3.058,-5.662l-1.138,-0.613ZM233.531,1162.64l-3.062,5.659l1.136,0.616l3.064,-5.659l-1.138,-0.616ZM387.805,877.419l-3.061,5.656l1.139,0.618l3.058,-5.661l-1.136,-0.613ZM213.939,1198.86l-0.611,1.133l1.136,0.613l0.613,-1.13l-1.138,-0.616ZM199.248,1226.02l-0.613,1.136l1.136,0.614l0.613,-1.134l-1.136,-0.616ZM204.141,1216.97l-3.061,5.659l1.139,0.613l3.061,-5.661l-1.139,-0.611ZM211.491,1203.38l-3.062,5.661l1.136,0.616l3.062,-5.661l-1.136,-0.616ZM206.592,1212.44l-0.611,1.126l1.139,0.616l0.608,-1.128l-1.136,-0.614ZM191.901,1239.61l-0.613,1.131l1.136,0.616l0.616,-1.133l-1.139,-0.614ZM272.709,1090.2l-0.613,1.136l1.139,0.613l0.613,-1.133l-1.139,-0.616ZM270.261,1094.73l-3.061,5.658l1.139,0.616l3.061,-5.661l-1.139,-0.613ZM287.405,1063.04l-0.616,1.133l1.139,0.616l0.613,-1.136l-1.136,-0.613ZM284.957,1067.57l-3.064,5.662l1.136,0.613l3.064,-5.659l-1.136,-0.616ZM280.056,1076.62l-0.611,1.133l1.136,0.616l0.614,-1.131l-1.139,-0.618ZM277.608,1081.15l-3.064,5.659l1.139,0.616l3.061,-5.662l-1.136,-0.613ZM248.224,1135.48l-3.064,5.656l1.139,0.619l3.061,-5.661l-1.136,-0.614ZM240.875,1149.06l-3.062,5.659l1.136,0.616l3.062,-5.659l-1.136,-0.616ZM262.915,1108.31l-3.059,5.656l1.139,0.616l3.058,-5.659l-1.138,-0.613ZM243.323,1144.53l-0.611,1.128l1.139,0.619l0.61,-1.131l-1.138,-0.616ZM258.016,1117.37l-0.608,1.125l1.136,0.616l0.611,-1.128l-1.139,-0.613ZM255.568,1121.89l-3.061,5.664l1.136,0.614l3.064,-5.659l-1.139,-0.619ZM250.672,1130.95l-0.613,1.134l1.138,0.613l0.611,-1.133l-1.136,-0.614ZM265.365,1103.78l-0.613,1.133l1.136,0.614l0.613,-1.131l-1.136,-0.616ZM520.043,632.941l-3.062,5.662l1.134,0.613l3.064,-5.659l-1.136,-0.616ZM522.488,628.419l-0.611,1.13l1.134,0.616l0.616,-1.133l-1.139,-0.613ZM515.144,641.997l-0.613,1.131l1.138,0.616l0.611,-1.133l-1.136,-0.614ZM527.387,619.363l-3.064,5.658l1.138,0.616l3.062,-5.658l-1.136,-0.616ZM534.733,605.779l-3.061,5.658l1.139,0.616l3.061,-5.661l-1.139,-0.613ZM529.837,614.832l-0.613,1.133l1.136,0.616l0.613,-1.133l-1.136,-0.616ZM498.003,673.685l-3.064,5.662l1.138,0.616l3.062,-5.662l-1.136,-0.616ZM493.104,682.747l-0.611,1.125l1.136,0.616l0.611,-1.128l-1.136,-0.613ZM512.693,646.523l-3.058,5.658l1.138,0.616l3.059,-5.658l-1.139,-0.616ZM490.653,687.272l-3.061,5.661l1.139,0.614l3.061,-5.659l-1.139,-0.616ZM505.347,660.109l-3.062,5.659l1.136,0.616l3.064,-5.661l-1.138,-0.614ZM500.451,669.16l-0.614,1.133l1.139,0.616l0.611,-1.133l-1.136,-0.616ZM507.795,655.581l-0.611,1.134l1.136,0.613l0.613,-1.131l-1.138,-0.616ZM537.181,601.251l-0.613,1.136l1.139,0.613l0.613,-1.133l-1.139,-0.616ZM728.115,740.627l3.482,5.402l1.083,-0.696l-3.48,-5.408l-1.085,0.702ZM736.477,753.605l3.48,5.408l1.08,-0.696l-3.48,-5.408l-1.08,0.696ZM725.325,736.299l0.704,1.082l1.08,-0.701l-0.698,-1.083l-1.086,0.702ZM745.917,765.893l-1.08,0.694l3.491,5.416l1.072,-0.702l-3.483,-5.408ZM742.051,762.259l0.693,1.082l1.083,-0.696l-0.694,-1.08l-1.082,0.694ZM733.691,749.277l0.696,1.08l1.08,-0.696l-0.696,-1.077l-1.08,0.693ZM719.757,727.643l3.478,5.408l1.085,-0.702l-3.483,-5.402l-1.08,0.696ZM700.248,697.347l0.693,1.082l1.083,-0.698l-0.696,-1.078l-1.08,0.694ZM703.035,701.677l3.488,5.411l1.072,-0.699l-3.48,-5.408l-1.08,0.696ZM716.968,723.315l0.701,1.085l1.075,-0.699l-0.693,-1.082l-1.083,0.696ZM711.395,714.659l3.488,5.413l1.077,-0.699l-3.485,-5.408l-1.08,0.694ZM708.608,710.331l0.699,1.085l1.074,-0.699l-0.69,-1.08l-1.083,0.694ZM463.717,737.072l-0.61,1.131l1.136,0.616l0.613,-1.134l-1.139,-0.613ZM424.539,809.504l-3.062,5.661l1.139,0.616l3.059,-5.661l-1.136,-0.616ZM419.637,818.565l-0.613,1.134l1.139,0.616l0.613,-1.134l-1.139,-0.616ZM426.987,804.979l-0.614,1.136l1.136,0.613l0.614,-1.133l-1.136,-0.616ZM434.333,791.4l-0.616,1.136l1.139,0.613l0.613,-1.133l-1.136,-0.616ZM417.189,823.091l-3.061,5.658l1.139,0.616l3.061,-5.658l-1.139,-0.616ZM431.883,795.928l-3.062,5.659l1.139,0.616l3.061,-5.662l-1.138,-0.613ZM397.6,859.309l-0.613,1.134l1.136,0.616l0.613,-1.134l-1.136,-0.616ZM395.152,863.835l-3.061,5.661l1.136,0.616l3.064,-5.661l-1.139,-0.616ZM404.949,845.725l-0.616,1.134l1.139,0.613l0.613,-1.133l-1.136,-0.614ZM409.845,836.672l-3.061,5.661l1.136,0.616l3.061,-5.661l-1.136,-0.616ZM412.293,832.144l-0.613,1.136l1.136,0.613l0.616,-1.133l-1.139,-0.616ZM402.496,850.256l-3.061,5.661l1.136,0.616l3.064,-5.661l-1.139,-0.616ZM485.757,696.325l-0.613,1.136l1.136,0.614l0.616,-1.136l-1.139,-0.614ZM390.256,872.888l-0.613,1.136l1.136,0.616l0.613,-1.136l-1.136,-0.616ZM468.616,728.016l-3.061,5.661l1.138,0.614l3.059,-5.659l-1.136,-0.616ZM471.061,723.491l-0.61,1.133l1.136,0.616l0.613,-1.133l-1.139,-0.616ZM439.227,782.347l-3.059,5.661l1.136,0.613l3.061,-5.658l-1.138,-0.616ZM478.411,709.907l-0.611,1.133l1.136,0.613l0.613,-1.133l-1.138,-0.613ZM475.96,714.437l-3.059,5.654l1.139,0.616l3.059,-5.654l-1.139,-0.616ZM483.309,700.851l-3.061,5.661l1.136,0.616l3.061,-5.661l-1.136,-0.616ZM461.269,741.597l-3.061,5.659l1.139,0.616l3.061,-5.659l-1.139,-0.616ZM441.68,777.813l-0.613,1.134l1.138,0.616l0.614,-1.134l-1.139,-0.616ZM446.576,768.763l-3.061,5.658l1.136,0.616l3.064,-5.661l-1.139,-0.613ZM456.371,750.656l-0.611,1.128l1.139,0.616l0.608,-1.128l-1.136,-0.616ZM453.923,755.184l-3.064,5.659l1.138,0.616l3.062,-5.659l-1.136,-0.616ZM449.024,764.235l-0.613,1.133l1.138,0.616l0.614,-1.133l-1.139,-0.616ZM560.907,480.981l3.485,5.403l1.08,-0.696l-3.488,-5.413l-1.077,0.706ZM476.296,347.208l-0.699,-1.08l-1.085,0.701l0.696,1.08l1.088,-0.701ZM481.867,355.861l-3.483,-5.408l-1.085,0.702l3.485,5.405l1.083,-0.699ZM456.781,316.917l-3.48,-5.408l-1.082,0.696l3.488,5.411l1.074,-0.699ZM559.72,565.275c-0.435,0.794 -1.315,1.165 -2.16,1.021l0.349,-0.648l-1.138,-0.616l-0.35,0.651c-0.586,-0.632 -0.754,-1.574 -0.328,-2.374c0.259,-0.48 0.707,-0.84 1.23,-0.997l-0.056,-0.179c0.554,-0.162 1.168,-0.117 1.709,0.176l-0.088,0.166c1.005,0.544 1.371,1.789 0.832,2.8M560.507,559.48c-2.659,-1.437 -5.974,-0.451 -7.411,2.205c-1.331,2.464 -0.563,5.475 1.672,7.051l-1.059,1.957l1.139,0.616l1.059,-1.96c2.538,1.006 5.48,0.003 6.81,-2.458c1.438,-2.659 0.451,-5.971 -2.21,-7.411M609.336,470.573l-1.139,-0.613l-3.061,5.656l1.139,0.616l3.061,-5.659ZM459.568,321.245l-0.699,-1.08l-1.077,0.696l0.696,1.08l1.08,-0.696ZM545.664,588.285l-1.136,-0.613l-0.611,1.125l1.139,0.616l0.608,-1.128ZM465.141,329.904l-3.482,-5.411l-1.083,0.694l3.485,5.41l1.08,-0.693ZM473.504,342.88l-3.483,-5.408l-1.082,0.701l3.48,5.408l1.085,-0.701ZM467.928,334.229l-0.696,-1.082l-1.077,0.696l0.69,1.082l1.083,-0.696ZM604.437,479.627l-1.136,-0.614l-0.613,1.131l1.139,0.616l0.61,-1.133ZM549.757,463.669l0.696,1.08l1.083,-0.693l-0.696,-1.083l-1.083,0.696ZM552.547,467.997l3.48,5.408l1.085,-0.701l-3.488,-5.411l-1.077,0.704ZM624.029,443.408l-1.138,-0.613l-3.059,5.658l1.136,0.616l3.061,-5.661ZM611.784,466.048l-1.139,-0.616l-0.613,1.131l1.139,0.616l0.613,-1.131ZM544.187,455.013l3.482,5.408l1.078,-0.696l-3.486,-5.41l-1.074,0.698ZM541.4,450.685l0.696,1.083l1.08,-0.696l-0.696,-1.083l-1.08,0.696ZM616.683,456.995l-1.139,-0.616l-3.061,5.658l1.138,0.616l3.062,-5.658ZM619.131,452.461l-1.136,-0.613l-0.614,1.131l1.136,0.616l0.614,-1.134ZM189.453,1244.13l-3.064,5.667l1.136,0.616l3.064,-5.664l-1.136,-0.619ZM578.4,551.437l-0.005,-0.002l0.938,-0.571l-0.933,0.573ZM578.565,547.875c-0.645,-0.35 -1.664,-0.672 -2.714,-0.035c-0.323,0.189 -0.619,0.509 -0.808,0.859c-0.728,1.645 -0.171,3.002 0.616,4.421c0.578,0.928 1.274,1.661 2.133,2.139c0.651,0.352 1.64,0.648 2.672,0.072c0.389,-0.243 0.672,-0.571 0.851,-0.902c0.728,-1.645 0.17,-2.994 -0.608,-4.413c-0.584,-0.933 -1.28,-1.661 -2.142,-2.141M558.12,476.653l0.693,1.078l1.086,-0.699l-0.694,-1.08l-1.085,0.701ZM534.813,438.085l-0.698,-1.082l-1.075,0.698l0.696,1.083l1.077,-0.699ZM526.456,425.101l-0.701,-1.08l-1.075,0.699l0.693,1.077l1.083,-0.696ZM532.029,433.76l-3.482,-5.408l-1.08,0.693l3.48,5.411l1.082,-0.696ZM157.005,1304.12l1.136,0.616l3.062,-5.659l-1.136,-0.618l-3.062,5.661ZM523.669,420.776l-3.482,-5.408l-1.083,0.693l3.483,5.411l1.082,-0.696ZM142.309,1331.29l1.139,0.616l3.061,-5.661l-1.136,-0.616l-3.064,5.661ZM431.699,277.976l-0.07,-0.115l-1.08,0.694l0.07,0.114l1.08,-0.693ZM149.659,1317.7l1.138,0.614l3.062,-5.659l-1.139,-0.616l-3.061,5.661ZM154.555,1308.65l1.138,0.613l0.614,-1.133l-1.136,-0.616l-0.616,1.136ZM147.208,1322.23l1.136,0.619l0.616,-1.136l-1.139,-0.613l-0.613,1.13ZM442.848,295.277l-0.696,-1.08l-1.08,0.696l0.693,1.08l1.083,-0.696ZM498.584,381.829l-3.48,-5.405l-1.08,0.693l3.477,5.408l1.083,-0.696ZM440.061,290.952l-3.482,-5.411l-1.08,0.696l3.48,5.408l1.082,-0.693ZM434.488,282.296l-0.693,-1.083l-1.086,0.702l0.694,1.082l1.085,-0.701ZM451.208,308.264l-0.696,-1.083l-1.083,0.696l0.699,1.08l1.08,-0.693ZM518.093,412.12l-0.693,-1.08l-1.083,0.701l0.694,1.08l1.082,-0.701ZM491.235,372.789l0.696,1.08l1.082,-0.696l-0.696,-1.077l-1.082,0.693ZM515.304,407.797l-3.48,-5.41l-1.08,0.698l3.48,5.406l1.08,-0.694ZM485.664,364.133l3.48,5.408l1.08,-0.693l-3.48,-5.408l-1.08,0.693ZM509.731,399.141l-0.696,-1.08l-1.078,0.696l0.694,1.08l1.08,-0.696ZM501.373,386.157l-0.696,-1.082l-1.08,0.698l0.694,1.08l1.082,-0.696ZM506.947,394.816l-3.483,-5.411l-1.083,0.696l3.486,5.408l1.08,-0.693ZM448.421,303.933l-3.48,-5.408l-1.082,0.696l3.48,5.408l1.082,-0.696ZM666.808,645.419l0.699,1.085l1.074,-0.701l-0.696,-1.078l-1.077,0.694ZM669.589,649.747l3.488,5.41l1.078,-0.696l-3.483,-5.408l-1.083,0.694ZM677.952,662.728l3.48,5.411l1.083,-0.699l-3.478,-5.411l-1.085,0.699ZM675.163,658.403l0.704,1.085l1.072,-0.699l-0.694,-1.082l-1.082,0.696ZM658.445,632.437l0.699,1.08l1.075,-0.696l-0.694,-1.08l-1.08,0.696ZM644.515,610.805l3.482,5.4l1.075,-0.696l-3.48,-5.41l-1.077,0.706ZM641.725,606.477l0.696,1.08l1.086,-0.701l-0.702,-1.083l-1.08,0.704ZM652.877,623.781l3.483,5.411l1.075,-0.699l-3.483,-5.41l-1.075,0.698ZM661.229,636.763l3.491,5.41l1.075,-0.696l-3.483,-5.41l-1.083,0.696ZM683.523,671.387l0.701,1.082l1.08,-0.701l-0.696,-1.083l-1.085,0.702ZM650.083,619.453l0.704,1.086l1.077,-0.696l-0.699,-1.088l-1.082,0.698ZM177.208,1266.77l-0.613,1.133l1.138,0.616l0.611,-1.133l-1.136,-0.616ZM182.104,1257.71l-3.061,5.658l1.138,0.616l3.062,-5.661l-1.139,-0.613ZM184.552,1253.19l-0.613,1.136l1.138,0.613l0.614,-1.131l-1.139,-0.618ZM174.76,1271.29l-3.061,5.662l1.136,0.613l3.064,-5.659l-1.139,-0.616ZM696.648,689.384l-0.893,-1.387l-1.08,0.694l1.208,1.877c-0.296,0.472 -0.608,0.915 -0.902,1.397c-5.986,10.016 -14.413,13.27 -23.704,15.55l-1.816,-2.822l-86.552,-134.4l1.52,-0.938c0.483,-0.155 0.95,-0.366 1.387,-0.638c0.344,-0.208 0.619,-0.488 0.907,-0.752c0.429,-0.146 0.845,-0.322 1.234,-0.562c1.03,-0.635 1.835,-1.536 2.392,-2.579c2.416,-4.712 0.979,-11.939 -3.162,-18.795c-2.736,-4.445 -6.2,-7.858 -9.686,-9.752c-0.997,-0.541 -2.024,-0.949 -3.048,-1.216l0.598,-1.104l-1.136,-0.613l-0.614,1.131l1.011,0.546c-2.045,-0.506 -4.077,-0.397 -5.848,0.68c-0.352,0.214 -0.656,0.486 -0.955,0.76c-0.408,0.15 -0.808,0.326 -1.194,0.56c-0.432,0.262 -0.835,0.584 -1.187,0.944l-2.179,1.339l-71.642,-111.251l1.197,-2.216c0.091,0.163 0.173,0.331 0.237,0.56l0.195,0.72l1.955,-5.693l0.701,-1.293l40.349,21.824l-0.114,0.074l3.48,5.408l1.08,-0.693l-2.347,-3.656l54.501,29.477l7.742,12.03l-2.491,4.602l1.136,0.616l2.152,-3.981l118.104,183.384c-7.557,2.832 -15.829,9.947 -22.536,20.168M564.691,542.011l1.41,-0.867l1.064,-0.653l0.006,-0.006l1.8,-1.106c0.496,-0.115 1.072,-0.128 1.701,-0.046l-2.267,4.195l1.136,0.613l2.446,-4.517c0.584,0.189 1.2,0.451 1.856,0.803c2.84,1.528 6.002,4.576 8.472,8.6c3.872,6.17 4.68,12.84 3.066,15.584c-0.141,0.261 -0.306,0.472 -0.477,0.674l-1.787,1.099l-0.01,0.003l-1.947,1.194l-16.469,-25.57ZM569.616,567.128c0.488,-2.019 0.464,-4.091 -0.069,-6.037l2.712,4.416l-2.643,1.621ZM564.203,554.013l0.464,-0.856l1.36,2.211c-0.555,-0.504 -1.168,-0.952 -1.824,-1.355M565.723,568.52c-0.214,0.392 -0.451,0.757 -0.712,1.101l-0.059,0.083l-0.237,0.437l-0.291,0.179l-0.077,0.072c-0.334,0.283 -0.694,0.536 -1.072,0.771c-2.798,1.714 -6.195,1.693 -8.894,0.232c-1.328,-0.72 -2.488,-1.779 -3.322,-3.142c-1.718,-2.797 -1.699,-6.194 -0.238,-8.909c0.296,-0.541 0.662,-1.043 1.067,-1.515c2.557,-2.373 6.341,-3.077 9.648,-1.602l-0.477,0.885l1.133,0.616l0.483,-0.888c3.856,2.483 5.253,7.565 3.048,11.68M568.621,589.787l-1.13,2.093l-18.39,-9.949l1.134,-2.088l18.386,9.944ZM559.32,598.864l-22.725,-12.291l0.138,-0.256l-8.4,-4.544l2.872,-5.309l31.126,16.835l-3.011,5.565ZM530.701,569.277l4.155,2.248l1.011,-1.874c1.058,0.242 2.101,0.549 3.152,0.848l-1.371,2.533l11.448,6.195l-1.133,2.09l-18.392,-9.949l1.13,-2.091ZM558.088,575.651c1.296,0.058 2.6,-0.064 3.88,-0.427l-1.224,2.259c-0.864,-0.63 -1.752,-1.24 -2.656,-1.832M541.805,571.307l19.051,10.304c0.363,0.285 0.707,0.6 1.064,0.896l-21.451,-11.6c0.446,0.136 0.894,0.25 1.336,0.4M546.853,566.293c0.288,1.256 0.755,2.488 1.462,3.643c0.141,0.221 0.301,0.419 0.448,0.629c-1.139,-0.506 -2.291,-0.989 -3.448,-1.429l1.538,-2.843ZM563.072,550.565l0.811,1.323l-0.816,1.509c-0.987,-0.464 -2.006,-0.778 -3.038,-0.96l3.043,-1.872ZM492.44,423.245l-0.803,1.48c-0.112,-0.008 -0.221,-0.018 -0.349,-0.002l1.152,-1.478ZM493.571,423.867l-0.622,1.8c-0.053,-0.112 -0.125,-0.2 -0.192,-0.296l0.814,-1.504ZM481.187,412.336l13.269,7.181l-0.701,1.296l-3.75,4.824l0.771,-0.309c0.237,-0.091 0.429,-0.123 0.613,-0.139l-0.88,1.624l-9.322,-14.477ZM459.587,378.797c9.61,-2.312 19.392,-5.96 26.01,-17.104c6.424,-10.81 14.862,-18.266 21.928,-21.141l2.078,3.235l81.496,126.544l-94.899,-51.328l6.957,-12.859l-1.136,-0.613l-6.957,12.858l-15.32,-8.288l-20.157,-31.304ZM722.088,671.651l2.112,-0.584l-125.789,-195.323l3.613,1.955l0.608,-1.128l-5.664,-3.064l-84.656,-131.459l-3.477,-5.397l-1.19,0.418c-8.237,2.875 -17.474,10.888 -24.578,22.611l-0.192,0.125l0.056,0.088c-0.03,0.051 -0.067,0.099 -0.099,0.152c-6.515,10.894 -15.944,13.795 -26.189,16.136l-2.243,0.507l34.363,53.357l-488.763,903.619l1.464,0l488.093,-902.381l70.651,109.706l-0.787,0.483l-1.088,0.669l3.371,5.486l-7.957,4.896c-0.499,0.221 -0.984,0.477 -1.459,0.768c-1.096,0.664 -2.027,1.496 -2.824,2.416c-0.837,0.829 -1.608,1.744 -2.195,2.832c-0.269,0.488 -0.49,0.989 -0.682,1.493l-4.342,8.024c-3.928,-1.272 -7.922,-2.157 -11.93,-2.667l-1.091,-0.133l-0.701,1.296c-2.782,-0.285 -5.579,-0.392 -8.376,-0.315l0.013,0.491c2.704,-0.075 5.416,0.029 8.107,0.296l-414.672,766.64l3.653,0l396.395,-732.845l0.57,0.306l-396.226,732.539l3.653,0l405.021,-748.803l14.998,8.115l-2.64,4.88l1.136,0.616l2.642,-4.883l14.99,8.11l-395.915,731.965l3.653,0l385.467,-712.645l0.571,0.309l-385.302,712.336l3.656,0l402.88,-744.84l-0.706,-0.837c-2.624,-3.08 -5.552,-5.936 -8.763,-8.528l3.8,-7.024l7.136,-4.39l0.891,1.454l2.48,4.032l0,0.005l2.528,-1.557l86.589,134.456l3.053,4.741l1.104,-0.261c9.867,-2.291 20.032,-5.838 26.835,-17.299c0.019,-0.027 0.035,-0.056 0.053,-0.08l0.368,0.568l1.072,-0.699l-0.693,-1.074c7.088,-11.355 16.352,-18.747 23.544,-20.68M691.888,684.365l0.696,1.078l1.077,-0.691l-0.693,-1.083l-1.08,0.696ZM686.315,675.707l3.485,5.413l1.077,-0.699l-3.482,-5.408l-1.08,0.694ZM167.411,1284.88l-3.062,5.656l1.139,0.616l3.059,-5.659l-1.136,-0.613ZM169.859,1280.36l-0.608,1.128l1.136,0.613l0.608,-1.125l-1.136,-0.616ZM162.515,1293.93l-0.614,1.131l1.139,0.616l0.611,-1.131l-1.136,-0.616ZM608.283,554.539l0.698,1.085l1.083,-0.696l-0.701,-1.083l-1.08,0.694ZM597.091,493.213l-1.139,-0.616l-0.611,1.131l1.136,0.616l0.614,-1.131ZM589.744,506.789l-1.133,-0.613l-0.616,1.133l1.136,0.616l0.613,-1.136ZM587.296,511.317l-1.136,-0.616l-2.48,4.584l-0.475,0.312l0.166,0.262l-0.275,0.504l1.139,0.616l0.426,-0.79l0.318,-0.205l-0.112,-0.173l2.429,-4.494ZM636.147,597.819l3.488,5.413l1.082,-0.701l-3.49,-5.408l-1.08,0.696ZM580.651,520.891l1.136,0.616l0.61,-1.131l-1.138,-0.616l-0.608,1.131ZM594.64,497.739l-1.133,-0.614l-3.064,5.656l1.138,0.616l3.059,-5.658ZM569.272,493.957l3.48,5.411l1.08,-0.696l-3.483,-5.408l-1.077,0.693ZM582.192,511.656l-3.48,-5.408l-1.08,0.693l3.477,5.408l1.083,-0.693ZM575.749,529.949l1.139,0.614l3.061,-5.659l-1.138,-0.616l-3.062,5.661ZM575.92,501.915l-1.077,0.698l0.693,1.083l1.083,-0.696l-0.699,-1.085ZM585.989,519.925l3.48,5.408l1.08,-0.696l-3.482,-5.41l-1.078,0.698ZM625.005,580.512l0.699,1.077l1.072,-0.696l-0.696,-1.08l-1.075,0.699ZM619.427,571.851l3.488,5.41l1.082,-0.693l-3.488,-5.413l-1.082,0.696ZM616.64,567.523l0.701,1.085l1.075,-0.699l-0.693,-1.082l-1.083,0.696ZM627.787,584.835l3.485,5.41l1.083,-0.693l-3.488,-5.413l-1.08,0.696ZM591.563,528.581l0.696,1.08l1.085,-0.701l-0.701,-1.075l-1.08,0.696ZM633.368,593.491l0.693,1.082l1.075,-0.698l-0.693,-1.08l-1.075,0.696ZM599.925,541.565l0.694,1.08l1.082,-0.701l-0.696,-1.083l-1.08,0.704ZM594.349,532.909l3.483,5.408l1.085,-0.701l-3.493,-5.405l-1.075,0.698ZM611.072,558.869l3.483,5.411l1.074,-0.699l-3.48,-5.408l-1.077,0.696ZM566.483,489.629l0.696,1.08l1.082,-0.693l-0.706,-1.085l-1.072,0.698ZM602.712,545.888l3.48,5.408l1.077,-0.699l-3.48,-5.408l-1.077,0.699Z" style="fill:#c6714b;fill-rule:nonzero;"/></g></g></g><g id="rectangle"><clipPath id="_clip2"><rect x="6.039" y="327.986" width="420.683" height="797.699"/></clipPath><g clip-path="url(#_clip2)"><g opacity="0.119995"><path id="rectanglecurve" d="M358.921,601.293c0,0.171 -0.013,0.371 -0.05,0.605c-0.211,0.328 -0.627,0.688 -1.238,0.971c-0.608,0.28 -1.344,0.416 -2.229,0.416c-1.085,0 -1.917,-0.309 -2.563,-0.912c-0.621,-0.6 -0.957,-1.504 -0.957,-2.773c0,-1.24 0.299,-2.158 0.875,-2.814c0.584,-0.653 1.373,-0.984 2.45,-0.989c0.654,0.005 1.208,0.133 1.678,0.389c0.469,0.259 0.842,0.608 1.133,1.064c0.304,0.467 0.525,0.998 0.68,1.595c0.144,0.595 0.221,1.219 0.221,1.864l0,0.584ZM359.431,601.293l0,-0.584c0,-0.685 -0.086,-1.352 -0.243,-1.995c-0.165,-0.637 -0.408,-1.221 -0.741,-1.736c-0.339,-0.525 -0.782,-0.938 -1.32,-1.237c-0.555,-0.299 -1.19,-0.445 -1.918,-0.445c-1.178,-0.006 -2.146,0.381 -2.826,1.157c-0.678,0.765 -1.006,1.829 -1.006,3.147c0,1.352 0.36,2.421 1.115,3.141c0.749,0.704 1.736,1.053 2.912,1.053c0.936,0 1.749,-0.154 2.44,-0.469c0.677,-0.312 1.192,-0.731 1.496,-1.264c0.069,-0.344 0.091,-0.563 0.091,-0.768M359.204,603.933l0.123,-0.875l-0.566,0.678c-0.474,0.565 -0.994,0.946 -1.546,1.162c-0.558,0.214 -1.32,0.336 -2.275,0.336c-0.741,0 -1.424,-0.125 -2.067,-0.362c-0.645,-0.24 -1.21,-0.584 -1.706,-1.048c-0.488,-0.454 -0.875,-1.014 -1.16,-1.688c-0.286,-0.664 -0.424,-1.435 -0.424,-2.315c0,-0.864 0.125,-1.661 0.373,-2.384c0.248,-0.731 0.608,-1.352 1.083,-1.885c0.477,-0.52 1.069,-0.939 1.781,-1.24c0.715,-0.307 1.563,-0.456 2.528,-0.456c1.835,0.005 3.219,0.584 4.219,1.752c1.002,1.154 1.528,2.81 1.528,4.994c0,2.07 -0.238,3.87 -0.702,5.4c-0.464,1.542 -1.104,2.83 -1.909,3.878c-0.819,1.048 -1.768,1.861 -2.875,2.44c-1.056,0.557 -2.181,0.922 -3.402,1.096l-0.368,-1.294c0.981,-0.181 1.885,-0.488 2.698,-0.922c0.891,-0.478 1.651,-1.078 2.291,-1.8c0.643,-0.734 1.155,-1.552 1.555,-2.47c0.397,-0.917 0.672,-1.917 0.821,-2.997M356.455,609.061c-0.606,0.677 -1.326,1.243 -2.15,1.693c-0.842,0.454 -1.781,0.752 -2.821,0.915l-0.285,0.043l0.578,2.05l0.056,0.208l0.214,-0.024c1.365,-0.165 2.629,-0.565 3.8,-1.178c1.173,-0.616 2.181,-1.48 3.029,-2.579c0.859,-1.104 1.525,-2.448 2,-4.043c0.483,-1.586 0.717,-3.437 0.717,-5.544c0,-2.261 -0.533,-4.048 -1.645,-5.333c-1.096,-1.28 -2.656,-1.92 -4.6,-1.915c-1.019,0 -1.936,0.158 -2.723,0.491c-0.773,0.328 -1.432,0.787 -1.957,1.368c-0.523,0.584 -0.92,1.272 -1.189,2.056c-0.27,0.789 -0.406,1.637 -0.406,2.552c0,0.933 0.152,1.776 0.464,2.512c0.312,0.731 0.736,1.36 1.28,1.859c0.547,0.509 1.176,0.89 1.88,1.154c0.702,0.254 1.454,0.387 2.243,0.387c0.997,0 1.808,-0.12 2.459,-0.36c0.41,-0.163 0.805,-0.403 1.17,-0.717c-0.146,0.736 -0.368,1.426 -0.65,2.069c-0.382,0.877 -0.867,1.651 -1.464,2.336M369.903,603.565l0.392,-0.208l-0.382,-0.232c-0.458,-0.269 -0.874,-0.555 -1.269,-0.853c-0.381,-0.294 -0.72,-0.622 -1.013,-0.998c-0.283,-0.362 -0.518,-0.773 -0.683,-1.24c-0.157,-0.434 -0.245,-0.968 -0.245,-1.573c0,-0.696 0.12,-1.32 0.352,-1.872c0.234,-0.557 0.576,-1.032 1.021,-1.432c0.448,-0.408 0.979,-0.725 1.611,-0.952c0.626,-0.227 1.336,-0.349 2.149,-0.349c0.747,0 1.419,0.106 2.027,0.322c0.602,0.211 1.101,0.502 1.506,0.864c0.411,0.358 0.723,0.8 0.95,1.307c0.226,0.493 0.341,1.048 0.341,1.669c0,1.016 -0.235,1.896 -0.688,2.659c-0.456,0.763 -1.224,1.531 -2.317,2.299l-0.323,0.229l0.344,0.195c0.477,0.272 0.928,0.573 1.341,0.896c0.424,0.322 0.79,0.68 1.099,1.066c0.309,0.384 0.552,0.816 0.728,1.304c0.173,0.478 0.261,1.024 0.261,1.646c0,0.768 -0.128,1.466 -0.378,2.088c-0.24,0.621 -0.598,1.154 -1.067,1.597c-0.475,0.445 -1.056,0.808 -1.752,1.064c-0.685,0.251 -1.475,0.387 -2.373,0.387c-0.872,0 -1.622,-0.131 -2.272,-0.376c-0.664,-0.246 -1.208,-0.587 -1.654,-1.003c-0.453,-0.419 -0.781,-0.907 -1.01,-1.48c-0.227,-0.568 -0.342,-1.189 -0.342,-1.859c0,-1.122 0.291,-2.074 0.87,-2.896c0.573,-0.816 1.498,-1.576 2.776,-2.269M366.713,605.546c-0.64,0.899 -0.957,1.974 -0.957,3.184c0,0.728 0.12,1.414 0.373,2.048c0.254,0.638 0.638,1.19 1.131,1.659c0.501,0.469 1.115,0.837 1.824,1.112c0.712,0.267 1.536,0.397 2.451,0.397c0.941,0 1.797,-0.138 2.552,-0.41c0.749,-0.28 1.394,-0.675 1.917,-1.171c0.531,-0.493 0.928,-1.091 1.2,-1.781c0.269,-0.686 0.4,-1.451 0.4,-2.272c0,-0.672 -0.088,-1.275 -0.285,-1.822c-0.2,-0.525 -0.462,-1.013 -0.803,-1.445c-0.339,-0.421 -0.733,-0.803 -1.184,-1.149c-0.339,-0.267 -0.701,-0.51 -1.069,-0.734c0.968,-0.72 1.68,-1.453 2.144,-2.224c0.509,-0.85 0.752,-1.829 0.752,-2.92c0,-0.677 -0.118,-1.312 -0.379,-1.877c-0.253,-0.573 -0.608,-1.061 -1.075,-1.48c-0.464,-0.405 -1.021,-0.728 -1.68,-0.957c-0.661,-0.235 -1.397,-0.35 -2.189,-0.35c-0.864,0 -1.635,0.128 -2.32,0.374c-0.685,0.25 -1.275,0.605 -1.781,1.048c-0.491,0.45 -0.88,0.989 -1.142,1.618c-0.266,0.622 -0.4,1.315 -0.4,2.067c0,0.656 0.094,1.237 0.28,1.752c0.192,0.509 0.443,0.965 0.76,1.373c0.32,0.406 0.691,0.766 1.099,1.086c0.299,0.226 0.613,0.448 0.949,0.661c-1.13,0.661 -1.984,1.392 -2.568,2.213M369.143,599.661c-0.179,-0.355 -0.278,-0.773 -0.278,-1.256c0,-0.333 0.067,-0.659 0.19,-0.968c0.13,-0.312 0.312,-0.587 0.562,-0.813c0.259,-0.238 0.563,-0.438 0.926,-0.592c0.354,-0.152 0.76,-0.235 1.234,-0.235c0.763,0.005 1.384,0.235 1.923,0.704c0.528,0.459 0.787,1.093 0.795,1.989c0,0.715 -0.187,1.352 -0.558,1.947c-0.354,0.56 -0.912,1.155 -1.658,1.749c-0.43,-0.218 -0.835,-0.442 -1.23,-0.685c-0.429,-0.251 -0.81,-0.539 -1.141,-0.843c-0.32,-0.285 -0.571,-0.624 -0.765,-0.997M372.191,602.709l0.141,0.069l0.125,-0.096c0.851,-0.661 1.483,-1.314 1.907,-1.973c0.424,-0.675 0.643,-1.413 0.643,-2.219c0,-0.992 -0.323,-1.81 -0.968,-2.368c-0.622,-0.546 -1.39,-0.826 -2.262,-0.826c-0.53,0 -1.005,0.09 -1.432,0.272c-0.413,0.173 -0.77,0.408 -1.072,0.68c-0.306,0.285 -0.53,0.616 -0.682,0.994c-0.15,0.371 -0.235,0.76 -0.235,1.163c0,0.552 0.12,1.053 0.341,1.493c0.222,0.416 0.507,0.803 0.87,1.134c0.36,0.333 0.76,0.632 1.224,0.901c0.442,0.28 0.917,0.533 1.4,0.776M369.111,606.362c0.429,-0.696 1.157,-1.357 2.202,-1.952c0.454,0.238 0.886,0.486 1.302,0.736c0.45,0.267 0.85,0.566 1.192,0.894c0.346,0.322 0.618,0.685 0.832,1.072c0.194,0.376 0.298,0.818 0.298,1.338c0,0.528 -0.096,0.974 -0.264,1.352c-0.186,0.387 -0.413,0.694 -0.709,0.942c-0.304,0.248 -0.651,0.429 -1.051,0.562c-0.392,0.136 -0.81,0.198 -1.248,0.198c-0.546,0 -1.016,-0.083 -1.416,-0.248c-0.405,-0.166 -0.741,-0.382 -1.016,-0.654c-0.266,-0.266 -0.461,-0.581 -0.602,-0.965c-0.139,-0.371 -0.211,-0.776 -0.211,-1.187c0,-0.642 0.224,-1.338 0.691,-2.088M368.876,610.965c0.328,0.323 0.728,0.576 1.192,0.76c0.461,0.192 1,0.28 1.597,0.28c0.488,0 0.963,-0.069 1.408,-0.216c0.456,-0.152 0.856,-0.368 1.203,-0.659c0.365,-0.29 0.645,-0.666 0.853,-1.109c0.216,-0.459 0.32,-0.987 0.32,-1.571c0,-0.589 -0.12,-1.122 -0.368,-1.576c-0.24,-0.442 -0.541,-0.842 -0.922,-1.2c-0.374,-0.357 -0.808,-0.682 -1.283,-0.96c-0.461,-0.28 -0.952,-0.56 -1.459,-0.818l-0.12,-0.059l-0.114,0.067c-1.155,0.64 -1.995,1.368 -2.507,2.194c-0.501,0.806 -0.765,1.592 -0.765,2.352c0,0.472 0.085,0.931 0.245,1.366c0.155,0.44 0.408,0.826 0.72,1.149M400.444,820.936c-2,-1.942 -4.016,-3.094 -6.064,-3.379l0,-32.989l6.064,36.368ZM392.951,411.642l-6.051,-36.314c1.987,2.144 4.005,3.2 6.051,3.349l0,32.965ZM392.951,817.493c-2.046,0.155 -4.064,1.213 -6.056,3.357l6.056,-36.309l0,32.952ZM394.38,378.616c2.048,-0.283 4.064,-1.438 6.064,-3.376l-6.064,36.37l0,-32.994ZM426.721,416.629l0,-1.437l-32.341,0l0,-0.472l6.821,-40.979l-0.557,0.584c-2.12,2.203 -4.208,3.467 -6.264,3.776l0,-26.763l-1.429,0l0,26.83c-2.059,-0.163 -4.136,-1.328 -6.254,-3.838l-0.597,-0.698l0.149,0.909l6.702,40.168l0,0.483l-104.158,0l0,1.437l104.158,0l0,360.325l-102.928,0l0,1.43l102.928,0l0,3.082l-6.854,41.08l0.6,-0.706c2.118,-2.507 4.192,-3.67 6.254,-3.838l0,19.534l1.429,0l0,-19.467c2.056,0.312 4.144,1.568 6.264,3.784l0.557,0.592l-6.821,-40.984l0,-3.077l25.013,0l0,-1.43l-25.013,0l0,-360.325l32.341,0ZM87.671,992.752l-1.43,0l0,1.437l1.43,0l0,-1.437ZM99.129,992.752l-7.154,0l0,1.437l7.154,0l0,-1.437ZM103.425,994.189l1.43,0l0,-1.437l-1.43,0l0,1.437ZM189.351,994.189l1.437,0l0,-1.437l-1.437,0l0,1.437ZM172.169,994.189l1.432,0l0,-1.437l-1.432,0l0,1.437ZM177.903,994.189l7.154,0l0,-1.437l-7.154,0l0,1.437ZM150.692,992.752l-7.165,0l0,1.437l7.165,0l0,-1.437ZM139.231,992.752l-1.43,0l0,1.437l1.43,0l0,-1.437ZM156.417,992.752l-1.426,0l0,1.437l1.426,0l0,-1.437ZM122.044,992.752l-1.429,0l0,1.437l1.429,0l0,-1.437ZM116.316,992.752l-7.16,0l0,1.437l7.16,0l0,-1.437ZM133.503,992.752l-7.166,0l0,1.437l7.166,0l0,-1.437ZM263.828,994.189l7.157,0l0,-1.437l-7.157,0l0,1.437ZM195.084,994.189l7.16,0l0,-1.437l-7.16,0l0,1.437ZM275.284,994.189l1.432,0l0,-1.437l-1.432,0l0,1.437ZM298.196,994.189l7.157,0l0,-1.437l-7.157,0l0,1.437ZM292.473,994.189l1.427,0l0,-1.437l-1.427,0l0,1.437ZM281.009,994.189l7.168,0l0,-1.437l-7.168,0l0,1.437ZM206.537,994.189l1.435,0l0,-1.437l-1.435,0l0,1.437ZM212.263,994.189l7.165,0l0,-1.437l-7.165,0l0,1.437ZM223.727,994.189l1.429,0l0,-1.437l-1.429,0l0,1.437ZM246.639,994.189l7.165,0l0,-1.437l-7.165,0l0,1.437ZM258.097,994.189l1.435,0l0,-1.437l-1.435,0l0,1.437ZM160.713,994.189l7.166,0l0,-1.437l-7.166,0l0,1.437ZM23.228,994.189l7.16,0l0,-1.437l-7.16,0l0,1.437ZM17.5,994.189l1.429,0l0,-1.437l-1.429,0l0,1.437ZM57.601,994.189l7.158,0l0,-1.437l-7.158,0l0,1.437ZM6.039,994.189l7.165,0l0,-1.437l-7.165,0l0,1.437ZM34.681,994.189l1.435,0l0,-1.437l-1.435,0l0,1.437ZM40.412,994.189l7.157,0l0,-1.437l-7.157,0l0,1.437ZM51.865,994.189l1.438,0l0,-1.437l-1.438,0l0,1.437ZM158.033,916.248l0,-3.95l-1.429,0l0,7.158l1.429,0l0,-1.774c41.286,0.459 74.619,33.784 75.07,75.07l-3.651,0l0,1.437l3.651,0c-0.451,41.283 -33.784,74.608 -75.07,75.067l0,-2.291l-1.429,0l0,2.291c-41.283,-0.456 -74.616,-33.782 -75.069,-75.067l0.408,0l0,-1.437l-0.411,0c0.184,-19.843 8.141,-38.848 22.184,-52.886l-1.013,-1.008l0,-0.008c-14.31,14.304 -22.419,33.683 -22.608,53.902l-5.318,0l0,1.437l5.318,0c0.386,42.083 34.429,76.117 76.509,76.501l0,3.44l1.429,0l0,-3.44c42.083,-0.386 76.118,-34.424 76.504,-76.501l2.08,0l0,-1.437l-2.08,0c-0.386,-42.078 -34.421,-76.12 -76.504,-76.504M241.233,994.189c-0.477,46.008 -37.813,83.125 -83.914,83.216c-46.347,-0.091 -83.851,-37.592 -83.931,-83.936c0.08,-46.349 37.584,-83.843 83.931,-83.931c46.101,0.088 83.44,37.2 83.914,83.214l-0.32,0l0,1.437l0.32,0ZM157.319,905.96c-48.088,0 -87.107,38.802 -87.496,86.792l-0.768,0l0,1.437l0.768,0c0.389,47.992 39.408,86.795 87.496,86.795c48.322,0 87.514,-39.19 87.514,-87.515c0,-48.323 -39.192,-87.509 -87.514,-87.509M156.604,598.661l1.429,0l0,-1.437l-1.429,0l0,1.437ZM156.604,627.298l1.429,0l0,-7.16l-1.429,0l0,7.16ZM156.604,678.858l1.429,0l0,-7.162l-1.429,0l0,7.162ZM156.604,615.845l1.429,0l0,-1.435l-1.429,0l0,1.435ZM156.604,633.032l1.429,0l0,-1.432l-1.429,0l0,1.432ZM156.604,667.405l1.429,0l0,-1.435l-1.429,0l0,1.435ZM156.604,644.488l1.429,0l0,-7.158l-1.429,0l0,7.158ZM156.604,661.674l1.429,0l0,-7.16l-1.429,0l0,7.16ZM158.033,390.994l-1.429,0l0,1.438l1.429,0l0,-1.438ZM156.604,610.114l1.429,0l0,-7.16l-1.429,0l0,7.16ZM156.604,524.189l1.429,0l0,-7.16l-1.429,0l0,7.16ZM156.604,529.92l1.429,0l0,-1.435l-1.429,0l0,1.435ZM156.604,512.73l1.429,0l0,-1.432l-1.429,0l0,1.432ZM156.604,541.376l1.429,0l0,-7.16l-1.429,0l0,7.16ZM156.604,507l1.429,0l0,-7.158l-1.429,0l0,7.158ZM156.604,547.104l1.429,0l0,-1.435l-1.429,0l0,1.435ZM156.604,575.746l1.429,0l0,-7.165l-1.429,0l0,7.165ZM156.604,581.472l1.429,0l0,-1.427l-1.429,0l0,1.427ZM156.604,592.928l1.429,0l0,-7.16l-1.429,0l0,7.16ZM156.604,564.285l1.429,0l0,-1.429l-1.429,0l0,1.429ZM156.604,558.56l1.429,0l0,-7.163l-1.429,0l0,7.163ZM156.604,650.218l1.429,0l0,-1.434l-1.429,0l0,1.434ZM156.604,764.789l1.429,0l0,-7.157l-1.429,0l0,7.157ZM156.604,770.514l1.429,0l0,-1.429l-1.429,0l0,1.429ZM156.604,495.544l1.429,0l0,-1.432l-1.429,0l0,1.432ZM156.604,753.33l1.429,0l0,-1.434l-1.429,0l0,1.434ZM158.033,362.354l-1.429,0l0,7.163l1.429,0l0,-7.163ZM158.033,396.728l-1.429,0l0,7.16l1.429,0l0,-7.16ZM156.604,747.6l1.429,0l0,-7.16l-1.429,0l0,7.16ZM158.033,408.184l-1.429,0l0,1.434l1.429,0l0,-1.434ZM158.033,373.816l-1.429,0l0,1.429l1.429,0l0,-1.429ZM158.033,379.541l-1.429,0l0,7.16l1.429,0l0,-7.16ZM158.033,345.168l-1.429,0l0,7.165l1.429,0l0,-7.165ZM158.033,339.442l-1.429,0l0,1.427l1.429,0l0,-1.427ZM156.604,696.048l1.429,0l0,-7.163l-1.429,0l0,7.163ZM156.604,684.586l1.429,0l0,-1.426l-1.429,0l0,1.426ZM158.033,327.986l-1.429,0l0,7.16l1.429,0l0,-7.16ZM156.604,736.146l1.429,0l0,-1.434l-1.429,0l0,1.434ZM156.604,718.96l1.429,0l0,-1.438l-1.429,0l0,1.438ZM156.604,730.416l1.429,0l0,-7.158l-1.429,0l0,7.158ZM156.604,713.229l1.429,0l0,-7.157l-1.429,0l0,7.157ZM158.033,356.629l-1.429,0l0,1.429l1.429,0l0,-1.429ZM156.604,701.773l1.429,0l0,-1.435l-1.429,0l0,1.435ZM158.033,1009.68l-1.429,0l0,1.437l1.429,0l0,-1.437ZM158.033,923.754l-1.429,0l0,1.432l1.429,0l0,-1.432ZM158.033,929.485l-1.429,0l0,7.157l1.429,0l0,-7.157ZM158.033,940.941l-1.429,0l0,1.435l1.429,0l0,-1.435ZM158.033,981.037l-1.429,0l0,7.157l1.429,0l0,-7.157ZM156.604,1091.31l1.429,0l0,-7.157l-1.429,0l0,7.157ZM156.604,1125.68l1.429,0l0,-7.163l-1.429,0l0,7.163ZM158.033,1015.41l-1.429,0l0,7.155l1.429,0l0,-7.155ZM156.604,1114.23l1.429,0l0,-1.435l-1.429,0l0,1.435ZM156.604,1108.5l1.429,0l0,-7.16l-1.429,0l0,7.16ZM158.033,998.224l-1.429,0l0,7.16l1.429,0l0,-7.16ZM158.033,1044.05l-1.429,0l0,1.435l1.429,0l0,-1.435ZM158.033,1026.87l-1.429,0l0,1.435l1.429,0l0,-1.435ZM156.604,799.154l1.429,0l0,-7.157l-1.429,0l0,7.157ZM158.033,1032.6l-1.429,0l0,7.16l1.429,0l0,-7.16ZM158.033,1061.24l-1.429,0l0,1.429l1.429,0l0,-1.429ZM158.033,1049.78l-1.429,0l0,7.157l1.429,0l0,-7.157ZM158.033,946.664l-1.429,0l0,7.168l1.429,0l0,-7.168ZM156.604,489.813l1.429,0l0,-7.16l-1.429,0l0,7.16ZM158.033,958.128l-1.429,0l0,1.426l1.429,0l0,-1.426ZM158.033,963.85l-1.429,0l0,7.168l1.429,0l0,-7.168ZM158.033,975.312l-1.429,0l0,1.429l1.429,0l0,-1.429ZM156.604,1097.04l1.429,0l0,-1.432l-1.429,0l0,1.432ZM158.033,992.496l-1.429,0l0,1.434l1.429,0l0,-1.434ZM156.604,426.802l1.429,0l0,-1.432l-1.429,0l0,1.432ZM156.604,902.269l1.429,0l0,-7.157l-1.429,0l0,7.157ZM156.604,890.816l1.429,0l0,-1.435l-1.429,0l0,1.435ZM156.604,438.258l1.429,0l0,-7.157l-1.429,0l0,7.157ZM156.604,461.173l1.429,0l0,-1.429l-1.429,0l0,1.429ZM156.604,472.634l1.429,0l0,-7.168l-1.429,0l0,7.168ZM156.604,443.984l1.429,0l0,-1.427l-1.429,0l0,1.427ZM156.604,478.354l1.429,0l0,-1.424l-1.429,0l0,1.424ZM156.604,455.445l1.429,0l0,-7.165l-1.429,0l0,7.165ZM156.604,885.088l1.429,0l0,-7.163l-1.429,0l0,7.163ZM156.604,816.341l1.429,0l0,-7.157l-1.429,0l0,7.157ZM158.033,786.269l-1.429,0l0,1.429l1.429,0l0,-1.429ZM156.604,850.714l1.429,0l0,-7.16l-1.429,0l0,7.16ZM156.604,839.258l1.429,0l0,-1.434l-1.429,0l0,1.434ZM156.604,833.53l1.429,0l0,-7.16l-1.429,0l0,7.16ZM156.604,822.074l1.429,0l0,-1.434l-1.429,0l0,1.434ZM156.604,856.448l1.429,0l0,-1.435l-1.429,0l0,1.435ZM156.604,873.626l1.429,0l0,-1.426l-1.429,0l0,1.426ZM156.604,804.885l1.429,0l0,-1.432l-1.429,0l0,1.432ZM156.604,867.901l1.429,0l0,-7.163l-1.429,0l0,7.163ZM241.479,775.658l-2.195,0l0,-353.44l2.195,2.606l0,350.834ZM235.711,775.653l-33.635,0l0,-348.52l32.992,0l0,-3.584l-32.992,0l0,-3.437l33.635,0l0,355.541ZM198.487,775.653l-8.856,0l0,-355.544l8.856,0l0,355.544ZM188.199,775.653l-30.166,0l0,-0.843l-1.429,0l0,0.843l-30.171,0l0.008,-355.541l30.163,0l0,0.96l1.429,0l0,-0.96l30.166,0l0,355.541ZM125.004,775.653l-8.864,0l0,-348.525l7.349,0l0,-3.574l-7.349,0l0,-3.442l8.864,0l0,355.541ZM112.561,423.554l-33.634,0l0,-3.442l33.634,0l0,3.442ZM112.561,775.653l-33.634,0l0,-348.525l33.634,0l0,348.525ZM75.351,423.554l-0.566,0l0.566,-0.493l0,0.493ZM75.351,775.658l-2.195,0l0,-348.528l2.195,0l0,348.528ZM239.284,416.664l0,-0.134l-38.987,0c-0.002,0 -0.008,-0.002 -0.013,-0.002l-42.251,0l0,-2.614l-1.429,0l0,2.614l-42.243,0c-0.008,0 -0.01,0.002 -0.016,0.002l-38.994,0l0,1.779l-5.768,5.04l0,355.885l5.768,0l0,0.006l81.253,0l0,2.733l1.429,0l0,-2.733l81.251,0l0,-0.006l5.773,0l0,-355.728l-0.421,-0.496l-5.352,-6.346Z" style="fill:#c6714b;fill-rule:nonzero;"/></g></g></g><g id="circlemiddle"><clipPath id="_clip3"><rect x="143.47" y="685.621" width="249.72" height="230.557"/></clipPath><g clip-path="url(#_clip3)"><g opacity="0.119995"><path id="circlemiddlecurve" d="M270.281,704.695l-1.192,0l0,1.19l1.192,0l0,-1.19ZM339.694,806.471c-0.397,38.387 -31.549,69.355 -70.01,69.427c-38.67,-0.072 -69.958,-31.363 -70.024,-70.027c0.066,-38.669 31.354,-69.952 70.024,-70.024c38.461,0.072 69.616,31.035 70.01,69.427l-0.266,0l0,1.197l0.266,0ZM269.684,732.861c-40.12,0 -72.675,32.373 -73,72.413l-0.643,0l0,1.197l0.643,0c0.325,40.04 32.88,72.414 73,72.414c40.317,0 73.013,-32.696 73.013,-73.014c0,-40.317 -32.696,-73.01 -73.013,-73.01M270.281,695.133l-1.192,0l0,5.976l1.192,0l0,-5.976ZM270.281,709.471l-1.192,0l0,5.976l1.192,0l0,-5.976ZM270.281,723.807l-1.192,0l0,5.974l1.192,0l0,-5.974ZM270.281,719.029l-1.192,0l0,1.197l1.192,0l0,-1.197ZM325.089,806.471l1.192,0l0,-1.197l-1.192,0l0,1.197ZM272.516,806.471l5.976,0l0,-1.197l-5.976,0l0,1.197ZM211.574,805.274l-1.194,0l0,1.197l1.194,0l0,-1.197ZM270.281,690.354l-1.192,0l0,1.197l1.192,0l0,-1.197ZM286.857,806.471l5.968,0l0,-1.197l-5.968,0l0,1.197ZM296.409,806.471l1.2,0l0,-1.197l-1.2,0l0,1.197ZM315.524,806.471l5.978,0l0,-1.197l-5.978,0l0,1.197ZM310.748,806.471l1.197,0l0,-1.197l-1.197,0l0,1.197ZM301.19,806.471l5.974,0l0,-1.197l-5.974,0l0,1.197ZM282.073,806.471l1.195,0l0,-1.197l-1.195,0l0,1.197ZM368.102,806.471l1.195,0l0,-1.197l-1.195,0l0,1.197ZM372.878,806.471l5.982,0l0,-1.197l-5.982,0l0,1.197ZM358.545,806.471l5.973,0l0,-1.197l-5.973,0l0,1.197ZM270.281,685.621l-1.192,0l0,1.149l1.192,0l0,-1.149ZM353.764,806.471l1.194,0l0,-1.197l-1.194,0l0,1.197ZM382.444,806.471l1.189,0l0,-1.197l-1.189,0l0,1.197ZM387.22,806.471l5.97,0l0,-1.197l-5.97,0l0,1.197ZM153.03,806.471l1.192,0l0,-1.197l-1.192,0l0,1.197ZM172.148,806.471l5.973,0l0,-1.197l-5.973,0l0,1.197ZM167.366,806.471l1.198,0l0,-1.197l-1.198,0l0,1.197ZM344.204,806.471l5.978,0l0,-1.197l-5.978,0l0,1.197ZM181.702,806.471l1.2,0l0,-1.197l-1.2,0l0,1.197ZM143.47,806.471l5.976,0l0,-1.197l-5.976,0l0,1.197ZM157.809,806.471l5.973,0l0,-1.197l-5.973,0l0,1.197ZM186.486,806.471l5.974,0l0,-1.197l-5.974,0l0,1.197ZM270.281,819.394l-1.192,0l0,1.2l1.192,0l0,-1.2ZM270.281,776.383l-1.192,0l0,1.19l1.192,0l0,-1.19ZM270.281,762.045l-1.192,0l0,1.194l1.192,0l0,-1.194ZM270.281,809.839l-1.192,0l0,5.974l1.192,0l0,-5.974ZM270.281,766.821l-1.192,0l0,5.978l1.192,0l0,-5.978ZM270.281,805.058l-1.192,0l0,1.195l1.192,0l0,-1.195ZM270.281,795.501l-1.192,0l0,5.973l1.192,0l0,-5.973ZM270.281,790.722l-1.192,0l0,1.192l1.192,0l0,-1.192ZM270.281,781.159l-1.192,0l0,5.982l1.192,0l0,-5.982ZM269.089,901.839l1.192,0l0,-5.973l-1.192,0l0,5.973ZM269.089,916.178l1.192,0l0,-5.973l-1.192,0l0,5.973ZM269.089,906.621l1.192,0l0,-1.198l-1.192,0l0,1.198ZM269.089,892.282l1.192,0l0,-1.197l-1.192,0l0,1.197ZM270.281,747.706l-1.192,0l0,1.195l1.192,0l0,-1.195ZM270.281,752.487l-1.192,0l0,5.974l1.192,0l0,-5.974ZM269.089,887.498l1.192,0l0,-5.971l-1.192,0l0,5.971ZM221.137,805.274l-5.971,0l0,1.197l5.971,0l0,-1.197ZM254.593,805.274l-1.192,0l0,1.197l1.192,0l0,-1.197ZM264.153,805.274l-5.976,0l0,1.197l5.976,0l0,-1.197ZM235.473,805.274l-5.973,0l0,1.197l5.973,0l0,-1.197ZM249.812,805.274l-5.976,0l0,1.197l5.976,0l0,-1.197ZM270.281,741.445l0,-3.296l-1.192,0l0,5.97l1.192,0l0,-1.477c34.443,0.381 62.251,28.187 62.629,62.632l-3.045,0l0,1.197l3.045,0c-0.378,34.443 -28.186,62.246 -62.629,62.63l0,-1.912l-1.192,0l0,1.912c-34.445,-0.382 -62.256,-28.184 -62.635,-62.63l0.342,0l0,-1.197l-0.344,0c0.157,-16.557 6.794,-32.416 18.509,-44.123l-0.845,-0.845l0,-0.003c-11.939,11.934 -18.704,28.099 -18.862,44.971l-4.434,0l0,1.197l4.434,0c0.323,35.11 28.726,63.507 63.835,63.824l0,2.872l1.192,0l0,-2.872c35.107,-0.32 63.504,-28.717 63.827,-63.824l1.736,0l0,-1.197l-1.736,0c-0.323,-35.107 -28.72,-63.509 -63.827,-63.829M240.252,805.274l-1.192,0l0,1.197l1.192,0l0,-1.197ZM268.929,805.274l-1.189,0l0,1.197l1.189,0l0,-1.197ZM224.718,806.471l1.192,0l0,-1.197l-1.192,0l0,1.197ZM270.281,824.178l-1.192,0l0,5.971l1.192,0l0,-5.971ZM270.281,838.514l-1.192,0l0,5.973l1.192,0l0,-5.973ZM270.281,833.735l-1.192,0l0,1.198l1.192,0l0,-1.198ZM270.281,848.074l-1.192,0l0,1.197l1.192,0l0,-1.197ZM270.281,862.413l-1.192,0l0,1.192l1.192,0l0,-1.192ZM270.281,852.855l-1.192,0l0,5.974l1.192,0l0,-5.974Z" style="fill:#c6714b;fill-rule:nonzero;"/></g></g></g><g id="toplines"><clipPath id="_clip4"><rect x="525.026" y="0" width="85.981" height="236.12"/></clipPath><g clip-path="url(#_clip4)"><g opacity="0.199997"><path id="toplinescurve" d="M567.487,164.675c0,-2.323 0.381,-4.051 1.112,-5.19c0.736,-1.138 1.765,-1.685 3.173,-1.69c1.531,0.005 2.59,0.552 3.27,1.658c0.68,1.118 1.037,2.862 1.034,5.222c0.003,2.317 -0.381,4.048 -1.112,5.184c-0.736,1.136 -1.773,1.688 -3.192,1.69c-1.504,-0.002 -2.544,-0.578 -3.24,-1.76c-0.693,-1.194 -1.045,-2.898 -1.045,-5.114M571.743,171.901l0.029,0c1.518,0.006 2.704,-0.621 3.494,-1.85c0.789,-1.23 1.162,-3.019 1.168,-5.376c-0.006,-2.4 -0.358,-4.198 -1.091,-5.403c-0.741,-1.219 -1.957,-1.837 -3.571,-1.832c-1.504,-0.005 -2.688,0.627 -3.469,1.856c-0.795,1.227 -1.171,3.021 -1.171,5.379c0,2.25 0.36,4.013 1.091,5.29c0.739,1.278 1.939,1.936 3.52,1.936M569.106,164.675c-0.006,-1.936 0.229,-3.35 0.669,-4.232c0.451,-0.872 1.08,-1.278 1.997,-1.286c0.502,0 0.907,0.131 1.24,0.379c0.334,0.251 0.606,0.613 0.83,1.099c0.216,0.488 0.378,1.074 0.472,1.762c0.098,0.694 0.146,1.448 0.146,2.278c0,1.946 -0.232,3.362 -0.674,4.234c-0.443,0.87 -1.083,1.272 -2.014,1.275c-0.464,0 -0.842,-0.123 -1.168,-0.379c-0.33,-0.258 -0.613,-0.624 -0.837,-1.104c-0.224,-0.482 -0.392,-1.061 -0.499,-1.744c-0.106,-0.685 -0.162,-1.445 -0.162,-2.282M570.386,170.083c0.386,0.309 0.858,0.461 1.386,0.458l0.024,0c1.032,0 1.832,-0.517 2.307,-1.472c0.483,-0.962 0.712,-2.418 0.712,-4.394c0,-0.843 -0.051,-1.614 -0.152,-2.328c-0.093,-0.71 -0.259,-1.331 -0.496,-1.859c-0.24,-0.528 -0.552,-0.944 -0.944,-1.24c-0.397,-0.293 -0.888,-0.443 -1.451,-0.443c-1.034,-0.005 -1.834,0.51 -2.312,1.483c-0.482,0.971 -0.709,2.421 -0.712,4.387c0,0.848 0.056,1.629 0.171,2.336c0.112,0.709 0.285,1.317 0.528,1.837c0.243,0.523 0.555,0.936 0.939,1.235M563.916,170.232l0,1.088l-6.565,0l0,-1.088l2.725,0l0,-9.608l0.195,-1.125l0.112,-0.643l-1.2,1.416l-1.971,1.405l-0.533,-0.714l4.152,-3.206l0.413,0.03l0,12.445l2.672,0ZM560.724,157.44l-4.538,3.461l0.845,1.131l0.104,0.136l2.285,-1.635l0.395,-0.466l-0.085,0.525l-0.003,9.285l-2.731,0l0,1.795l7.275,0l0,-1.795l-2.672,0l0,-12.437l-0.875,0ZM573.708,36.963l-7.4,0l0,-0.318c0.278,-0.29 0.606,-0.642 0.984,-1.056c0.408,-0.45 0.83,-0.944 1.264,-1.482c0.435,-0.542 0.872,-1.12 1.296,-1.726c0.427,-0.608 0.811,-1.229 1.16,-1.856c0.35,-0.632 0.627,-1.258 0.838,-1.885c0.216,-0.621 0.322,-1.221 0.322,-1.789c0.003,-0.667 -0.192,-1.251 -0.586,-1.704c-0.403,-0.467 -1.022,-0.696 -1.79,-0.696c-0.52,0 -1.026,0.106 -1.512,0.317c-0.41,0.176 -0.77,0.373 -1.085,0.595l-0.469,-0.808c0.41,-0.331 0.89,-0.595 1.448,-0.79c0.6,-0.213 1.25,-0.32 1.949,-0.32c0.541,0 1.011,0.075 1.411,0.232c0.416,0.152 0.754,0.371 1.034,0.648c0.28,0.283 0.494,0.614 0.643,0.998c0.149,0.389 0.224,0.816 0.224,1.277c0,0.661 -0.128,1.352 -0.373,2.053c-0.248,0.712 -0.576,1.427 -0.979,2.147c-0.408,0.723 -0.859,1.427 -1.363,2.117c-0.509,0.691 -1.01,1.35 -1.517,1.968l-0.931,0.819l-0.066,0.053l0,0.368l1.461,-0.253l4.037,0.008l0,1.083ZM574.063,35.525l-4.424,0l-0.773,0.128l0.597,-0.522c0.531,-0.646 1.035,-1.307 1.547,-2.006c0.506,-0.704 0.973,-1.418 1.386,-2.154c0.414,-0.731 0.747,-1.467 1.006,-2.2c0.261,-0.739 0.392,-1.464 0.392,-2.171c0,-0.501 -0.083,-0.968 -0.246,-1.4c-0.168,-0.432 -0.408,-0.808 -0.722,-1.125c-0.318,-0.318 -0.71,-0.558 -1.155,-0.734c-0.453,-0.17 -0.971,-0.253 -1.544,-0.253c-0.733,0 -1.424,0.115 -2.067,0.341c-0.645,0.23 -1.202,0.544 -1.677,0.95l-0.109,0.096l0.714,1.237l0.099,0.171l0.168,-0.12c0.323,-0.246 0.707,-0.47 1.168,-0.667c0.445,-0.192 0.904,-0.285 1.373,-0.285c0.712,0 1.195,0.194 1.52,0.568c0.331,0.389 0.504,0.872 0.504,1.472c0,0.522 -0.098,1.082 -0.304,1.68c-0.205,0.597 -0.477,1.205 -0.816,1.818c-0.341,0.619 -0.717,1.227 -1.138,1.827c-0.419,0.6 -0.851,1.173 -1.278,1.707c-0.434,0.538 -0.85,1.024 -1.25,1.464c-0.406,0.44 -0.747,0.808 -1.03,1.109l-0.048,0.048l0,0.816l8.107,0l0,-1.795ZM578.559,35.752c0.269,0.109 0.576,0.205 0.907,0.288c0.426,0.099 0.901,0.147 1.418,0.147c0.459,0 0.891,-0.067 1.288,-0.2c0.395,-0.139 0.744,-0.347 1.032,-0.614c0.296,-0.269 0.526,-0.597 0.686,-0.965c0.165,-0.376 0.25,-0.784 0.25,-1.219c0,-0.944 -0.285,-1.682 -0.874,-2.168c-0.579,-0.474 -1.368,-0.704 -2.339,-0.704l-1.267,0l0,-0.338l2.774,-4.28l0.869,-0.822l0.419,-0.394l-1.832,0.282l-3.654,0l0,-1.088l6.603,0l0,0.336l-3.072,4.611l-0.643,0.528l-0.066,0.053l0,0.339l0.877,-0.179c0.459,0.019 0.917,0.102 1.336,0.275c0.421,0.165 0.784,0.403 1.093,0.717c0.304,0.315 0.547,0.691 0.72,1.131c0.174,0.44 0.259,0.933 0.259,1.501c0,0.683 -0.12,1.278 -0.352,1.798c-0.237,0.528 -0.56,0.962 -0.957,1.314c-0.406,0.355 -0.883,0.63 -1.435,0.814c-0.555,0.189 -1.133,0.285 -1.755,0.285c-0.573,0 -1.09,-0.045 -1.549,-0.136c-0.387,-0.077 -0.733,-0.168 -1.04,-0.28l0.304,-1.032ZM579.231,37.413c0.483,0.094 1.021,0.139 1.613,0.139c0.656,0 1.278,-0.099 1.867,-0.299c0.592,-0.2 1.117,-0.498 1.555,-0.888c0.44,-0.384 0.792,-0.864 1.045,-1.432c0.261,-0.573 0.387,-1.216 0.387,-1.944c0,-0.602 -0.088,-1.146 -0.28,-1.632c-0.195,-0.482 -0.459,-0.898 -0.803,-1.248c-0.341,-0.349 -0.747,-0.618 -1.208,-0.802c-0.464,-0.184 -0.968,-0.28 -1.504,-0.294l-0.075,0.014l0.206,-0.168l3.157,-4.739l0,-0.797l-7.312,0l0,1.794l4.035,0l0.741,-0.112l-0.491,0.472l-2.861,4.398l0,0.797l1.624,0c0.915,0 1.613,0.216 2.115,0.624c0.488,0.403 0.741,1.016 0.744,1.893c0,0.39 -0.075,0.747 -0.216,1.072c-0.15,0.331 -0.352,0.616 -0.6,0.851c-0.259,0.235 -0.56,0.413 -0.915,0.539c-0.36,0.122 -0.747,0.184 -1.171,0.184c-0.493,0 -0.944,-0.048 -1.33,-0.139c-0.398,-0.099 -0.744,-0.216 -1.032,-0.349l-0.192,-0.091l-0.464,1.581l-0.046,0.15l0.152,0.066c0.363,0.15 0.784,0.267 1.259,0.36M600.268,203.24c-1.074,-1.029 -2.165,-1.653 -3.272,-1.835l0,-17.797l3.272,19.632ZM595.991,75.669l-3.259,-19.536c1.07,1.118 2.155,1.688 3.259,1.8l0,17.736ZM595.991,201.371c-1.104,0.112 -2.192,0.688 -3.259,1.808l3.259,-19.558l0,17.75ZM549.007,203.237c-1.072,-1.024 -2.163,-1.648 -3.264,-1.829l0,-17.741l3.264,19.57ZM544.735,147.603l-3.259,-19.55c1.07,1.126 2.158,1.694 3.259,1.806l0,17.744ZM544.735,201.373c-1.104,0.11 -2.192,0.686 -3.261,1.808l3.261,-19.56l0,17.752ZM545.743,129.824c1.101,-0.181 2.192,-0.805 3.267,-1.829l-3.267,19.584l0,-17.755ZM596.996,57.899c1.104,-0.179 2.19,-0.803 3.267,-1.832l-3.267,19.632l0,-17.8ZM595.946,77.555l0.045,0.285l0,100.592l-50.248,0l0,-28.672l0.184,-1.107l8.096,0l0,-1.005l-7.928,0l3.448,-20.699l-0.395,0.406c-1.154,1.205 -2.29,1.904 -3.405,2.106l0,-16.17l-1.008,0l0,16.208c-1.117,-0.123 -2.243,-0.774 -3.397,-2.134l-0.419,-0.493l0.104,0.635l3.355,20.141l-19.352,0l0,1.005l19.52,0l0.189,1.11l0,28.669l-17.064,0l0,1.005l17.064,0l0,2.022l-3.816,22.896l0.416,-0.486c1.155,-1.368 2.285,-2.01 3.4,-2.138l0,10.968l1.008,0l0,-10.931c1.115,0.205 2.245,0.904 3.403,2.112l0.397,0.413l-3.8,-22.813l0,-2.043l50.248,0l0,2.024l-3.816,22.904l0.416,-0.496c1.155,-1.365 2.285,-2.01 3.4,-2.138l0,10.968l1.005,0l0,-10.931c1.115,0.2 2.251,0.901 3.414,2.109l0.392,0.416l-3.806,-22.861l0,-1.995l14.011,0l0,-1.005l-14.011,0l0,-100.563l0.048,-0.314l13.864,0l0,-1.008l-13.693,0l3.587,-21.523l-0.398,0.408c-1.157,1.203 -2.296,1.904 -3.408,2.104l0,-57.536l-1.005,0l0,57.573c-1.117,-0.122 -2.245,-0.77 -3.4,-2.138l-0.413,-0.483l0.101,0.627l3.496,20.968M526.823,236.12l0,-1.005" style="fill:#c6714b;fill-rule:nonzero;"/></g></g></g></g></svg>