<?xml version="1.0" standalone="no"?><!DOCTYPE svg PUBLIC "-//W3C//DTD SVG 1.1//EN" "http://www.w3.org/Graphics/SVG/1.1/DTD/svg11.dtd"><svg width="100%" height="100%" viewBox="0 0 1318 1938" version="1.1" xmlns="http://www.w3.org/2000/svg" xmlns:xlink="http://www.w3.org/1999/xlink" xml:space="preserve" style="fill-rule:evenodd;clip-rule:evenodd;stroke-linejoin:round;stroke-miterlimit:1.41421;"><g id="Layer 1"><path id="right-bottom-right" d="M1190.37,1391.3l-42.963,11.666l11.459,41.656l46.197,0l-14.693,-53.322Z" style="fill:#d4641b;fill-rule:nonzero;"/><path id="right-lower" d="M1174,1056.6l-59.048,220.853l43.026,11.771l62.07,-232.603l-46.048,-0.021Z" style="fill:#d4641b;fill-rule:nonzero;"/><path id="center-light" d="M916.838,1085.45l-211.162,-142.016l-0.608,-216.307l94.048,-175.733l-16.558,-17.878l-237.33,190.08l67.109,57.63l0,162.266l-211.451,141.734l140.59,370.525l-114.099,300.189l95.264,105.243l40.981,-152.896l43.022,11.443l-45.035,168.901l48.893,48.213l96.832,0.219l41.275,-40.488l-46.219,-176.288l43.022,-11.443l39.842,151.966l104.651,-105.307l-113.509,-299.664l140.442,-370.389Z" style="fill:#faaa44;fill-rule:nonzero;"/><path id="left-bottom" d="M563.846,1707.63l-41.205,153.557l46.032,-0.048l38.194,-142.066l-43.021,-11.443Z" style="fill:#d4641b;fill-rule:nonzero;"/><path id="right-bottom" d="M745.156,1708.96l40.099,151.853l-46.088,-0.109l-37.032,-140.301l43.021,-11.443Z" style="fill:#d4641b;fill-rule:nonzero;"/><path id="right-light" d="M1219.98,1056.49l-62.067,232.278l-42.72,-11.387l58.672,-220.76l-116.906,-307.765l-53.494,201.458l-43.021,-11.442l50.483,-190.006l-284.046,-748.824l-44.917,-0.042l0.317,564.845l100.19,-80.141l58.541,66.853l-91.016,175.349l-0.109,193.179l221.589,147.92l-147.475,387.792l101.891,268.349l144.603,-144.056l-39.134,-141.594l42.963,-11.667l32.821,117.389l61.819,-61.373l-21.464,-79.755l42.96,-11.666l14.723,53.312l112.501,-111.267l0.016,-18.208l-97.72,-258.771Z" style="fill:#faaa44;fill-rule:nonzero;"/><path id="right-bottom-left" d="M1074.47,1426.99l-42.963,11.667l28.941,104.573l46.032,0l-32.01,-116.24Z" style="fill:#d4641b;fill-rule:nonzero;"/><path id="right-upper" d="M1011,748.63l-50.552,190.245l43.021,11.443l53.563,-201.661l-46.032,-0.027Z" style="fill:#d4641b;fill-rule:nonzero;"/><path id="left-light" d="M306.765,747.989l51.152,189.52l-43.024,11.448l-54.157,-200.978l-116.904,307.765l58.672,220.76l-42.72,11.387l-62.067,-232.272l-97.717,258.76l0.013,18.221l112.504,111.259l14.718,-53.318l42.962,11.667l-21.466,79.755l61.816,61.376l32.826,-117.387l42.963,11.661l-39.136,141.606l144.611,144.056l101.882,-268.352l-147.474,-387.798l210.288,-140.746l5.922,-126.323l-82.442,-76.237l155.49,-128.507l0,-595.296l-45.016,-0.016l-283.696,747.989Z" style="fill:#faaa44;fill-rule:nonzero;"/><path id="left-bottom-right" d="M243.224,1426.11l42.965,11.661l-28.944,104.574l-46.035,0l32.014,-116.235Z" style="fill:#d4641b;fill-rule:nonzero;"/><path id="left-bottom-left" d="M127.328,1390.43l42.963,11.661l-11.462,41.656l-46.197,0l14.696,-53.317Z" style="fill:#d4641b;fill-rule:nonzero;"/><path id="left-upper" d="M307.031,747.416l50.885,190.094l-43.024,11.448l-53.893,-201.52l46.032,-0.022Z" style="fill:#d4641b;fill-rule:nonzero;"/><path id="left-lower" d="M144.028,1055.05l59.046,220.853l-43.024,11.776l-62.07,-232.603l46.048,-0.026Z" style="fill:#d4641b;fill-rule:nonzero;"/><path id="right-long-line" d="M971.208,1068.01l-221.323,-147.918l0.11,-193.176l91.016,-175.349l-41.896,-0.168l-94.048,175.736l0.61,216.307l211.35,141.869l-140.654,370.656l101.563,268.251l47.955,-0.062l-101.902,-268.189l131.006,-345.235l16.213,-42.722Z" style="fill:#d4641b;fill-rule:nonzero;"/><path id="left-long-line" d="M612.338,781.229l-66.781,-57.52l-65.571,0.109l82.443,76.24l-5.923,126.323l-210.288,140.744l16.52,43.165l131.006,345.229l-101.899,268.195l47.955,0.056l101.733,-267.808l-140.653,-370.656l211.458,-141.811l0,-162.266Z" style="fill:#d4641b;fill-rule:nonzero;"/></g></svg>