<?xml version="1.0" encoding="utf-8"?>
<!-- Generator: Adobe Illustrator 15.0.2, SVG Export Plug-In . SVG Version: 6.00 Build 0)  -->
<!DOCTYPE svg PUBLIC "-//W3C//DTD SVG 1.1//EN" "http://www.w3.org/Graphics/SVG/1.1/DTD/svg11.dtd">
<svg version="1.1" id="Layer_1" xmlns="http://www.w3.org/2000/svg" xmlns:xlink="http://www.w3.org/1999/xlink" x="0px" y="0px"
	 width="117px" height="140px" viewBox="0 0 117 140" enable-background="new 0 0 117 140" xml:space="preserve">
<g>
	<g>
		<g>
			<path fill="#5C5D60" enable-background="new    " d="M58.895,11.786l-16.753,0.38c0,0-8.594-0.632-12.245,6.582
				C26.246,25.96,16.148,71.01,16.148,71.01s-2.041,9.745-0.646,14.174c1.396,4.43,4.19,8.858,9.346,13.921
				c5.156,5.061,23.413,23.282,23.413,23.282s6.553,6.457,10.419,6.202c3.869-0.253,7.303-2.656,15.573-11.009l21.909-22.402
				c0,0,7.09-5.564,6.122-17.334c0,0-1.287-7.717-2.794-14.553c-1.501-6.833-8.376-36.698-10.091-41
				c-1.722-4.302-4.728-9.745-12.246-10.123L58.895,11.786z"/>
			<path fill="#5C5D60" d="M42.156,10.807c-0.841-0.051-9.569-0.384-13.474,7.326c-3.684,7.281-13.445,50.733-13.86,52.581
				c-0.089,0.43-2.1,10.166-0.613,14.881c1.546,4.907,4.626,9.51,9.688,14.479c5.094,4.999,23.225,23.096,23.406,23.278
				c0.722,0.708,7.118,6.879,11.468,6.596c4.273-0.282,7.962-2.841,16.449-11.41c0,0,21.764-22.25,21.865-22.354
				c0.744-0.611,6.652-5.798,6.652-16.136c0-0.745-0.032-1.518-0.099-2.313l-0.003-0.059l-0.008-0.057
				c-0.012-0.076-1.312-7.829-2.808-14.62c-1.364-6.199-8.36-36.706-10.161-41.213c-1.801-4.513-5.154-10.559-13.436-10.977
				C77.224,10.809,42.252,10.803,42.156,10.807z M42.171,13.525c0,0,16.669-0.377,16.725-0.379c0.059,0.001,18.229,0.38,18.229,0.38
				c6.57,0.331,9.255,4.872,11.012,9.268c1.62,4.053,8.241,32.661,10.028,40.79c1.412,6.418,2.649,13.696,2.767,14.41
				c0.061,0.709,0.086,1.393,0.086,2.048c0,9.411-5.45,13.876-5.697,14.073l-0.066,0.053l-21.97,22.461
				c-7.919,7.995-11.216,10.376-14.692,10.604c-2.367,0.156-7.008-3.483-9.376-5.812c-0.176-0.177-18.314-18.281-23.415-23.287
				c-4.73-4.646-7.591-8.889-8.999-13.359c-1.058-3.351,0.129-10.873,0.678-13.487c0.097-0.427,10.096-44.946,13.629-51.927
				c3.188-6.294,10.622-5.861,10.937-5.84l0.063,0.005L42.171,13.525z"/>
		</g>
		<radialGradient id="SVGID_1_" cx="37.187" cy="6.2939" r="52.9292" gradientUnits="userSpaceOnUse">
			<stop  offset="0" style="stop-color:#FFFFFF"/>
			<stop  offset="0.4472" style="stop-color:#9FA1A4"/>
			<stop  offset="1" style="stop-color:#000000"/>
		</radialGradient>
		<path fill="url(#SVGID_1_)" enable-background="new    " d="M42.142,12.166c0,0-8.594-0.632-12.245,6.582
			C26.246,25.96,16.148,71.01,16.148,71.01s-2.041,9.745-0.646,14.174c1.396,4.43,4.19,8.858,9.346,13.921
			c5.156,5.061,23.413,23.282,23.413,23.282s6.553,6.457,10.419,6.202c3.869-0.253,7.303-2.656,15.573-11.009l21.909-22.402
			c0,0,7.09-5.564,6.122-17.334c0,0-1.287-7.717-2.794-14.553c-1.501-6.833-8.376-36.698-10.091-41
			c-1.722-4.302-4.728-9.745-12.246-10.123L42.142,12.166z"/>
		<path fill="#B3B5B8" d="M42.131,11.714c-0.046-0.007-8.893-0.57-12.639,6.828c-3.635,7.182-13.371,50.527-13.785,52.371
			c-0.087,0.409-2.052,9.917-0.633,14.407c1.499,4.765,4.504,9.242,9.457,14.106c5.096,5.006,23.23,23.103,23.41,23.282
			c0.279,0.271,6.747,6.599,10.77,6.334c4.008-0.263,7.565-2.764,15.865-11.142c0,0,21.862-22.353,21.895-22.387
			c0.44-0.35,6.359-5.272,6.359-15.464c0-0.72-0.029-1.468-0.091-2.243c-0.019-0.113-1.314-7.844-2.803-14.612
			c-1.363-6.187-8.338-36.618-10.115-41.073c-1.857-4.642-4.97-10.019-12.646-10.408H42.131z M77.145,12.619
			c7.147,0.361,10.078,5.447,11.832,9.839c1.638,4.099,8.282,32.784,10.072,40.93c1.485,6.746,2.778,14.453,2.791,14.53
			c0.059,0.724,0.087,1.421,0.087,2.098c0,9.914-5.979,14.757-6.045,14.808l-0.022,0.018l-21.931,22.423
			c-8.107,8.189-11.536,10.627-15.278,10.875c-3.617,0.235-10.006-6.012-10.071-6.073c-0.18-0.181-18.314-18.281-23.411-23.285
			c-4.844-4.755-7.775-9.119-9.23-13.734c-1.346-4.264,0.636-13.848,0.656-13.944c0.098-0.44,10.123-45.071,13.708-52.151
			c3.468-6.852,11.725-6.341,11.808-6.333L77.145,12.619z"/>
		<radialGradient id="SVGID_2_" cx="56.5713" cy="143.6416" r="61.9857" gradientUnits="userSpaceOnUse">
			<stop  offset="0" style="stop-color:#FFFFFF"/>
			<stop  offset="0.4472" style="stop-color:#9FA1A4"/>
			<stop  offset="1" style="stop-color:#000000"/>
		</radialGradient>
		<path fill="url(#SVGID_2_)" d="M16.603,84.111c1.362,4.315,4.083,8.63,9.107,13.564c5.023,4.936,22.817,22.695,22.817,22.695
			s6.385,6.288,10.155,6.041c3.764-0.251,7.116-2.59,15.176-10.727l21.353-21.832c0,0,6.908-5.427,5.966-16.897"/>
		<g opacity="0.58">
			<g>
				<path enable-background="new    " d="M68.405,101.188C63.656,94.121,65.54,90.28,65.54,90.28h-0.077l5.146-13.197l-8.382-9.657
					V54.708l5.001-7.725l-10.962,5.963L51.553,59.1l3.848-0.288v8.298l-8.656,9.972l5.398,13.84
					c0.318,1.37,0.549,4.883-3.069,10.264c-4.752,7.06-4.374,11.619-4.374,11.619l4.553,4.336l4.142-15.702l2.845,0.45
					l-4.017,18.082l2.431,2.313c0,0,1.886,1.788,3.997,1.61l0.181,0.002c2.11,0.177,3.997-1.609,3.997-1.609l2.502-2.385
					l-4.001-18.013l2.844-0.45l4.127,15.637l4.479-4.269C72.778,112.808,73.157,108.251,68.405,101.188z"/>
				<path d="M66.686,45.989l-10.961,5.962c-0.141,0.076-0.261,0.179-0.358,0.306l-4.713,6.155c-0.271,0.354-0.309,0.833-0.097,1.227
					c0.212,0.393,0.636,0.624,1.082,0.59c0,0,1.49-0.113,2.627-0.197c0,1.669,0,6.012,0,6.656c-0.518,0.599-8.377,9.651-8.377,9.651
					c-0.182,0.209-0.277,0.473-0.277,0.743c0,0.138,0.026,0.28,0.077,0.411c0,0,5.285,13.551,5.361,13.746
					c0.063,0.295,0.124,0.71,0.124,1.253c0,1.616-0.53,4.323-3.042,8.061c-4.243,6.306-4.572,10.774-4.572,12.009
					c0,0.196,0.007,0.31,0.009,0.338c0.023,0.279,0.148,0.533,0.349,0.727l4.553,4.333c0.292,0.276,0.705,0.38,1.089,0.271
					c0.387-0.108,0.684-0.415,0.788-0.799c0,0,3.425-12.978,3.882-14.715c0.297,0.049,0.332,0.052,0.645,0.106
					c-0.457,2.053-3.757,16.902-3.757,16.902c-0.019,0.081-0.027,0.164-0.027,0.246c0,0.305,0.126,0.602,0.353,0.817l2.429,2.315
					c0.096,0.088,2.232,2.083,4.776,1.921c0.021,0,0.168,0,0.168,0c-0.024,0-0.055,0-0.08-0.001c2.587,0.217,4.777-1.83,4.871-1.916
					l2.506-2.387c0.226-0.215,0.351-0.515,0.351-0.819c0-0.082-0.007-0.166-0.023-0.245c0,0-3.285-14.781-3.744-16.834
					c0.313-0.055,0.35-0.058,0.644-0.106c0.459,1.737,3.867,14.646,3.867,14.646c0.103,0.389,0.399,0.693,0.787,0.802
					c0.382,0.108,0.797,0.005,1.089-0.271l4.479-4.261c0.201-0.194,0.325-0.452,0.348-0.73c0.018-0.202,0.354-5.039-4.561-12.345
					l0,0c-2.515-3.74-3.032-6.473-3.032-8.085c0-1.113,0.245-1.693,0.254-1.709c0.06-0.135,0.083-0.28,0.088-0.427
					c0.265-0.674,5.008-12.842,5.008-12.842c0.054-0.131,0.078-0.273,0.078-0.411c0-0.271-0.097-0.534-0.28-0.743
					c0,0-7.583-8.74-8.103-9.337c0-0.769,0-11.347,0-11.958c0.337-0.523,4.82-7.446,4.82-7.446c0.121-0.187,0.18-0.402,0.18-0.614
					c0-0.279-0.101-0.555-0.299-0.769C67.708,45.833,67.141,45.742,66.686,45.989z M63.857,50.105
					c-1.291,1.993-2.581,3.987-2.581,3.987c-0.116,0.184-0.18,0.397-0.18,0.616v12.717c0,0.272,0.099,0.538,0.274,0.742
					c0,0,7.132,8.215,7.935,9.142c-0.449,1.154-4.898,12.559-4.898,12.559c-0.052,0.133-0.075,0.273-0.075,0.412
					c0,0.01,0.007,0.02,0.007,0.029c-0.134,0.442-0.288,1.149-0.288,2.167c0,2.053,0.641,5.219,3.417,9.344l0,0
					c3.689,5.489,4.134,9.344,4.177,10.506c-0.4,0.382-1.569,1.494-2.739,2.606c-0.757-2.878-3.638-13.782-3.638-13.782
					c-0.147-0.562-0.698-0.918-1.273-0.829l-2.843,0.45c-0.308,0.048-0.582,0.222-0.76,0.481c-0.13,0.187-0.197,0.408-0.197,0.637
					c0,0.08,0.009,0.163,0.027,0.244c0,0,3.607,16.224,3.863,17.388c-0.611,0.587-2.042,1.945-2.042,1.945
					c-0.423,0.396-1.818,1.411-3.116,1.299c-0.029-0.001-0.057-0.001-0.083-0.003l-0.181-0.004c-0.038,0-0.071,0.004-0.107,0.006
					c-1.301,0.11-2.698-0.905-3.127-1.306c0,0-1.354-1.288-1.962-1.866c0.257-1.165,3.88-17.459,3.88-17.459
					c0.018-0.081,0.025-0.164,0.025-0.244c0-0.229-0.067-0.45-0.194-0.637c-0.174-0.26-0.451-0.434-0.76-0.481l-2.845-0.45
					c-0.575-0.089-1.124,0.268-1.271,0.829c0,0-2.897,10.969-3.658,13.852c-1.188-1.14-2.405-2.292-2.809-2.676
					c0.044-1.165,0.483-5.018,4.178-10.509c2.759-4.107,3.431-7.239,3.431-9.313c0-0.752-0.087-1.363-0.196-1.834
					c-0.012-0.054-0.028-0.105-0.05-0.156c0,0-4.695-12.048-5.148-13.205c0.808-0.929,8.204-9.456,8.204-9.456
					c0.181-0.205,0.279-0.47,0.279-0.743v-8.298c0-0.316-0.132-0.617-0.362-0.831c-0.232-0.214-0.541-0.323-0.854-0.299
					c0,0-0.729,0.054-1.328,0.098c1.333-1.737,2.848-3.717,3.029-3.955C57.277,53.684,60.718,51.812,63.857,50.105z M58.745,125.021
					c-0.033,0.003-0.066,0.004-0.096,0.004C58.681,125.024,58.712,125.024,58.745,125.021z"/>
			</g>
			<g>
				<g>
					<path d="M44.167,76.713l6.635-8.078l0.121-18.783c-7.678-7.004-9.163-24.315-9.451-30.318
						c-4.506,4.623-8.334,10.15-11.235,16.322c3.12,0.064,12.104,1.555,11.091,16.76l4.637,11.493l-3.149,1.392L37.267,49.45
						c0,0-5.78-2.412-8.586-10.001c-2.162,5.443-3.621,11.312-4.229,17.452c3.395-0.975,10.306-2.126,10.379,4.623l5.926,6.319
						l-2.065,3.753l-7.963-6.803c0,0-3.196,0.235-6.591-0.829c0.035,3.123,0.299,6.171,0.776,9.124
						c1.64-0.858,4.27-1.622,6.699,0.348l5.17,1.761l-0.504,5.021l-5.478-2.55c0,0-1.638,1.846-4.034,3.356
						c1.119,3.588,2.566,6.977,4.311,10.12c0.526-2.029,1.493-4.622,3.125-5.603l3.602,1.438l1.709,2.84l-2.831,0.764
						c0,0,0.038,3.071-2.221,5.853c1.798,2.452,3.802,4.694,5.987,6.692c0.639-5.08,8.054-9.82,9.928-10.945L44.167,76.713z"/>
				</g>
				<g>
					<g>
						<path d="M40.66,18.744c-4.651,4.771-8.504,10.367-11.451,16.631c-0.07,0.152-0.105,0.317-0.105,0.481
							c0,0.208,0.057,0.415,0.168,0.598c0.203,0.325,0.559,0.527,0.94,0.536c1.598,0.032,4.622,0.462,6.928,2.974
							c2.083,2.274,3.137,5.748,3.137,10.346c0,0.715-0.026,1.46-0.079,2.232c-0.001,0.025-0.001,0.05-0.001,0.075
							c0,0.145,0.026,0.289,0.082,0.423c0,0,3.544,8.788,4.224,10.478c-0.441,0.196-0.55,0.244-1.02,0.451
							c-0.692-2.002-5.145-14.888-5.145-14.888c-0.105-0.302-0.338-0.549-0.632-0.674c-0.052-0.023-5.378-2.355-7.964-9.348
							c-0.163-0.44-0.58-0.734-1.049-0.741c-0.47-0.005-0.894,0.28-1.067,0.716c-2.247,5.666-3.694,11.641-4.3,17.757
							c-0.04,0.375,0.111,0.742,0.401,0.983c0.289,0.238,0.676,0.321,1.039,0.217c3.388-0.972,6.145-0.926,7.56,0.128
							c0.907,0.674,1.355,1.793,1.375,3.418c0.002,0.283,0.111,0.556,0.304,0.762c0,0,4.441,4.737,5.364,5.72
							c-0.311,0.564-0.562,1.021-0.999,1.816c-1.593-1.359-6.907-5.9-6.907-5.9c-0.226-0.193-0.52-0.29-0.816-0.269
							c-0.027,0.002-3.037,0.201-6.169-0.781c-0.346-0.109-0.725-0.045-1.015,0.171c-0.291,0.215-0.461,0.559-0.457,0.921
							c0.034,3.125,0.3,6.253,0.791,9.293c0.057,0.358,0.286,0.669,0.612,0.832c0.324,0.161,0.707,0.16,1.03-0.008
							c2.092-1.097,3.929-1.02,5.462,0.221c0.102,0.085,0.222,0.149,0.348,0.191c0,0,3.129,1.068,4.317,1.474
							c-0.076,0.744-0.146,1.441-0.256,2.543c-1.564-0.732-4.033-1.879-4.033-1.879c-0.454-0.213-0.99-0.099-1.324,0.274
							c-0.014,0.017-1.568,1.75-3.788,3.146c-0.432,0.275-0.629,0.804-0.477,1.297c1.127,3.625,2.607,7.101,4.4,10.334
							c0.223,0.405,0.672,0.63,1.132,0.574c0.459-0.059,0.835-0.393,0.953-0.841c0.582-2.235,1.37-3.804,2.24-4.581
							c0.755,0.302,2.152,0.856,2.617,1.041c0.148,0.253,0.373,0.62,0.738,1.228c-0.691,0.186-1.383,0.374-1.383,0.374
							c-0.493,0.133-0.838,0.586-0.838,1.1v0.004c0,0.044-0.021,2.731-1.969,5.125c-0.167,0.209-0.25,0.463-0.25,0.718
							c0,0.234,0.071,0.469,0.218,0.666c1.835,2.501,3.899,4.811,6.135,6.864c0.313,0.285,0.757,0.375,1.155,0.229
							c0.398-0.147,0.681-0.504,0.734-0.925c0.582-4.619,7.92-9.237,9.388-10.114c0.351-0.21,0.548-0.586,0.548-0.974
							c0-0.139-0.024-0.283-0.082-0.419c0,0-5.498-13.707-5.958-14.853c0.745-0.906,6.209-7.561,6.209-7.561
							c0.164-0.198,0.255-0.45,0.256-0.709c0,0,0.127-18.787,0.127-18.79c0-0.318-0.136-0.622-0.372-0.836
							c-7.447-6.792-8.836-24.323-9.085-29.535c-0.022-0.451-0.309-0.846-0.729-1.004C41.452,18.315,40.975,18.421,40.66,18.744z
							 M40.512,22.305c0.597,7.804,2.604,21.471,9.279,27.998c-0.007,0.852-0.114,17.172-0.12,17.922
							c-0.47,0.574-6.379,7.765-6.379,7.765c-0.17,0.206-0.256,0.465-0.256,0.723c0,0.14,0.024,0.283,0.08,0.419
							c0,0,5.226,13.024,5.855,14.592c-2.474,1.574-7.371,5.098-9.088,9.227c-1.423-1.423-2.766-2.937-4.003-4.559
							c1.306-1.92,1.737-3.836,1.868-4.921c0.815-0.223,2.06-0.56,2.06-0.56c0.343-0.095,0.622-0.339,0.756-0.671
							c0.054-0.135,0.082-0.279,0.082-0.42c0-0.206-0.058-0.407-0.165-0.586l-1.706-2.84c-0.129-0.21-0.32-0.376-0.55-0.467
							l-3.603-1.438c-0.33-0.133-0.699-0.101-1.006,0.083c-1.099,0.663-2.023,1.905-2.766,3.682
							c-1.061-2.165-1.967-4.439-2.73-6.771c1.313-0.917,2.334-1.85,2.934-2.446c1.098,0.511,4.749,2.209,4.749,2.209
							c0.331,0.153,0.718,0.139,1.036-0.042c0.318-0.182,0.529-0.507,0.566-0.874l0.504-5.02c0.005-0.039,0.007-0.075,0.007-0.113
							c0-0.48-0.308-0.914-0.769-1.073c0,0-4.78-1.627-5.036-1.716c-1.811-1.363-3.983-1.68-6.256-0.934
							c-0.272-1.991-0.442-4.004-0.514-6.032c2.23,0.492,4.139,0.522,4.985,0.5c0.615,0.525,7.626,6.518,7.626,6.518
							c0.259,0.22,0.604,0.314,0.939,0.254c0.336-0.062,0.626-0.271,0.79-0.571l2.066-3.754c0.094-0.171,0.14-0.358,0.14-0.545
							c0-0.281-0.104-0.56-0.306-0.774c0,0-5.192-5.536-5.666-6.043c-0.126-2.093-0.857-3.697-2.239-4.725
							c-2.126-1.583-5.222-1.454-7.885-0.892c0.553-4.421,1.56-8.749,3.004-12.927c2.599,4.901,6.257,7.118,7.551,7.782
							c0.293,0.841,5.396,15.607,5.396,15.607c0.104,0.298,0.326,0.542,0.617,0.668c0.291,0.126,0.621,0.126,0.91-0.002l3.15-1.391
							c0.422-0.188,0.675-0.601,0.675-1.038c0-0.14-0.028-0.284-0.082-0.422c0,0-4.374-10.847-4.545-11.271
							c0.04-0.715,0.071-1.416,0.071-2.09c0-5.192-1.252-9.186-3.732-11.891c-2.154-2.35-4.782-3.239-6.789-3.552
							C34.342,30.261,37.189,26.052,40.512,22.305z M37.814,90.567c0,0.005,0,0.017,0,0.018
							C37.814,90.577,37.814,90.572,37.814,90.567z"/>
					</g>
				</g>
			</g>
			<g>
				<g>
					<path d="M92.389,73.089c0.479-2.953,0.742-6.001,0.773-9.124c-3.393,1.064-6.587,0.829-6.587,0.829l-7.965,6.803l-2.064-3.753
						l5.924-6.319c0.074-6.75,6.986-5.598,10.378-4.623c-0.606-6.14-2.065-12.009-4.227-17.452
						c-2.805,7.589-8.586,10.001-8.586,10.001l-5.547,16.051l-3.149-1.392l4.635-11.493c-1.01-15.205,7.972-16.696,11.094-16.76
						c-2.903-6.172-6.73-11.699-11.234-16.322c-0.289,6.003-1.774,23.314-9.455,30.318l0.125,18.782l6.632,8.079l-6.211,15.471
						c1.877,1.125,9.29,5.869,9.934,10.945c2.181-1.998,4.186-4.24,5.984-6.692c-2.264-2.781-2.221-5.853-2.221-5.853l-2.83-0.764
						l1.708-2.84l3.602-1.438c1.63,0.98,2.596,3.573,3.123,5.603c1.741-3.144,3.194-6.532,4.309-10.12
						c-2.392-1.511-4.03-3.356-4.03-3.356l-5.479,2.55l-0.503-5.021l5.17-1.761C88.121,71.467,90.748,72.23,92.389,73.089z"/>
				</g>
				<g>
					<g>
						<path d="M75.431,18.476c-0.42,0.159-0.71,0.554-0.731,1.004c-0.247,5.212-1.64,22.745-9.086,29.535
							c-0.233,0.215-0.371,0.519-0.371,0.836c0,0.003,0.128,18.79,0.128,18.79c0,0.259,0.088,0.51,0.255,0.709
							c0,0,5.463,6.654,6.21,7.561c-0.459,1.146-5.961,14.853-5.961,14.853c-0.056,0.136-0.079,0.28-0.079,0.419
							c0,0.388,0.198,0.764,0.549,0.974c1.467,0.877,8.807,5.495,9.388,10.114c0.054,0.421,0.338,0.777,0.732,0.925
							c0.398,0.146,0.843,0.056,1.156-0.229c2.236-2.054,4.3-4.363,6.137-6.864c0.146-0.197,0.217-0.432,0.217-0.666
							c0-0.255-0.084-0.509-0.254-0.718c-1.949-2.391-1.966-5.081-1.966-5.124V90.59c0-0.514-0.343-0.967-0.836-1.1
							c0,0-0.694-0.188-1.384-0.374c0.363-0.607,0.586-0.975,0.737-1.228c0.465-0.18,1.859-0.739,2.618-1.041
							c0.869,0.777,1.656,2.346,2.239,4.581c0.116,0.448,0.496,0.782,0.953,0.841c0.458,0.056,0.908-0.169,1.133-0.574
							c1.791-3.228,3.272-6.706,4.401-10.334c0.15-0.493-0.045-1.021-0.48-1.297c-2.219-1.396-3.772-3.13-3.787-3.146
							c-0.334-0.373-0.871-0.487-1.322-0.274c0,0-2.467,1.146-4.035,1.879c-0.112-1.102-0.182-1.799-0.257-2.543
							c1.191-0.405,4.321-1.474,4.321-1.474c0.124-0.042,0.243-0.106,0.345-0.191c1.533-1.24,3.372-1.317,5.464-0.221
							c0.321,0.168,0.706,0.169,1.029,0.008c0.325-0.163,0.555-0.474,0.611-0.832c0.493-3.036,0.758-6.164,0.791-9.293
							c0.006-0.362-0.165-0.706-0.455-0.921c-0.294-0.216-0.67-0.28-1.017-0.171c-3.132,0.981-6.138,0.783-6.17,0.781
							c-0.294-0.021-0.59,0.076-0.816,0.269c0,0-5.315,4.541-6.907,5.9c-0.436-0.795-0.688-1.252-0.995-1.816
							c0.919-0.981,5.363-5.72,5.363-5.72c0.191-0.206,0.301-0.479,0.304-0.762c0.019-1.625,0.465-2.744,1.375-3.418
							c1.414-1.055,4.169-1.1,7.561-0.128c0.36,0.104,0.747,0.021,1.037-0.217c0.287-0.241,0.438-0.608,0.403-0.983
							c-0.605-6.114-2.055-12.088-4.304-17.757c-0.172-0.437-0.595-0.721-1.064-0.716c-0.47,0.007-0.887,0.301-1.051,0.741
							c-2.584,6.993-7.91,9.325-7.963,9.348c-0.295,0.125-0.526,0.372-0.631,0.674c0,0-4.452,12.886-5.146,14.888
							c-0.468-0.207-0.578-0.255-1.022-0.451c0.686-1.689,4.227-10.478,4.227-10.478c0.055-0.134,0.082-0.278,0.082-0.423
							c0-0.025-0.002-0.05-0.002-0.075c-0.052-0.772-0.076-1.516-0.076-2.232c0-4.597,1.052-8.071,3.139-10.346
							c2.302-2.512,5.326-2.942,6.926-2.974c0.382-0.008,0.736-0.21,0.938-0.536c0.112-0.183,0.17-0.389,0.17-0.598
							c0-0.164-0.038-0.329-0.109-0.481c-2.943-6.264-6.798-11.86-11.448-16.631C76.329,18.421,75.853,18.315,75.431,18.476z
							 M76.794,22.304c3.317,3.747,6.167,7.957,8.491,12.576c-2.009,0.313-4.636,1.203-6.79,3.552
							c-2.481,2.705-3.735,6.699-3.735,11.892c0,0.675,0.031,1.375,0.071,2.089c-0.17,0.425-4.541,11.271-4.541,11.271
							c-0.058,0.138-0.085,0.282-0.085,0.422c0,0.437,0.255,0.851,0.677,1.038l3.149,1.391c0.288,0.128,0.618,0.129,0.908,0.002
							c0.293-0.125,0.515-0.37,0.62-0.668c0,0,5.104-14.766,5.393-15.607c1.296-0.664,4.953-2.88,7.552-7.782
							c1.448,4.179,2.454,8.508,3.005,12.927c-2.663-0.562-5.76-0.692-7.887,0.892c-1.381,1.028-2.113,2.632-2.236,4.725
							c-0.476,0.507-5.667,6.043-5.667,6.043c-0.2,0.214-0.306,0.494-0.306,0.774c0,0.187,0.047,0.374,0.14,0.545l2.066,3.754
							c0.162,0.3,0.453,0.51,0.79,0.571c0.335,0.061,0.679-0.031,0.938-0.254c0,0,7.014-5.993,7.628-6.518
							c0.844,0.022,2.755-0.007,4.985-0.5c-0.07,2.029-0.244,4.043-0.514,6.032c-2.272-0.747-4.444-0.43-6.259,0.934
							c-0.255,0.089-5.035,1.716-5.035,1.716c-0.463,0.159-0.764,0.593-0.764,1.073c0,0.038,0,0.074,0.003,0.113l0.504,5.02
							c0.037,0.367,0.25,0.692,0.566,0.874c0.319,0.181,0.708,0.195,1.04,0.042c0,0,3.648-1.698,4.748-2.209
							c0.598,0.597,1.619,1.529,2.933,2.446c-0.765,2.332-1.674,4.606-2.73,6.771c-0.745-1.776-1.672-3.019-2.768-3.682
							c-0.304-0.184-0.676-0.216-1.003-0.083l-3.604,1.438c-0.229,0.091-0.422,0.257-0.551,0.467l-1.71,2.84
							c-0.104,0.179-0.161,0.38-0.161,0.586c0,0.141,0.028,0.285,0.08,0.42c0.134,0.332,0.413,0.576,0.757,0.671
							c0,0,1.245,0.337,2.062,0.56c0.131,1.085,0.564,3.001,1.865,4.921c-1.233,1.622-2.582,3.136-4.001,4.559
							c-1.718-4.129-6.612-7.652-9.087-9.227c0.63-1.567,5.855-14.592,5.855-14.592c0.055-0.136,0.081-0.279,0.081-0.419
							c0-0.258-0.089-0.517-0.259-0.723c0,0-5.906-7.191-6.38-7.765c-0.004-0.75-0.113-17.07-0.118-17.922
							C74.185,43.778,76.193,30.109,76.794,22.304z M79.488,90.584c0-0.007,0-0.012,0-0.017
							C79.488,90.572,79.488,90.577,79.488,90.584C79.488,90.584,79.488,90.584,79.488,90.584z"/>
					</g>
				</g>
			</g>
		</g>
		<g>
			<linearGradient id="SVGID_3_" gradientUnits="userSpaceOnUse" x1="25.4097" y1="121.9912" x2="52.0033" y2="95.3975">
				<stop  offset="0" style="stop-color:#FFFFFF"/>
				<stop  offset="0.4898" style="stop-color:#FFDB9C"/>
				<stop  offset="1" style="stop-color:#FDBB30"/>
			</linearGradient>
			<path fill="url(#SVGID_3_)" d="M68.405,101.188C63.656,94.121,65.54,90.28,65.54,90.28h-0.077l5.146-13.197l-8.382-9.657V54.708
				l5.001-7.725l-10.962,5.963L51.553,59.1l3.848-0.288v8.298l-8.656,9.972l5.398,13.84c0.318,1.37,0.549,4.883-3.069,10.264
				c-4.752,7.06-4.374,11.619-4.374,11.619l4.553,4.336l4.142-15.702l2.845,0.45l-4.017,18.082l2.431,2.313
				c0,0,1.886,1.788,3.997,1.61l0.181,0.002c2.11,0.177,3.997-1.609,3.997-1.609l2.502-2.385l-4.001-18.013l2.844-0.45l4.127,15.637
				l4.479-4.269C72.778,112.808,73.157,108.251,68.405,101.188z"/>
			<g>
				<linearGradient id="SVGID_4_" gradientUnits="userSpaceOnUse" x1="2.853" y1="99.4414" x2="29.4467" y2="72.8477">
					<stop  offset="0" style="stop-color:#FFFFFF"/>
					<stop  offset="0.4898" style="stop-color:#FFDB9C"/>
					<stop  offset="1" style="stop-color:#FDBB30"/>
				</linearGradient>
				<path fill="url(#SVGID_4_)" d="M44.167,76.713l6.635-8.078l0.121-18.783c-7.678-7.004-9.163-24.315-9.451-30.318
					c-4.506,4.623-8.334,10.15-11.235,16.322c3.12,0.064,12.104,1.555,11.091,16.76l4.637,11.493l-3.149,1.392L37.267,49.45
					c0,0-5.78-2.412-8.586-10.001c-2.162,5.443-3.621,11.312-4.229,17.452c3.395-0.975,10.306-2.126,10.379,4.623l5.926,6.319
					l-2.065,3.753l-7.963-6.803c0,0-3.196,0.235-6.591-0.829c0.035,3.123,0.299,6.171,0.776,9.124
					c1.64-0.858,4.27-1.622,6.699,0.348l5.17,1.761l-0.504,5.021l-5.478-2.55c0,0-1.638,1.846-4.034,3.356
					c1.119,3.588,2.566,6.977,4.311,10.12c0.526-2.029,1.493-4.622,3.125-5.603l3.602,1.438l1.709,2.84l-2.831,0.764
					c0,0,0.038,3.071-2.221,5.853c1.798,2.452,3.802,4.694,5.987,6.692c0.639-5.08,8.054-9.82,9.928-10.945L44.167,76.713z"/>
			</g>
			<g>
				<linearGradient id="SVGID_5_" gradientUnits="userSpaceOnUse" x1="20.5674" y1="117.1396" x2="47.1593" y2="90.5477">
					<stop  offset="0" style="stop-color:#FFFFFF"/>
					<stop  offset="0.4898" style="stop-color:#FFDB9C"/>
					<stop  offset="1" style="stop-color:#FDBB30"/>
				</linearGradient>
				<path fill="url(#SVGID_5_)" d="M92.389,73.089c0.479-2.953,0.742-6.001,0.773-9.124c-3.393,1.064-6.587,0.829-6.587,0.829
					l-7.965,6.803l-2.064-3.753l5.924-6.319c0.074-6.75,6.986-5.598,10.378-4.623c-0.606-6.14-2.065-12.009-4.227-17.452
					c-2.805,7.589-8.586,10.001-8.586,10.001l-5.547,16.051l-3.149-1.392l4.635-11.493c-1.01-15.205,7.972-16.696,11.094-16.76
					c-2.903-6.172-6.73-11.699-11.234-16.322c-0.289,6.003-1.774,23.314-9.455,30.318l0.125,18.782l6.632,8.079l-6.211,15.471
					c1.877,1.125,9.29,5.869,9.934,10.945c2.181-1.998,4.186-4.24,5.984-6.692c-2.264-2.781-2.221-5.853-2.221-5.853l-2.83-0.764
					l1.708-2.84l3.602-1.438c1.63,0.98,2.596,3.573,3.123,5.603c1.741-3.144,3.194-6.532,4.309-10.12
					c-2.392-1.511-4.03-3.356-4.03-3.356l-5.479,2.55l-0.503-5.021l5.17-1.761C88.121,71.467,90.748,72.23,92.389,73.089z"/>
			</g>
		</g>
		<g>
			<g>
				<g>
					<path fill="#FFFFFF" d="M36.45,96.048c-1.394,0-1.993-0.715-2.251-1.315l-0.995-2.284v3.43h-3.603v-6.629
						c0-0.409,0.154-0.99,0.891-1.438c0.513-0.309,1.179-0.465,1.982-0.465c0.254,0,0.513,0.016,0.779,0.045
						c1.083,0.135,1.76,0.556,2.016,1.252l1.137,3.084l1.272-3.101c0.282-0.686,0.948-1.101,1.981-1.234
						c0.274-0.03,0.539-0.046,0.801-0.046c0.792,0,1.453,0.155,1.966,0.463c0.525,0.32,0.754,0.707,0.843,1.05v-1.426h3.728v1.288
						c0.447-0.863,1.425-1.288,2.922-1.288h6.039v1.069c0.49-0.714,1.424-1.069,2.79-1.069h9.585v1.697
						c0.013-0.051,0.028-0.104,0.046-0.157c0.374-1.026,1.473-1.54,3.271-1.54h3.219c2.399,0,3.147,0.862,3.301,1.715
						c0.069-0.515,0.356-0.954,0.842-1.281c0.514-0.346,1.149-0.521,1.891-0.521c0.323,0,0.656,0.03,0.988,0.091
						c0.936,0.209,1.563,0.688,1.881,1.432l0.961,2.155v-3.585h3.583v6.665c0,0.394-0.151,0.956-0.871,1.398
						c-0.492,0.306-1.108,0.471-1.829,0.491l-0.113,0.001c-1.716,0-2.453-0.851-2.77-1.563l-0.977-2.165v3.611h-3.603v-1.653
						c-0.187,0.835-0.966,1.653-3.301,1.653h-3.202c-0.945,0-1.645-0.104-2.137-0.319c-0.56-0.252-0.935-0.672-1.119-1.249
						c-0.025-0.074-0.045-0.148-0.061-0.222v1.79h-3.727v-1.277c-0.183,0.363-0.531,0.72-1.167,0.972
						c-0.537,0.206-1.149,0.306-1.876,0.306h-5.883v-1.11c-0.201,0.304-0.535,0.592-1.076,0.805
						c-0.523,0.203-1.153,0.306-1.874,0.306H39.734V92.43l-1.013,2.307c-0.093,0.231-0.224,0.439-0.383,0.604
						C37.967,95.798,37.322,96.048,36.45,96.048z M72.03,93.232c0.028,0,0.142,0.036,0.392,0.036h1.673
						c0.215,0,0.336-0.023,0.397-0.042v-3.163c-0.001,0-0.002,0-0.004,0c-0.03,0-0.144-0.036-0.394-0.036h-1.673
						c-0.348,0-0.44,0.068-0.441,0.069C71.98,90.097,72.029,93.232,72.03,93.232z M60.929,93.269
						c0.058-0.016,0.103-0.035,0.135-0.051v-0.261c-0.03-0.006-0.069-0.011-0.117-0.014l-2.232,0.001
						c-1.037,0-1.864-0.265-2.458-0.786c-0.49-0.431-0.593-0.882-0.593-1.185v-0.947l-5.004,0.021
						c-0.04,0.001-0.073,0.005-0.1,0.008c0,0,0.002,0.254,0.003,0.254c0.035,0,0.111,0.017,0.234,0.024l2.114-0.001
						c0.641,0,1.223,0.102,1.731,0.302c1.087,0.401,1.318,1.127,1.318,1.665v0.97H60.929z M52.099,93.269
						c0.057-0.016,0.101-0.034,0.133-0.05v-0.263c-0.03-0.005-0.067-0.01-0.114-0.013l-2.235,0.001
						c-1.035,0-1.861-0.265-2.457-0.786c-0.202-0.177-0.338-0.357-0.428-0.53v1.641H52.099z M61.737,90.332
						c0.643,0,1.226,0.102,1.733,0.302c0.615,0.228,0.956,0.559,1.136,0.901v-1.509l-5.117,0.021
						c-0.041,0.001-0.074,0.005-0.102,0.008c0,0,0.001,0.253,0.002,0.253c0.034,0,0.11,0.018,0.235,0.025L61.737,90.332z"/>
					<path d="M80.901,87.847c0.293,0,0.593,0.027,0.898,0.083c0.749,0.167,1.257,0.543,1.512,1.137l1.92,4.308v-5.435h2.583v6.165
						c0,0.388-0.209,0.712-0.633,0.973c-0.424,0.263-0.953,0.399-1.581,0.417c-0.034,0.001-0.067,0.001-0.101,0.001
						c-1.164,0-1.936-0.419-2.312-1.267l-1.934-4.286v5.436h-2.603v-5.98c0-0.453,0.212-0.828,0.638-1.115
						C79.723,87.991,80.258,87.847,80.901,87.847 M40.461,87.847c0.705,0,1.273,0.131,1.709,0.392
						c0.432,0.264,0.648,0.598,0.648,1.011v6.129h-2.584v-5.33l-1.971,4.487c-0.071,0.178-0.164,0.333-0.283,0.455
						c-0.304,0.373-0.814,0.558-1.53,0.558c-0.901,0-1.501-0.336-1.792-1.013l-1.954-4.487v5.33h-2.603v-6.129
						c0-0.413,0.217-0.747,0.65-1.011c0.434-0.261,1.008-0.392,1.723-0.392c0.236,0,0.477,0.015,0.724,0.042
						c0.879,0.109,1.413,0.415,1.602,0.928l1.581,4.289l1.76-4.289c0.211-0.513,0.738-0.818,1.583-0.928
						C39.971,87.861,40.217,87.847,40.461,87.847 M74.868,87.934c1.89,0,2.833,0.528,2.833,1.591v4.239
						c0,1.077-0.952,1.614-2.85,1.614h-3.202c-0.866,0-1.514-0.093-1.937-0.277c-0.42-0.189-0.701-0.5-0.843-0.943
						c-0.047-0.137-0.069-0.261-0.069-0.374l-0.02-4.259c0-0.123,0.026-0.255,0.072-0.393c0.292-0.801,1.224-1.198,2.796-1.198
						H74.868 M72.422,93.769h1.673c0.6,0,0.897-0.154,0.897-0.455v-3.266c0-0.344-0.298-0.521-0.897-0.521h-1.673
						c-0.607,0-0.912,0.177-0.912,0.521l0.018,3.202C71.527,93.594,71.824,93.769,72.422,93.769 M67.833,87.934v7.444h-2.727v-7.444
						H67.833 M64.287,87.934v1.594l-4.8,0.02c-0.398,0.014-0.6,0.133-0.6,0.351v0.499c0,0.057,0.009,0.09,0.02,0.104
						c0.06,0.19,0.286,0.305,0.685,0.331h2.146c0.587,0,1.104,0.091,1.55,0.267c0.668,0.247,1,0.648,1,1.2v1.51
						c0,0.592-0.346,1.026-1.032,1.299c-0.473,0.182-1.034,0.271-1.691,0.271h-5.383v-1.609h4.748
						c0.424-0.085,0.635-0.229,0.635-0.438v-0.537c0-0.203-0.195-0.322-0.582-0.35h-2.268c-0.915,0-1.626-0.221-2.129-0.662
						c-0.281-0.247-0.423-0.519-0.423-0.809v-1.572c0-0.122,0.023-0.248,0.071-0.372c0.318-0.734,1.157-1.096,2.515-1.096H64.287
						 M55.458,87.934v1.594l-4.802,0.02c-0.398,0.014-0.598,0.133-0.598,0.351v0.499c0,0.057,0.007,0.09,0.019,0.104
						c0.058,0.19,0.285,0.305,0.686,0.331h2.146c0.586,0,1.102,0.091,1.548,0.267c0.669,0.247,1.001,0.648,1.001,1.2v1.51
						c0,0.592-0.345,1.026-1.036,1.299c-0.469,0.182-1.033,0.271-1.69,0.271h-5.381v-1.609h4.748
						c0.423-0.085,0.633-0.229,0.633-0.438v-0.537c0-0.203-0.192-0.322-0.579-0.35h-2.271c-0.914,0-1.623-0.221-2.127-0.662
						c-0.281-0.247-0.423-0.519-0.423-0.809v-1.572c0-0.122,0.025-0.248,0.07-0.372c0.317-0.734,1.156-1.096,2.517-1.096H55.458
						 M46.497,87.934v7.444H43.77v-7.444H46.497 M80.901,86.847c-0.842,0-1.572,0.204-2.17,0.605
						c-0.229,0.155-0.425,0.334-0.583,0.532c-0.518-0.583-1.49-1.051-3.28-1.051h-3.219c-1.221,0-2.162,0.226-2.816,0.674v-0.674h-1
						h-2.546h-1h-5.539c-0.94,0-1.705,0.158-2.29,0.471v-0.471h-1h-5.539c-1.012,0-1.821,0.183-2.422,0.545v-0.545h-1H43.77h-1
						v0.501c-0.026-0.017-0.052-0.033-0.078-0.05c-0.599-0.358-1.347-0.538-2.23-0.538c-0.274,0-0.559,0.017-0.847,0.048
						c-1.543,0.2-2.154,0.948-2.398,1.541l-0.785,1.914l-0.692-1.879c-0.224-0.608-0.825-1.376-2.417-1.574
						c-0.306-0.034-0.579-0.05-0.847-0.05c-0.895,0-1.648,0.18-2.238,0.534c-0.988,0.602-1.135,1.429-1.135,1.868v6.129v1h1h2.603h1
						v-1v-0.529l0.037,0.086c0.258,0.6,0.956,1.613,2.709,1.613c1.011,0,1.777-0.3,2.278-0.893c0.191-0.205,0.347-0.456,0.464-0.748
						l0.042-0.097v0.567v1h1h2.584h1h2.532h1h5.381c0.783,0,1.473-0.113,2.052-0.338c0.145-0.057,0.276-0.119,0.397-0.185v0.522h1
						h5.383c0.789,0,1.46-0.11,2.05-0.337c0.184-0.073,0.347-0.153,0.493-0.239v0.576h1h2.727h1v-0.636
						c0.144,0.104,0.3,0.193,0.469,0.27c0.567,0.248,1.332,0.366,2.348,0.366h3.202c1.339,0,2.223-0.262,2.801-0.639v0.639h1h2.603
						h1v-1v-0.787l0.022,0.049c0.373,0.844,1.239,1.855,3.223,1.855l0.121-0.001c0.817-0.023,1.518-0.214,2.087-0.567
						c0.962-0.592,1.106-1.396,1.106-1.822v-6.165v-1h-1h-2.583h-1v1v0.734l-0.007-0.015c-0.26-0.605-0.858-1.405-2.207-1.705
						C81.617,86.88,81.255,86.847,80.901,86.847L80.901,86.847z M72.513,90.527h1.479v2.241h-1.468L72.513,90.527L72.513,90.527z"/>
				</g>
			</g>
			<g>
				<g>
					<path fill="#FFFFFF" d="M73.481,104.236v-1.266c-0.061,0.127-0.137,0.237-0.228,0.334c-0.573,0.625-1.516,0.932-2.877,0.932
						h-3.452c-1.445,0-2.417-0.334-2.973-1.021c-0.218-0.285-0.319-0.684-0.319-1.23V96.24h3.688v5.454
						c0.084,0.014,0.217,0.027,0.42,0.027h1.818c0.215,0,0.35-0.015,0.431-0.028l-0.009-5.453h3.687v1.157
						c0.457-0.774,1.41-1.157,2.846-1.157h5.962v2.495l-5.232,0.021c-0.035,0.001-0.064,0.004-0.09,0.007v0.167
						c0.046,0.012,0.118,0.024,0.225,0.031l2.082-0.001c0.642,0,1.217,0.097,1.709,0.288c1.077,0.379,1.307,1.075,1.307,1.592v1.417
						c0,0.54-0.233,1.271-1.344,1.693c-0.528,0.19-1.146,0.285-1.845,0.285H73.481z M78.665,101.722
						c0.051-0.013,0.091-0.028,0.122-0.042v-0.192c-0.026-0.003-0.06-0.007-0.099-0.009l-2.212,0.001
						c-1.017,0-1.83-0.248-2.417-0.738c-0.164-0.14-0.295-0.287-0.392-0.442v1.423H78.665z M57.483,104.236
						c-0.347,0-0.691-0.043-1.054-0.13c-1.349-0.295-1.82-0.95-1.944-1.552c-0.141,0.831-0.875,1.682-3.282,1.682h-3.154
						c-0.932,0-1.62-0.099-2.104-0.303c-0.544-0.228-0.929-0.637-1.111-1.184c-0.064-0.176-0.097-0.346-0.097-0.509l-0.003-0.762
						h-5.016v2.757h-3.688V98.16c0-0.553,0.235-1.524,1.809-1.831c0.324-0.06,0.82-0.089,1.519-0.089h5.808v0.892
						c0.534-0.594,1.499-0.892,2.882-0.892h3.175c2.381,0,3.114,0.833,3.26,1.652c0.119-0.707,0.521-1.067,0.866-1.251
						c0.498-0.27,1.328-0.401,2.534-0.401h5.734v2.497h-5.354c-0.053,0.005-0.094,0.014-0.125,0.021v2.858
						c0,0.049,0.005,0.08,0.009,0.098c0.004-0.001,0.01-0.001,0.018-0.001c0.039,0,0.127,0.008,0.272,0.008h5.181v2.515H57.483z
						 M48.44,101.696c0.045,0,0.159,0.025,0.37,0.025h1.646c0.202,0,0.321-0.02,0.386-0.036V98.76
						c-0.004,0.001-0.009,0.002-0.016,0.002c-0.046,0-0.161-0.024-0.37-0.024h-1.646c-0.347,0-0.442,0.064-0.443,0.064l0.059,2.896
						C48.43,101.697,48.435,101.696,48.44,101.696z M44.724,98.961l-0.001-0.224H40.14c-0.233,0-0.36,0.026-0.421,0.047v0.177
						H44.724z"/>
					<path d="M81.976,96.74v1.497l-4.734,0.02c-0.393,0.015-0.588,0.122-0.588,0.33v0.469c0,0.049,0.005,0.081,0.016,0.095
						c0.058,0.183,0.282,0.285,0.677,0.311h2.114c0.579,0,1.088,0.083,1.528,0.254c0.659,0.232,0.987,0.607,0.987,1.126v1.417
						c0,0.558-0.34,0.967-1.021,1.226c-0.463,0.167-1.019,0.253-1.667,0.253h-5.306v-1.515h4.684
						c0.414-0.078,0.622-0.215,0.622-0.407v-0.506c0-0.195-0.189-0.308-0.57-0.329h-2.24c-0.898,0-1.601-0.208-2.097-0.622
						c-0.276-0.235-0.419-0.485-0.419-0.762v-1.473c0-0.116,0.027-0.235,0.073-0.352c0.312-0.687,1.138-1.031,2.479-1.031H81.976
						 M73.168,96.74v5.245c0,0.455-0.093,0.78-0.277,0.976c-0.475,0.518-1.313,0.775-2.514,0.775h-3.452
						c-1.271,0-2.134-0.278-2.584-0.835c-0.139-0.182-0.208-0.485-0.208-0.916V96.74h2.688v5.208
						c0.044,0.181,0.353,0.273,0.92,0.273h1.818c0.545,0,0.847-0.083,0.904-0.254l0.018-0.061V96.74H73.168 M63.117,96.74v1.497
						h-4.854c-0.348,0.029-0.556,0.131-0.625,0.312v3.068c0,0.258,0.08,0.436,0.245,0.526c0.092,0.052,0.276,0.078,0.554,0.078
						h4.681v1.515h-5.634c-0.304,0-0.613-0.038-0.937-0.116c-1.066-0.233-1.599-0.711-1.599-1.438v-3.848
						c0-0.608,0.214-1.027,0.635-1.25c0.422-0.229,1.188-0.344,2.3-0.344H63.117 M51.224,96.74c1.859,0,2.789,0.502,2.789,1.497
						v3.981c0,1.012-0.937,1.518-2.81,1.518h-3.154c-0.855,0-1.492-0.088-1.909-0.264c-0.416-0.174-0.693-0.468-0.831-0.881
						c-0.048-0.132-0.071-0.247-0.071-0.351l-0.017-4.004c0-0.114,0.023-0.237,0.069-0.366c0.288-0.755,1.208-1.131,2.759-1.131
						H51.224 M48.811,102.222h1.646c0.592,0,0.886-0.143,0.886-0.429v-3.067c0-0.325-0.294-0.488-0.886-0.488h-1.646
						c-0.602,0-0.901,0.163-0.901,0.488l0.018,3.008C47.927,102.057,48.221,102.222,48.811,102.222 M44.667,96.74v1.497H40.14
						c-0.532,0-0.833,0.119-0.901,0.35c-0.013,0.017-0.02,0.047-0.02,0.1v0.774h5.448v1.519h-5.448v2.757h-2.688V98.16
						c0-0.712,0.47-1.158,1.404-1.34c0.289-0.054,0.765-0.08,1.424-0.08H44.667 M82.976,95.74h-1h-5.462
						c-0.974,0-1.757,0.166-2.346,0.496V95.74h-1h-2.687h-1v1v4.481h-1.66V96.74v-1h-1h-2.688h-0.016h-1h-5.234
						c-1.309,0-2.191,0.147-2.776,0.465c-0.188,0.099-0.434,0.268-0.651,0.536c-0.514-0.557-1.474-1.001-3.232-1.001h-3.175
						c-0.976,0-1.771,0.142-2.382,0.424V95.74h-1h-5.308c-0.74,0-1.25,0.031-1.606,0.097c-2.006,0.39-2.222,1.755-2.222,2.323v5.576
						v1h1h2.688h1v-1v-1.757h4.018l0.001,0.266c0,0.218,0.043,0.444,0.131,0.688c0.221,0.663,0.703,1.178,1.385,1.463
						c0.543,0.229,1.295,0.341,2.295,0.341h3.154c1.834,0,2.805-0.482,3.306-1.073c0.354,0.389,0.922,0.736,1.824,0.934
						c0.38,0.093,0.764,0.14,1.15,0.14h5.634h1v-0.695c0.67,0.47,1.595,0.695,2.808,0.695h3.452c1.095,0,1.955-0.189,2.604-0.576
						v0.576h1h5.306c0.757,0,1.432-0.105,2.006-0.313c1.466-0.556,1.683-1.596,1.683-2.166v-1.417c0-0.415-0.12-1.082-0.782-1.604
						l0.782-0.003v-0.996V96.74V95.74L82.976,95.74z M58.638,99.237h4.479h0.016v1.984h-0.016h-4.479V99.237L58.638,99.237z
						 M48.912,99.237h1.431v1.984h-1.419L48.912,99.237L48.912,99.237z"/>
				</g>
			</g>
		</g>
		<g>
			<linearGradient id="SVGID_6_" gradientUnits="userSpaceOnUse" x1="58.6499" y1="22.4146" x2="58.6499" y2="90.291">
				<stop  offset="0" style="stop-color:#FFFFFF"/>
				<stop  offset="0.4898" style="stop-color:#FFDB9C"/>
				<stop  offset="1" style="stop-color:#FDBB30"/>
			</linearGradient>
			<path fill="url(#SVGID_6_)" d="M24.138,63.965c0.015,1.389,0.083,2.761,0.189,4.119c3.364,1.502,7.749,2.645,13.194,2.518
				l-6.793-5.808C30.729,64.793,27.532,65.029,24.138,63.965z M41.472,19.534c-4.506,4.623-8.334,10.15-11.235,16.322
				c3.12,0.064,12.104,1.555,11.091,16.76l4.637,11.493l-3.149,1.392L37.267,49.45c0,0-5.78-2.412-8.586-10.001
				c-2.162,5.443-3.621,11.312-4.229,17.452c3.395-0.975,10.306-2.126,10.379,4.623l5.926,6.319l-1.468,2.673
				c3.096-0.223,6.512-0.851,10.256-2.039c0.427-0.136,0.846-0.271,1.26-0.4l0.118-18.226C43.245,42.848,41.76,25.537,41.472,19.534
				z M86.575,64.793l-0.058,0.048c1.961,0.953,4.078,2.161,6.433,3.652c0.124-1.49,0.197-3.001,0.212-4.529
				C89.77,65.029,86.575,64.793,86.575,64.793z M87.067,35.856c-2.903-6.172-6.73-11.699-11.234-16.322
				c-0.289,6.003-1.774,23.314-9.455,30.318l0.086,13.418c2.034-0.516,3.893-0.889,5.656-1.099l3.854-9.555
				C74.964,37.411,83.945,35.92,87.067,35.856z M92.848,56.901c-0.606-6.14-2.065-12.009-4.227-17.452
				c-2.805,7.589-8.586,10.001-8.586,10.001l-4.333,12.532c1.865,0.037,3.68,0.301,5.563,0.826l1.205-1.284
				C82.544,54.774,89.456,55.926,92.848,56.901z M56.267,52.947L51.553,59.1l3.848-0.288v7.788c2.504-0.805,4.757-1.525,6.827-2.146
				v-9.746l5.001-7.725L56.267,52.947z"/>
		</g>
	</g>
</g>
</svg>
