<?xml version="1.0" encoding="utf-8"?>
<!-- Generator: Adobe Illustrator 16.2.1, SVG Export Plug-In . SVG Version: 6.00 Build 0)  -->
<!DOCTYPE svg PUBLIC "-//W3C//DTD SVG 1.1//EN" "http://www.w3.org/Graphics/SVG/1.1/DTD/svg11.dtd">
<svg version="1.1" id="Layer_1" xmlns="http://www.w3.org/2000/svg" xmlns:xlink="http://www.w3.org/1999/xlink" x="0px" y="0px"
	 width="612px" height="792px" viewBox="0 0 612 792" enable-background="new 0 0 612 792" xml:space="preserve">
<g>
	<polygon fill="#D5641C" points="436.441,454.33 426,457.166 428.785,467.29 440.014,467.29 	"/>
	<polygon fill="#D5641C" points="432.463,372.978 418.111,426.658 428.568,429.519 443.654,372.981 	"/>
	<polygon fill="#FAAA44" points="369.957,379.991 318.631,345.472 318.484,292.896 341.344,250.183 337.318,245.837 
		279.633,292.038 295.945,306.045 295.945,345.485 244.549,379.937 278.722,469.996 250.988,542.961 274.143,568.542 
		284.104,531.378 294.561,534.16 283.615,575.213 295.499,586.932 319.034,586.985 329.068,577.144 317.833,534.296 
		328.291,531.514 337.975,568.449 363.41,542.854 335.82,470.019 	"/>
	<polygon fill="#D5641C" points="284.159,531.217 274.143,568.542 285.332,568.529 294.614,533.999 	"/>
	<polygon fill="#D5641C" points="328.229,531.54 337.975,568.449 326.771,568.423 317.771,534.32 	"/>
	<polygon fill="#FAAA44" points="443.639,372.952 428.553,429.408 418.17,426.642 432.43,372.983 404.016,298.178 391.014,347.144 
		380.557,344.363 392.826,298.181 323.785,116.171 312.868,116.16 312.945,253.452 337.297,233.973 351.525,250.223 
		329.404,292.843 329.377,339.797 383.236,375.751 347.393,470.008 372.158,535.233 407.307,500.22 397.793,465.803 
		408.234,462.967 416.215,491.499 431.238,476.582 426.023,457.195 436.463,454.359 440.043,467.318 467.387,440.275 
		467.391,435.849 	"/>
	<polygon fill="#D5641C" points="408.273,463.004 397.83,465.84 404.865,491.259 416.053,491.259 	"/>
	<polygon fill="#D5641C" points="392.842,298.122 380.557,344.363 391.014,347.144 404.031,298.129 	"/>
	<polygon fill="#FAAA44" points="221.672,297.967 234.105,344.031 223.647,346.814 210.484,297.964 182.069,372.77 196.331,426.428 
		185.947,429.194 170.861,372.739 147.109,435.634 147.113,440.063 174.458,467.104 178.035,454.146 188.478,456.981 
		183.26,476.366 198.286,491.285 206.264,462.753 216.707,465.587 207.194,500.006 242.343,535.02 267.106,469.794 231.262,375.536 
		282.375,341.326 283.814,310.622 263.776,292.091 301.569,260.856 301.569,116.163 290.628,116.159 	"/>
	<polygon fill="#D5641C" points="206.228,462.79 216.671,465.624 209.636,491.044 198.447,491.044 	"/>
	<polygon fill="#D5641C" points="178.058,454.117 188.501,456.952 185.715,467.076 174.486,467.076 	"/>
	<polygon fill="#D5641C" points="221.737,297.827 234.105,344.031 223.647,346.814 210.548,297.832 	"/>
	<polygon fill="#D5641C" points="182.117,372.602 196.468,426.282 186.011,429.143 170.924,372.607 	"/>
	<polygon fill="#D5641C" points="383.172,375.75 329.377,339.797 329.404,292.843 351.525,250.223 341.344,250.183 318.484,292.896 
		318.631,345.472 370.004,379.955 335.816,470.047 360.502,535.248 372.158,535.233 347.389,470.047 379.232,386.134 	"/>
	<polygon fill="#D5641C" points="295.945,306.045 279.713,292.064 263.776,292.091 283.814,310.622 282.375,341.326 
		231.262,375.536 235.277,386.028 267.12,469.94 242.352,535.128 254.007,535.141 278.735,470.047 244.547,379.955 295.945,345.485 
			"/>
</g>
<g>
	<path fill="#D5641C" d="M56.389,641.903c0.367,0.872,0.727,1.752,1.082,2.637c0.354-0.91,0.721-1.809,1.1-2.693
		c0.379-0.886,0.784-1.732,1.214-2.543l16.239-30.39c0.202-0.38,0.411-0.684,0.626-0.911c0.214-0.228,0.455-0.392,0.721-0.493
		c0.266-0.101,0.562-0.164,0.892-0.189c0.329-0.025,0.721-0.038,1.176-0.038h7.702v54.862h-8.992v-35.437
		c0-0.657,0.019-1.379,0.057-2.163c0.038-0.783,0.095-1.58,0.171-2.39l-16.58,31.111c-0.379,0.708-0.873,1.259-1.479,1.65
		c-0.607,0.393-1.315,0.588-2.125,0.588h-1.404c-0.81,0-1.518-0.195-2.125-0.588c-0.607-0.392-1.1-0.942-1.479-1.65l-16.808-31.226
		c0.101,0.835,0.171,1.65,0.209,2.447c0.038,0.797,0.057,1.537,0.057,2.22v35.437h-8.992v-54.862h7.702
		c0.456,0,0.847,0.013,1.176,0.038c0.329,0.025,0.626,0.089,0.892,0.189c0.266,0.102,0.512,0.266,0.74,0.493
		s0.442,0.531,0.645,0.911l16.391,30.466C55.624,640.189,56.022,641.03,56.389,641.903z"/>
	<path fill="#D5641C" d="M109.715,662.145H99.471v-54.862h10.244V662.145z"/>
	<path fill="#D5641C" d="M151.449,617.261c-0.278,0.557-0.601,0.948-0.967,1.176c-0.367,0.228-0.803,0.342-1.309,0.342
		c-0.506,0-1.075-0.195-1.708-0.588s-1.379-0.828-2.238-1.31c-0.86-0.479-1.866-0.916-3.016-1.309
		c-1.151-0.392-2.511-0.588-4.079-0.588c-1.417,0-2.65,0.171-3.699,0.512c-1.05,0.342-1.935,0.816-2.656,1.423
		c-0.721,0.607-1.258,1.335-1.612,2.182c-0.354,0.848-0.531,1.777-0.531,2.789c0,1.29,0.36,2.365,1.082,3.225
		c0.721,0.86,1.675,1.594,2.864,2.2c1.188,0.607,2.542,1.151,4.06,1.632c1.518,0.48,3.067,0.993,4.648,1.537
		c1.581,0.544,3.13,1.176,4.648,1.896c1.518,0.721,2.87,1.632,4.06,2.731c1.188,1.101,2.144,2.447,2.864,4.041
		c0.721,1.594,1.082,3.528,1.082,5.805c0,2.479-0.424,4.8-1.271,6.963c-0.848,2.162-2.087,4.047-3.718,5.652
		c-1.631,1.607-3.624,2.871-5.976,3.795c-2.353,0.923-5.046,1.385-8.082,1.385c-1.745,0-3.466-0.171-5.16-0.513
		c-1.695-0.342-3.32-0.828-4.875-1.461c-1.556-0.632-3.011-1.391-4.363-2.276c-1.354-0.885-2.561-1.871-3.624-2.959l2.959-4.895
		c0.278-0.354,0.613-0.651,1.005-0.892c0.392-0.24,0.828-0.36,1.309-0.36c0.632,0,1.315,0.26,2.049,0.777
		c0.733,0.52,1.6,1.095,2.599,1.727c0.999,0.633,2.175,1.208,3.528,1.727c1.353,0.519,2.979,0.777,4.875,0.777
		c2.908,0,5.16-0.688,6.753-2.067c1.593-1.378,2.39-3.357,2.39-5.938c0-1.442-0.36-2.618-1.081-3.528
		c-0.721-0.911-1.676-1.676-2.865-2.296c-1.189-0.619-2.542-1.145-4.06-1.574s-3.061-0.897-4.629-1.404
		c-1.568-0.506-3.111-1.112-4.629-1.821c-1.518-0.708-2.871-1.631-4.06-2.77c-1.189-1.138-2.144-2.561-2.864-4.269
		c-0.721-1.707-1.082-3.812-1.082-6.316c0-1.998,0.398-3.946,1.195-5.843c0.796-1.897,1.96-3.579,3.49-5.047
		c1.53-1.467,3.408-2.643,5.634-3.528c2.226-0.885,4.768-1.328,7.626-1.328c3.238,0,6.223,0.507,8.954,1.518
		c2.732,1.013,5.059,2.429,6.981,4.25L151.449,617.261z"/>
	<path fill="#D5641C" d="M192.159,617.261c-0.278,0.557-0.601,0.948-0.967,1.176c-0.367,0.228-0.803,0.342-1.309,0.342
		c-0.506,0-1.075-0.195-1.708-0.588s-1.379-0.828-2.238-1.31c-0.86-0.479-1.866-0.916-3.016-1.309
		c-1.151-0.392-2.511-0.588-4.079-0.588c-1.417,0-2.65,0.171-3.699,0.512c-1.05,0.342-1.935,0.816-2.656,1.423
		c-0.721,0.607-1.258,1.335-1.612,2.182c-0.354,0.848-0.531,1.777-0.531,2.789c0,1.29,0.36,2.365,1.082,3.225
		c0.721,0.86,1.675,1.594,2.864,2.2c1.188,0.607,2.542,1.151,4.06,1.632c1.518,0.48,3.067,0.993,4.648,1.537
		c1.581,0.544,3.13,1.176,4.648,1.896c1.518,0.721,2.87,1.632,4.06,2.731c1.188,1.101,2.144,2.447,2.864,4.041
		c0.721,1.594,1.082,3.528,1.082,5.805c0,2.479-0.424,4.8-1.271,6.963c-0.848,2.162-2.087,4.047-3.718,5.652
		c-1.631,1.607-3.624,2.871-5.976,3.795c-2.353,0.923-5.046,1.385-8.082,1.385c-1.745,0-3.466-0.171-5.16-0.513
		c-1.695-0.342-3.32-0.828-4.875-1.461c-1.556-0.632-3.011-1.391-4.363-2.276c-1.354-0.885-2.561-1.871-3.624-2.959l2.959-4.895
		c0.278-0.354,0.613-0.651,1.005-0.892c0.392-0.24,0.828-0.36,1.309-0.36c0.632,0,1.315,0.26,2.049,0.777
		c0.733,0.52,1.6,1.095,2.599,1.727c0.999,0.633,2.175,1.208,3.528,1.727c1.353,0.519,2.979,0.777,4.875,0.777
		c2.908,0,5.16-0.688,6.753-2.067c1.593-1.378,2.39-3.357,2.39-5.938c0-1.442-0.36-2.618-1.081-3.528
		c-0.721-0.911-1.676-1.676-2.865-2.296c-1.189-0.619-2.542-1.145-4.06-1.574s-3.061-0.897-4.629-1.404
		c-1.568-0.506-3.111-1.112-4.629-1.821c-1.518-0.708-2.871-1.631-4.06-2.77c-1.189-1.138-2.144-2.561-2.864-4.269
		c-0.721-1.707-1.082-3.812-1.082-6.316c0-1.998,0.398-3.946,1.195-5.843c0.796-1.897,1.96-3.579,3.49-5.047
		c1.53-1.467,3.408-2.643,5.634-3.528c2.226-0.885,4.768-1.328,7.626-1.328c3.238,0,6.223,0.507,8.954,1.518
		c2.732,1.013,5.059,2.429,6.981,4.25L192.159,617.261z"/>
	<path fill="#D5641C" d="M214.962,662.145h-10.244v-54.862h10.244V662.145z"/>
	<path fill="#D5641C" d="M279.916,634.713c0,4.022-0.67,7.747-2.011,11.174c-1.341,3.428-3.225,6.394-5.653,8.897
		s-5.35,4.458-8.764,5.861c-3.415,1.404-7.196,2.106-11.344,2.106c-4.148,0-7.936-0.702-11.363-2.106
		c-3.428-1.403-6.362-3.357-8.802-5.861c-2.441-2.504-4.332-5.47-5.672-8.897c-1.341-3.427-2.011-7.151-2.011-11.174
		c0-4.021,0.67-7.745,2.011-11.173c1.34-3.428,3.231-6.394,5.672-8.897c2.44-2.504,5.375-4.458,8.802-5.861
		c3.427-1.404,7.215-2.106,11.363-2.106c4.148,0,7.93,0.709,11.344,2.125c3.415,1.417,6.336,3.371,8.764,5.862
		s4.312,5.45,5.653,8.878C279.246,626.968,279.916,630.691,279.916,634.713z M269.444,634.713c0-3.01-0.398-5.71-1.195-8.1
		c-0.797-2.391-1.942-4.42-3.434-6.09c-1.493-1.669-3.308-2.946-5.445-3.832c-2.138-0.885-4.547-1.328-7.228-1.328
		c-2.682,0-5.097,0.443-7.247,1.328c-2.15,0.886-3.978,2.163-5.482,3.832c-1.505,1.67-2.663,3.699-3.472,6.09
		c-0.81,2.39-1.214,5.09-1.214,8.1c0,3.011,0.404,5.711,1.214,8.101c0.809,2.391,1.966,4.414,3.472,6.07
		c1.504,1.657,3.332,2.929,5.482,3.813c2.149,0.886,4.565,1.328,7.247,1.328c2.681,0,5.09-0.442,7.228-1.328
		c2.137-0.885,3.952-2.156,5.445-3.813c1.492-1.656,2.637-3.68,3.434-6.07C269.046,640.424,269.444,637.724,269.444,634.713z"/>
	<path fill="#D5641C" d="M294.447,607.339c0.303,0.038,0.575,0.114,0.815,0.228c0.24,0.114,0.475,0.279,0.702,0.493
		c0.228,0.216,0.48,0.5,0.759,0.854l28.798,36.688c-0.102-0.886-0.172-1.751-0.209-2.6c-0.037-0.847-0.057-1.637-0.057-2.371v-33.35
		h8.992v54.862h-5.273c-0.811,0-1.48-0.126-2.012-0.38c-0.531-0.252-1.051-0.707-1.555-1.365l-28.685-36.537
		c0.076,0.81,0.133,1.612,0.171,2.409c0.038,0.797,0.057,1.524,0.057,2.182v33.691h-8.992v-54.862h5.35
		C293.764,607.282,294.144,607.301,294.447,607.339z"/>
	<path fill="#FAAA44" d="M379.928,607.282v8.119h-24.32v16.239h20.527v8.157h-20.527v22.347h-10.281v-54.862H379.928z"/>
	<path fill="#FAAA44" d="M440.557,634.713c0,4.022-0.67,7.747-2.012,11.174c-1.34,3.428-3.225,6.394-5.652,8.897
		s-5.35,4.458-8.766,5.861c-3.414,1.404-7.195,2.106-11.344,2.106s-7.936-0.702-11.363-2.106c-3.428-1.403-6.361-3.357-8.803-5.861
		c-2.439-2.504-4.33-5.47-5.672-8.897c-1.34-3.427-2.01-7.151-2.01-11.174c0-4.021,0.67-7.745,2.01-11.173
		c1.342-3.428,3.232-6.394,5.672-8.897c2.441-2.504,5.375-4.458,8.803-5.861c3.428-1.404,7.215-2.106,11.363-2.106
		s7.93,0.709,11.344,2.125c3.416,1.417,6.338,3.371,8.766,5.862s4.312,5.45,5.652,8.878
		C439.887,626.968,440.557,630.691,440.557,634.713z M430.084,634.713c0-3.01-0.398-5.71-1.195-8.1
		c-0.797-2.391-1.941-4.42-3.434-6.09c-1.492-1.669-3.307-2.946-5.443-3.832c-2.139-0.885-4.547-1.328-7.229-1.328
		s-5.098,0.443-7.246,1.328c-2.15,0.886-3.979,2.163-5.482,3.832c-1.506,1.67-2.662,3.699-3.473,6.09
		c-0.809,2.39-1.213,5.09-1.213,8.1c0,3.011,0.404,5.711,1.213,8.101c0.811,2.391,1.967,4.414,3.473,6.07
		c1.504,1.657,3.332,2.929,5.482,3.813c2.148,0.886,4.564,1.328,7.246,1.328s5.09-0.442,7.229-1.328
		c2.137-0.885,3.951-2.156,5.443-3.813c1.492-1.656,2.637-3.68,3.434-6.07C429.686,640.424,430.084,637.724,430.084,634.713z"/>
	<path fill="#FAAA44" d="M486.312,649.207c0.557,0,1.037,0.215,1.441,0.645l4.021,4.363c-2.225,2.757-4.963,4.869-8.213,6.336
		c-3.252,1.468-7.152,2.201-11.705,2.201c-4.072,0-7.734-0.695-10.984-2.087c-3.25-1.391-6.027-3.326-8.328-5.805
		c-2.301-2.479-4.066-5.438-5.293-8.879c-1.227-3.439-1.84-7.195-1.84-11.269c0-4.122,0.684-7.897,2.049-11.325
		c1.365-3.427,3.287-6.38,5.768-8.858c2.479-2.479,5.443-4.407,8.896-5.786s7.266-2.068,11.439-2.068
		c4.072,0,7.633,0.651,10.68,1.954c3.049,1.303,5.66,3.029,7.836,5.179l-3.416,4.743c-0.201,0.304-0.461,0.569-0.777,0.797
		s-0.752,0.341-1.309,0.341c-0.582,0-1.176-0.228-1.783-0.683s-1.379-0.948-2.314-1.479s-2.119-1.024-3.547-1.479
		c-1.43-0.456-3.244-0.684-5.445-0.684c-2.58,0-4.951,0.449-7.113,1.348c-2.162,0.897-4.021,2.181-5.578,3.851
		c-1.555,1.669-2.77,3.699-3.643,6.09c-0.871,2.39-1.309,5.078-1.309,8.062c0,3.087,0.438,5.831,1.309,8.233
		c0.873,2.403,2.055,4.427,3.549,6.07c1.492,1.645,3.25,2.903,5.273,3.775c2.023,0.873,4.197,1.31,6.525,1.31
		c1.391,0,2.65-0.076,3.775-0.229c1.125-0.151,2.162-0.392,3.111-0.721c0.947-0.328,1.846-0.752,2.693-1.271
		s1.689-1.157,2.523-1.916c0.252-0.228,0.518-0.411,0.797-0.551C485.68,649.276,485.984,649.207,486.312,649.207z"/>
	<path fill="#FAAA44" d="M521.559,653.911c1.973,0,3.738-0.328,5.293-0.986c1.555-0.657,2.871-1.58,3.945-2.77
		c1.076-1.188,1.898-2.631,2.467-4.325s0.854-3.592,0.854-5.691v-32.856h10.207v32.856c0,3.263-0.525,6.279-1.576,9.049
		c-1.049,2.77-2.561,5.16-4.533,7.171s-4.363,3.58-7.17,4.705c-2.809,1.125-5.971,1.688-9.486,1.688s-6.678-0.563-9.484-1.688
		c-2.809-1.125-5.193-2.694-7.152-4.705c-1.961-2.011-3.465-4.401-4.516-7.171c-1.049-2.77-1.574-5.786-1.574-9.049v-32.856h10.207
		v32.818c0,2.101,0.283,3.997,0.854,5.691c0.568,1.695,1.385,3.144,2.447,4.345s2.371,2.131,3.926,2.788
		C517.822,653.583,519.586,653.911,521.559,653.911z"/>
	<path fill="#FAAA44" d="M584.123,617.261c-0.279,0.557-0.602,0.948-0.969,1.176c-0.365,0.228-0.803,0.342-1.309,0.342
		s-1.074-0.195-1.707-0.588s-1.379-0.828-2.238-1.31c-0.859-0.479-1.865-0.916-3.016-1.309c-1.152-0.392-2.512-0.588-4.08-0.588
		c-1.416,0-2.648,0.171-3.699,0.512c-1.049,0.342-1.934,0.816-2.654,1.423c-0.723,0.607-1.26,1.335-1.613,2.182
		c-0.355,0.848-0.531,1.777-0.531,2.789c0,1.29,0.361,2.365,1.082,3.225c0.721,0.86,1.674,1.594,2.863,2.2
		c1.189,0.607,2.543,1.151,4.061,1.632s3.066,0.993,4.646,1.537c1.582,0.544,3.131,1.176,4.648,1.896s2.871,1.632,4.061,2.731
		c1.188,1.101,2.143,2.447,2.863,4.041s1.082,3.528,1.082,5.805c0,2.479-0.424,4.8-1.271,6.963
		c-0.848,2.162-2.086,4.047-3.719,5.652c-1.631,1.607-3.623,2.871-5.975,3.795c-2.352,0.923-5.047,1.385-8.082,1.385
		c-1.744,0-3.465-0.171-5.16-0.513c-1.693-0.342-3.318-0.828-4.875-1.461c-1.555-0.632-3.01-1.391-4.363-2.276
		c-1.354-0.885-2.561-1.871-3.623-2.959l2.959-4.895c0.279-0.354,0.613-0.651,1.006-0.892s0.828-0.36,1.309-0.36
		c0.633,0,1.314,0.26,2.049,0.777c0.734,0.52,1.6,1.095,2.6,1.727c0.998,0.633,2.176,1.208,3.527,1.727
		c1.354,0.519,2.979,0.777,4.877,0.777c2.908,0,5.16-0.688,6.752-2.067c1.594-1.378,2.391-3.357,2.391-5.938
		c0-1.442-0.359-2.618-1.08-3.528c-0.721-0.911-1.676-1.676-2.865-2.296c-1.189-0.619-2.543-1.145-4.061-1.574
		s-3.061-0.897-4.627-1.404c-1.57-0.506-3.111-1.112-4.629-1.821c-1.518-0.708-2.871-1.631-4.061-2.77
		c-1.189-1.138-2.145-2.561-2.865-4.269c-0.721-1.707-1.08-3.812-1.08-6.316c0-1.998,0.398-3.946,1.195-5.843
		c0.797-1.897,1.959-3.579,3.49-5.047c1.529-1.467,3.408-2.643,5.635-3.528c2.225-0.885,4.768-1.328,7.625-1.328
		c3.238,0,6.223,0.507,8.955,1.518c2.73,1.013,5.059,2.429,6.98,4.25L584.123,617.261z"/>
</g>
</svg>
