<?xml version="1.0" encoding="utf-8"?>
<!-- Generator: Adobe Illustrator 16.0.0, SVG Export Plug-In . SVG Version: 6.00 Build 0)  -->
<!DOCTYPE svg PUBLIC "-//W3C//DTD SVG 1.1//EN" "http://www.w3.org/Graphics/SVG/1.1/DTD/svg11.dtd">
<svg version="1.1" id="Layer_1" xmlns="http://www.w3.org/2000/svg" xmlns:xlink="http://www.w3.org/1999/xlink" x="0px" y="0px"
	 width="612px" height="792px" viewBox="0 0 612 792" enable-background="new 0 0 612 792" xml:space="preserve">
<g>
	<g>
		<path fill="#5C5D60" enable-background="new    " d="M307.484,159.808l-67.645,1.534c0,0-34.7-2.553-49.443,26.575
			c-14.74,29.124-55.512,211.025-55.512,211.025s-8.241,39.349-2.606,57.231c5.639,17.886,16.92,35.768,37.736,56.209
			c20.82,20.434,94.537,94.009,94.537,94.009s26.458,26.072,42.069,25.043c15.623-1.021,29.487-10.726,62.882-44.451l88.464-90.456
			c0,0,28.628-22.468,24.72-69.99c0,0-5.197-31.159-11.281-58.763c-6.061-27.588-33.82-148.18-40.744-165.551
			c-6.952-17.371-19.089-39.349-49.447-40.875L307.484,159.808z"/>
		<path fill="#5C5D60" d="M239.899,155.856c-3.395-0.207-38.639-1.55-54.403,29.58c-14.874,29.4-54.29,204.851-55.965,212.311
			c-0.359,1.734-8.478,41.048-2.476,60.086c6.242,19.813,18.679,38.397,39.116,58.461c20.568,20.185,93.776,93.255,94.51,93.992
			c2.914,2.859,28.741,27.776,46.304,26.633c17.255-1.14,32.149-11.471,66.418-46.072c0,0,87.877-89.841,88.287-90.263
			c3.005-2.468,26.86-23.41,26.86-65.152c0-3.009-0.13-6.128-0.397-9.338l-0.013-0.236l-0.031-0.229
			c-0.047-0.308-5.296-31.612-11.337-59.033c-5.508-25.031-33.757-148.209-41.028-166.409c-7.271-18.222-20.812-42.636-54.25-44.323
			C381.493,155.864,240.286,155.839,239.899,155.856z M239.958,166.83c0,0,67.305-1.522,67.53-1.532
			c0.237,0.006,73.607,1.536,73.607,1.536c26.529,1.337,37.369,19.672,44.463,37.422c6.541,16.364,33.276,131.879,40.492,164.7
			c5.701,25.914,10.697,55.301,11.171,58.183c0.244,2.863,0.347,5.623,0.347,8.27c0,38-22.007,56.028-23.004,56.824l-0.269,0.213
			l-88.709,90.692c-31.975,32.283-45.287,41.896-59.325,42.819c-9.558,0.631-28.296-14.065-37.858-23.466
			c-0.71-0.714-73.95-73.816-94.545-94.028c-19.101-18.762-30.65-35.891-36.336-53.942c-4.27-13.529,0.521-43.903,2.737-54.459
			c0.39-1.724,40.764-181.481,55.031-209.669c12.874-25.416,42.889-23.665,44.159-23.58l0.252,0.021L239.958,166.83z"/>
	</g>
	<radialGradient id="SVGID_1_" cx="219.835" cy="137.6348" r="213.7151" gradientUnits="userSpaceOnUse">
		<stop  offset="0" style="stop-color:#FFFFFF"/>
		<stop  offset="0.4472" style="stop-color:#9FA1A4"/>
		<stop  offset="1" style="stop-color:#000000"/>
	</radialGradient>
	<path fill="url(#SVGID_1_)" enable-background="new    " d="M239.84,161.341c0,0-34.7-2.553-49.443,26.575
		c-14.74,29.124-55.512,211.025-55.512,211.025s-8.241,39.349-2.606,57.231c5.639,17.886,16.92,35.768,37.736,56.209
		c20.82,20.434,94.537,94.009,94.537,94.009s26.458,26.072,42.069,25.043c15.623-1.021,29.487-10.726,62.882-44.451l88.464-90.456
		c0,0,28.628-22.468,24.72-69.99c0,0-5.197-31.159-11.281-58.763c-6.061-27.588-33.82-148.18-40.744-165.551
		c-6.952-17.371-19.089-39.349-49.447-40.875L239.84,161.341z"/>
	<path fill="#B3B5B8" d="M239.796,159.518c-0.185-0.027-35.906-2.303-51.032,27.568c-14.676,28.998-53.989,204.019-55.661,211.463
		c-0.351,1.65-8.285,40.041-2.555,58.172c6.053,19.238,18.186,37.317,38.186,56.959c20.575,20.212,93.799,93.283,94.525,94.008
		c1.128,1.093,27.243,26.645,43.485,25.576c16.183-1.062,30.548-11.159,64.061-44.988c0,0,88.275-90.254,88.405-90.393
		c1.778-1.411,25.678-21.289,25.678-62.439c0-2.906-0.118-5.927-0.366-9.058c-0.075-0.457-5.308-31.671-11.317-58.999
		c-5.504-24.982-33.666-147.854-40.843-165.845c-7.5-18.744-20.066-40.455-51.06-42.024H239.796z M381.174,163.173
		c28.86,1.459,40.693,21.995,47.775,39.729c6.613,16.551,33.442,132.375,40.67,165.267c5.997,27.239,11.218,58.359,11.27,58.67
		c0.236,2.922,0.351,5.737,0.351,8.47c0,40.03-24.14,59.585-24.408,59.79l-0.091,0.07l-88.551,90.539
		c-32.736,33.067-46.58,42.909-61.69,43.911c-14.605,0.95-40.401-24.274-40.666-24.522c-0.726-0.729-73.95-73.816-94.529-94.021
		c-19.558-19.199-31.396-36.821-37.271-55.457c-5.434-17.216,2.567-55.913,2.649-56.304c0.395-1.778,40.875-181.986,55.35-210.574
		c14.002-27.665,47.341-25.603,47.677-25.573L381.174,163.173z"/>
	<radialGradient id="SVGID_2_" cx="298.105" cy="692.2168" r="250.2862" gradientUnits="userSpaceOnUse">
		<stop  offset="0" style="stop-color:#FFFFFF"/>
		<stop  offset="0.4472" style="stop-color:#9FA1A4"/>
		<stop  offset="1" style="stop-color:#000000"/>
	</radialGradient>
	<path fill="url(#SVGID_2_)" d="M136.719,451.843c5.5,17.425,16.486,34.846,36.774,54.771
		c20.284,19.929,92.131,91.639,92.131,91.639s25.78,25.39,41.005,24.393c15.197-1.014,28.733-10.457,61.276-43.312l86.217-88.153
		c0,0,27.895-21.912,24.089-68.229"/>
	<g opacity="0.58">
		<g>
			<path enable-background="new    " d="M345.887,520.797c-19.175-28.537-11.569-44.045-11.569-44.045h-0.312l20.781-53.288
				l-33.845-38.994v-51.35l20.193-31.19l-44.262,24.079l-19.034,24.844l15.536-1.161v33.507l-34.952,40.265l21.798,55.883
				c1.286,5.532,2.216,19.716-12.393,41.442c-19.188,28.505-17.662,46.915-17.662,46.915l18.383,17.508l16.723-63.401l11.486,1.817
				l-16.218,73.012l9.814,9.337c0,0,7.614,7.22,16.14,6.502l0.729,0.008c8.521,0.714,16.139-6.498,16.139-6.498l10.103-9.629
				l-16.155-72.731l11.482-1.817l16.664,63.138l18.088-17.236C363.545,567.712,365.074,549.313,345.887,520.797z"/>
			<path d="M338.943,297.914l-44.258,24.075c-0.568,0.306-1.053,0.722-1.447,1.236l-19.03,24.854
				c-1.092,1.427-1.246,3.363-0.391,4.955c0.856,1.585,2.567,2.518,4.369,2.383c0,0,6.017-0.455,10.607-0.796
				c0,6.741,0,24.274,0,26.875c-2.09,2.417-33.824,38.968-33.824,38.968c-0.733,0.845-1.12,1.909-1.12,3.001
				c0,0.557,0.106,1.132,0.312,1.66c0,0,21.34,54.715,21.648,55.504c0.256,1.19,0.5,2.866,0.5,5.059
				c0,6.526-2.141,17.457-12.283,32.547c-17.133,25.461-18.462,43.505-18.462,48.489c0,0.793,0.028,1.25,0.036,1.364
				c0.094,1.128,0.599,2.153,1.408,2.934l18.383,17.496c1.179,1.115,2.847,1.533,4.396,1.092c1.562-0.438,2.76-1.676,3.182-3.226
				c0,0,13.829-52.4,15.674-59.415c1.199,0.197,1.34,0.209,2.602,0.43c-1.845,8.288-15.169,68.248-15.169,68.248
				c-0.075,0.327-0.11,0.662-0.11,0.994c0,1.229,0.508,2.429,1.423,3.3l9.807,9.35c0.386,0.354,9.014,8.41,19.286,7.756
				c0.083,0,0.678,0,0.678,0c-0.099,0-0.221,0-0.323-0.004c10.445,0.875,19.29-7.39,19.669-7.736l10.118-9.637
				c0.91-0.868,1.415-2.078,1.415-3.309c0-0.331-0.027-0.67-0.095-0.99c0,0-13.265-59.684-15.118-67.972
				c1.266-0.221,1.412-0.232,2.599-0.43c1.854,7.015,15.615,59.136,15.615,59.136c0.414,1.569,1.612,2.799,3.178,3.237
				c1.542,0.438,3.218,0.02,4.396-1.097l18.084-17.204c0.812-0.784,1.312-1.825,1.403-2.949c0.071-0.816,1.432-20.347-18.414-49.846
				l0,0c-10.154-15.102-12.244-26.135-12.244-32.645c0-4.495,0.99-6.838,1.025-6.901c0.241-0.544,0.335-1.131,0.355-1.723
				c1.068-2.721,20.22-51.853,20.22-51.853c0.217-0.528,0.315-1.104,0.315-1.66c0-1.092-0.39-2.156-1.131-3.001
				c0,0-30.619-35.289-32.717-37.702c0-3.103,0-45.815,0-48.286c1.36-2.111,19.464-30.066,19.464-30.066
				c0.488-0.753,0.726-1.623,0.726-2.479c0-1.127-0.406-2.242-1.207-3.105C343.071,297.285,340.78,296.917,338.943,297.914z
				 M327.523,314.535c-5.213,8.046-10.422,16.1-10.422,16.1c-0.469,0.742-0.725,1.605-0.725,2.486v51.35
				c0,1.098,0.397,2.171,1.107,2.997c0,0,28.797,33.169,32.038,36.912c-1.813,4.661-19.778,50.709-19.778,50.709
				c-0.209,0.536-0.304,1.104-0.304,1.664c0,0.039,0.027,0.079,0.027,0.118c-0.54,1.786-1.163,4.641-1.163,8.75
				c0,8.288,2.587,21.072,13.797,37.728l0,0c14.897,22.165,16.691,37.729,16.865,42.421c-1.617,1.542-6.337,6.033-11.061,10.524
				c-3.057-11.621-14.688-55.65-14.688-55.65c-0.596-2.267-2.819-3.706-5.142-3.348l-11.479,1.818
				c-1.242,0.193-2.351,0.895-3.068,1.943c-0.524,0.754-0.796,1.648-0.796,2.571c0,0.323,0.035,0.658,0.11,0.985
				c0,0,14.565,65.508,15.599,70.208c-2.468,2.37-8.245,7.854-8.245,7.854c-1.707,1.598-7.342,5.698-12.582,5.245
				c-0.119-0.004-0.229-0.004-0.336-0.012l-0.729-0.017c-0.154,0-0.288,0.017-0.434,0.024c-5.252,0.445-10.895-3.655-12.626-5.272
				c0,0-5.469-5.201-7.921-7.535c1.037-4.704,15.666-70.496,15.666-70.496c0.071-0.327,0.103-0.662,0.103-0.985
				c0-0.923-0.272-1.817-0.785-2.571c-0.702-1.049-1.822-1.75-3.068-1.943l-11.486-1.818c-2.323-0.358-4.539,1.081-5.134,3.348
				c0,0-11.699,44.29-14.771,55.93c-4.799-4.602-9.712-9.254-11.34-10.804c0.177-4.704,1.952-20.26,16.869-42.433
				c11.14-16.585,13.853-29.23,13.853-37.602c0-3.036-0.351-5.505-0.792-7.405c-0.047-0.217-0.115-0.426-0.201-0.631
				c0,0-18.959-48.646-20.789-53.319c3.261-3.75,33.126-38.182,33.126-38.182c0.729-0.828,1.128-1.896,1.128-2.999v-33.507
				c0-1.276-0.532-2.492-1.463-3.354c-0.938-0.865-2.185-1.303-3.45-1.207c0,0-2.942,0.217-5.363,0.395
				c5.382-7.015,11.498-15.008,12.231-15.97C300.955,328.984,314.847,321.425,327.523,314.535z M306.881,617.029
				c-0.134,0.012-0.268,0.016-0.386,0.016C306.621,617.041,306.747,617.041,306.881,617.029z"/>
		</g>
		<g>
			<g>
				<path d="M248.018,421.97l26.79-32.616l0.489-75.843c-31.001-28.282-36.999-98.18-38.162-122.419
					c-18.193,18.667-33.65,40.985-45.366,65.906c12.598,0.258,48.872,6.28,44.782,67.674l18.722,46.405l-12.717,5.621
					l-22.401-64.812c0,0-23.339-9.737-34.668-40.382c-8.73,21.979-14.622,45.676-17.074,70.468
					c13.707-3.938,41.612-8.586,41.908,18.667l23.927,25.516l-8.34,15.156l-32.152-27.47c0,0-12.906,0.951-26.612-3.346
					c0.142,12.61,1.207,24.917,3.135,36.841c6.621-3.467,17.24-6.55,27.05,1.403l20.875,7.109l-2.035,20.276l-22.117-10.296
					c0,0-6.613,7.452-16.289,13.553c4.519,14.487,10.362,28.17,17.405,40.862c2.125-8.193,6.029-18.663,12.618-22.621l14.542,5.804
					l6.9,11.467l-11.431,3.084c0,0,0.154,12.4-8.967,23.631c7.259,9.901,15.351,18.955,24.175,27.022
					c2.579-20.513,32.519-39.652,40.086-44.195L248.018,421.97z"/>
			</g>
			<g>
				<path d="M233.858,187.904c-18.781,19.262-34.337,41.86-46.237,67.152c-0.284,0.615-0.426,1.282-0.426,1.942
					c0,0.842,0.229,1.676,0.678,2.413c0.82,1.313,2.256,2.129,3.797,2.163c6.451,0.13,18.663,1.867,27.973,12.009
					c8.411,9.184,12.666,23.209,12.666,41.774c0,2.888-0.106,5.897-0.319,9.014c-0.004,0.101-0.004,0.201-0.004,0.302
					c0,0.585,0.106,1.167,0.331,1.708c0,0,14.31,35.484,17.054,42.306c-1.782,0.791-2.22,0.986-4.117,1.822
					c-2.796-8.085-20.772-60.115-20.772-60.115c-0.426-1.221-1.364-2.218-2.551-2.723c-0.209-0.092-21.715-9.511-32.156-37.746
					c-0.659-1.778-2.342-2.963-4.235-2.993c-1.897-0.02-3.608,1.131-4.31,2.89c-9.073,22.876-14.917,47.004-17.362,71.698
					c-0.162,1.516,0.45,2.997,1.621,3.971c1.167,0.962,2.729,1.297,4.196,0.875c13.679-3.923,24.81-3.74,30.524,0.519
					c3.663,2.723,5.473,7.24,5.552,13.803c0.008,1.144,0.45,2.246,1.227,3.076c0,0,17.933,19.126,21.66,23.095
					c-1.254,2.279-2.268,4.125-4.034,7.334c-6.431-5.487-27.89-23.822-27.89-23.822c-0.911-0.781-2.098-1.169-3.296-1.086
					c-0.11,0.008-12.263,0.811-24.909-3.152c-1.396-0.44-2.926-0.182-4.097,0.692c-1.175,0.868-1.861,2.255-1.845,3.718
					c0.138,12.616,1.21,25.248,3.194,37.525c0.229,1.447,1.155,2.701,2.472,3.359c1.309,0.65,2.855,0.646,4.16-0.031
					c8.446-4.429,15.863-4.117,22.054,0.891c0.41,0.343,0.896,0.604,1.404,0.773c0,0,12.634,4.313,17.433,5.949
					c-0.308,3.005-0.588,5.82-1.033,10.269c-6.317-2.957-16.285-7.587-16.285-7.587c-1.834-0.859-3.999-0.398-5.347,1.108
					c-0.055,0.066-6.333,7.066-15.295,12.705c-1.743,1.111-2.54,3.245-1.924,5.236c4.55,14.637,10.528,28.67,17.768,41.727
					c0.899,1.636,2.713,2.543,4.57,2.318c1.854-0.237,3.372-1.585,3.849-3.396c2.35-9.025,5.532-15.358,9.045-18.497
					c3.048,1.219,8.691,3.458,10.568,4.203c0.599,1.021,1.506,2.504,2.981,4.957c-2.792,0.749-5.583,1.51-5.583,1.51
					c-1.991,0.536-3.383,2.366-3.383,4.44v0.016c0,0.178-0.083,11.029-7.949,20.693c-0.674,0.844-1.01,1.869-1.01,2.898
					c0,0.946,0.288,1.893,0.879,2.689c7.409,10.099,15.745,19.424,24.771,27.716c1.262,1.151,3.056,1.515,4.665,0.927
					c1.609-0.596,2.749-2.034,2.965-3.734c2.35-18.65,31.979-37.298,37.906-40.839c1.416-0.848,2.212-2.366,2.212-3.932
					c0-0.56-0.099-1.144-0.331-1.691c0,0-22.2-55.346-24.057-59.971c3.008-3.659,25.07-30.528,25.07-30.528
					c0.663-0.8,1.029-1.818,1.033-2.865c0,0,0.513-75.856,0.513-75.87c0-1.283-0.548-2.51-1.502-3.377
					c-30.07-27.427-35.678-98.212-36.683-119.257c-0.091-1.82-1.246-3.415-2.945-4.056
					C237.056,186.173,235.128,186.601,233.858,187.904z M233.259,202.283c2.409,31.51,10.517,86.694,37.468,113.05
					c-0.027,3.44-0.461,69.338-0.485,72.367c-1.896,2.316-25.757,31.352-25.757,31.352c-0.686,0.832-1.033,1.877-1.033,2.918
					c0,0.563,0.098,1.144,0.323,1.691c0,0,21.1,52.59,23.643,58.919c-9.988,6.356-29.763,20.583-36.695,37.255
					c-5.746-5.745-11.167-11.857-16.163-18.407c5.272-7.752,7.015-15.488,7.543-19.869c3.292-0.899,8.316-2.26,8.316-2.26
					c1.384-0.382,2.512-1.368,3.052-2.709c0.217-0.544,0.332-1.128,0.332-1.695c0-0.832-0.233-1.645-0.667-2.366l-6.889-11.467
					c-0.521-0.848-1.293-1.518-2.22-1.885l-14.546-5.804c-1.333-0.536-2.823-0.406-4.061,0.335
					c-4.436,2.678-8.17,7.693-11.167,14.865c-4.282-8.741-7.942-17.925-11.025-27.342c5.304-3.702,9.424-7.468,11.845-9.877
					c4.432,2.062,19.176,8.919,19.176,8.919c1.336,0.619,2.898,0.561,4.184-0.169c1.286-0.733,2.137-2.047,2.287-3.529l2.035-20.268
					c0.02-0.158,0.027-0.304,0.027-0.458c0-1.939-1.242-3.69-3.103-4.333c0,0-19.302-6.569-20.335-6.929
					c-7.311-5.504-16.084-6.784-25.26-3.77c-1.1-8.04-1.786-16.168-2.074-24.356c9.006,1.987,16.711,2.107,20.13,2.017
					c2.484,2.122,30.792,26.318,30.792,26.318c1.045,0.888,2.441,1.27,3.793,1.025c1.356-0.248,2.527-1.096,3.19-2.307l8.344-15.157
					c0.378-0.692,0.564-1.447,0.564-2.203c0-1.133-0.422-2.261-1.234-3.126c0,0-20.966-22.354-22.878-24.4
					c-0.509-8.452-3.462-14.929-9.042-19.079c-8.584-6.394-21.084-5.869-31.837-3.6c2.232-17.851,6.297-35.327,12.129-52.195
					c10.493,19.791,25.264,28.74,30.488,31.421c1.183,3.397,21.786,63.02,21.786,63.02c0.418,1.205,1.317,2.19,2.492,2.697
					c1.175,0.51,2.508,0.508,3.675-0.01l12.721-5.617c1.703-0.757,2.725-2.427,2.725-4.192c0-0.565-0.114-1.147-0.332-1.705
					c0,0-17.661-43.797-18.351-45.512c0.162-2.887,0.288-5.718,0.288-8.44c0-20.964-5.055-37.089-15.071-48.014
					c-8.698-9.487-19.31-13.078-27.413-14.343C208.346,234.408,219.844,217.413,233.259,202.283z M222.368,477.911
					c0,0.02,0,0.067,0,0.071C222.368,477.95,222.368,477.931,222.368,477.911z"/>
			</g>
		</g>
		<g>
			<g>
				<path d="M442.727,407.337c1.933-11.924,2.997-24.231,3.123-36.841c-13.698,4.296-26.597,3.346-26.597,3.346l-32.16,27.47
					l-8.336-15.156l23.919-25.516c0.3-27.253,28.21-22.604,41.904-18.667c-2.448-24.792-8.34-48.489-17.066-70.468
					c-11.324,30.645-34.668,40.382-34.668,40.382l-22.396,64.812l-12.717-5.621l18.714-46.405
					c-4.077-61.395,32.188-67.416,44.794-67.674c-11.723-24.92-27.176-47.239-45.361-65.906
					c-1.168,24.239-7.165,94.137-38.178,122.419l0.505,75.839l26.777,32.62l-25.078,62.467c7.579,4.543,37.511,23.699,40.109,44.195
					c8.806-8.067,16.9-17.121,24.164-27.022c-9.141-11.23-8.967-23.631-8.967-23.631l-11.428-3.084l6.897-11.467l14.542-5.804
					c6.581,3.958,10.48,14.428,12.61,22.621c7.03-12.692,12.897-26.375,17.396-40.862c-9.656-6.101-16.273-13.553-16.273-13.553
					l-22.121,10.296l-2.03-20.276l20.875-7.109C425.495,400.787,436.103,403.87,442.727,407.337z"/>
			</g>
			<g>
				<path d="M374.254,186.822c-1.695,0.641-2.866,2.236-2.953,4.056c-0.998,21.044-6.621,91.84-36.688,119.257
					c-0.942,0.867-1.498,2.094-1.498,3.377c0,0.014,0.517,75.87,0.517,75.87c0,1.047,0.354,2.061,1.029,2.865
					c0,0,22.058,26.869,25.074,30.528c-1.854,4.625-24.069,59.971-24.069,59.971c-0.225,0.548-0.319,1.132-0.319,1.691
					c0,1.565,0.801,3.084,2.217,3.932c5.922,3.541,35.559,22.188,37.905,40.839c0.217,1.7,1.364,3.139,2.957,3.734
					c1.609,0.588,3.403,0.225,4.669-0.927c9.029-8.292,17.361-17.617,24.778-27.716c0.588-0.797,0.876-1.743,0.876-2.689
					c0-1.029-0.34-2.055-1.025-2.898c-7.871-9.652-7.938-20.516-7.938-20.689v-0.02c0-2.074-1.384-3.904-3.376-4.44
					c0,0-2.803-0.761-5.587-1.51c1.467-2.453,2.366-3.936,2.977-4.957c1.877-0.726,7.508-2.984,10.572-4.203
					c3.509,3.139,6.688,9.472,9.041,18.497c0.47,1.811,2.004,3.158,3.849,3.396c1.85,0.225,3.667-0.683,4.574-2.318
					c7.231-13.032,13.214-27.078,17.771-41.727c0.607-1.991-0.181-4.125-1.939-5.236c-8.959-5.639-15.232-12.639-15.292-12.705
					c-1.349-1.507-3.517-1.968-5.339-1.108c0,0-9.96,4.63-16.293,7.587c-0.453-4.448-0.733-7.264-1.037-10.269
					c4.811-1.636,17.448-5.949,17.448-5.949c0.501-0.17,0.982-0.431,1.393-0.773c6.19-5.008,13.615-5.319,22.062-0.891
					c1.297,0.678,2.851,0.682,4.156,0.031c1.312-0.658,2.239-1.912,2.468-3.359c1.991-12.258,3.061-24.89,3.194-37.525
					c0.023-1.461-0.666-2.851-1.838-3.718c-1.187-0.874-2.705-1.132-4.104-0.692c-12.646,3.963-24.782,3.16-24.913,3.152
					c-1.187-0.083-2.381,0.306-3.296,1.086c0,0-21.463,18.335-27.89,23.822c-1.759-3.209-2.776-5.055-4.019-7.334
					c3.711-3.963,21.656-23.095,21.656-23.095c0.772-0.83,1.214-1.932,1.226-3.076c0.075-6.563,1.877-11.08,5.552-13.803
					c5.71-4.259,16.834-4.442,30.528-0.519c1.455,0.422,3.017,0.087,4.188-0.875c1.159-0.974,1.771-2.455,1.629-3.971
					c-2.445-24.686-8.297-48.81-17.378-71.698c-0.693-1.763-2.401-2.91-4.298-2.89c-1.896,0.029-3.58,1.214-4.243,2.993
					c-10.434,28.235-31.939,37.653-32.152,37.746c-1.19,0.505-2.125,1.502-2.547,2.723c0,0-17.977,52.03-20.78,60.115
					c-1.889-0.836-2.335-1.031-4.129-1.822c2.769-6.822,17.066-42.306,17.066-42.306c0.221-0.54,0.331-1.122,0.331-1.708
					c0-0.101-0.008-0.201-0.008-0.302c-0.209-3.117-0.308-6.12-0.308-9.014c0-18.562,4.247-32.59,12.673-41.774
					c9.294-10.142,21.506-11.879,27.965-12.009c1.542-0.034,2.974-0.85,3.79-2.163c0.453-0.737,0.686-1.571,0.686-2.413
					c0-0.66-0.153-1.327-0.441-1.942c-11.885-25.293-27.448-47.89-46.226-67.152C377.882,186.601,375.957,186.173,374.254,186.822z
					 M379.759,202.279c13.395,15.128,24.9,32.128,34.285,50.78c-8.11,1.266-18.718,4.856-27.416,14.343
					c-10.02,10.922-15.083,27.05-15.083,48.018c0,2.725,0.126,5.55,0.288,8.437c-0.687,1.715-18.336,45.512-18.336,45.512
					c-0.232,0.558-0.343,1.14-0.343,1.705c0,1.765,1.029,3.435,2.732,4.192l12.717,5.617c1.163,0.519,2.496,0.521,3.667,0.01
					c1.183-0.507,2.078-1.493,2.504-2.697c0,0,20.607-59.623,21.774-63.02c5.232-2.681,19.999-11.63,30.492-31.421
					c5.848,16.875,9.909,34.353,12.133,52.195c-10.753-2.269-23.257-2.793-31.845,3.6c-5.575,4.15-8.533,10.627-9.03,19.079
					c-1.92,2.046-22.882,24.4-22.882,24.4c-0.808,0.865-1.234,1.993-1.234,3.126c0,0.755,0.189,1.51,0.564,2.203l8.344,15.157
					c0.654,1.211,1.829,2.059,3.189,2.307c1.353,0.244,2.741-0.126,3.786-1.025c0,0,28.319-24.197,30.8-26.318
					c3.406,0.091,11.123-0.029,20.13-2.017c-0.284,8.192-0.986,16.327-2.074,24.356c-9.176-3.015-17.945-1.734-25.271,3.77
					c-1.029,0.359-20.331,6.929-20.331,6.929c-1.869,0.643-3.084,2.394-3.084,4.333c0,0.154,0,0.3,0.012,0.458l2.035,20.268
					c0.149,1.482,1.01,2.796,2.287,3.529c1.289,0.729,2.858,0.788,4.199,0.169c0,0,14.731-6.856,19.172-8.919
					c2.413,2.409,6.537,6.175,11.841,9.877c-3.087,9.417-6.759,18.601-11.024,27.342c-3.009-7.172-6.751-12.188-11.176-14.865
					c-1.226-0.741-2.729-0.871-4.049-0.335l-14.551,5.804c-0.927,0.367-1.703,1.037-2.224,1.885l-6.904,11.467
					c-0.418,0.722-0.65,1.534-0.65,2.366c0,0.567,0.114,1.151,0.323,1.695c0.54,1.341,1.668,2.327,3.056,2.709
					c0,0,5.027,1.36,8.324,2.26c0.528,4.381,2.279,12.117,7.531,19.869c-4.98,6.55-10.426,12.662-16.155,18.407
					c-6.936-16.672-26.699-30.898-36.691-37.255c2.544-6.329,23.644-58.919,23.644-58.919c0.221-0.548,0.327-1.128,0.327-1.691
					c0-1.041-0.358-2.086-1.045-2.918c0,0-23.848-29.036-25.761-31.352c-0.016-3.028-0.457-68.926-0.477-72.367
					C369.223,288.985,377.334,233.793,379.759,202.279z M390.638,477.979c0-0.028,0-0.048,0-0.067c0,0.02,0,0.039,0,0.071
					C390.638,477.979,390.638,477.979,390.638,477.979z"/>
			</g>
		</g>
	</g>
	<g>
		<linearGradient id="SVGID_3_" gradientUnits="userSpaceOnUse" x1="172.2773" y1="604.793" x2="279.657" y2="497.4133">
			<stop  offset="0" style="stop-color:#FFFFFF"/>
			<stop  offset="0.4898" style="stop-color:#FFDB9C"/>
			<stop  offset="1" style="stop-color:#FDBB30"/>
		</linearGradient>
		<path fill="url(#SVGID_3_)" d="M345.887,520.797c-19.175-28.537-11.569-44.045-11.569-44.045h-0.312l20.781-53.288l-33.845-38.994
			v-51.35l20.193-31.19l-44.262,24.079l-19.034,24.844l15.536-1.161v33.507l-34.952,40.265l21.798,55.883
			c1.286,5.532,2.216,19.716-12.393,41.442c-19.188,28.505-17.662,46.915-17.662,46.915l18.383,17.508l16.723-63.401l11.486,1.817
			l-16.218,73.012l9.814,9.337c0,0,7.614,7.22,16.14,6.502l0.729,0.008c8.521,0.714,16.139-6.498,16.139-6.498l10.103-9.629
			l-16.155-72.731l11.482-1.817l16.664,63.138l18.088-17.236C363.545,567.712,365.074,549.313,345.887,520.797z"/>
		<g>
			<linearGradient id="SVGID_4_" gradientUnits="userSpaceOnUse" x1="81.1963" y1="513.7363" x2="188.5756" y2="406.357">
				<stop  offset="0" style="stop-color:#FFFFFF"/>
				<stop  offset="0.4898" style="stop-color:#FFDB9C"/>
				<stop  offset="1" style="stop-color:#FDBB30"/>
			</linearGradient>
			<path fill="url(#SVGID_4_)" d="M248.018,421.97l26.79-32.616l0.489-75.843c-31.001-28.282-36.999-98.18-38.162-122.419
				c-18.193,18.667-33.65,40.985-45.366,65.906c12.598,0.258,48.872,6.28,44.782,67.674l18.722,46.405l-12.717,5.621l-22.401-64.812
				c0,0-23.339-9.737-34.668-40.382c-8.73,21.979-14.622,45.676-17.074,70.468c13.707-3.938,41.612-8.586,41.908,18.667
				l23.927,25.516l-8.34,15.156l-32.152-27.47c0,0-12.906,0.951-26.612-3.346c0.142,12.61,1.207,24.917,3.135,36.841
				c6.621-3.467,17.24-6.55,27.05,1.403l20.875,7.109l-2.035,20.276l-22.117-10.296c0,0-6.613,7.452-16.289,13.553
				c4.519,14.487,10.362,28.17,17.405,40.862c2.125-8.193,6.029-18.663,12.618-22.621l14.542,5.804l6.9,11.467l-11.431,3.084
				c0,0,0.154,12.4-8.967,23.631c7.259,9.901,15.351,18.955,24.175,27.022c2.579-20.513,32.519-39.652,40.086-44.195L248.018,421.97
				z"/>
		</g>
		<g>
			<linearGradient id="SVGID_5_" gradientUnits="userSpaceOnUse" x1="152.7271" y1="585.2031" x2="260.0995" y2="477.8307">
				<stop  offset="0" style="stop-color:#FFFFFF"/>
				<stop  offset="0.4898" style="stop-color:#FFDB9C"/>
				<stop  offset="1" style="stop-color:#FDBB30"/>
			</linearGradient>
			<path fill="url(#SVGID_5_)" d="M442.727,407.337c1.933-11.924,2.997-24.231,3.123-36.841
				c-13.698,4.296-26.597,3.346-26.597,3.346l-32.16,27.47l-8.336-15.156l23.919-25.516c0.3-27.253,28.21-22.604,41.904-18.667
				c-2.448-24.792-8.34-48.489-17.066-70.468c-11.324,30.645-34.668,40.382-34.668,40.382l-22.396,64.812l-12.717-5.621
				l18.714-46.405c-4.077-61.395,32.188-67.416,44.794-67.674c-11.723-24.92-27.176-47.239-45.361-65.906
				c-1.168,24.239-7.165,94.137-38.178,122.419l0.505,75.839l26.777,32.62l-25.078,62.467c7.579,4.543,37.511,23.699,40.109,44.195
				c8.806-8.067,16.9-17.121,24.164-27.022c-9.141-11.23-8.967-23.631-8.967-23.631l-11.428-3.084l6.897-11.467l14.542-5.804
				c6.581,3.958,10.48,14.428,12.61,22.621c7.03-12.692,12.897-26.375,17.396-40.862c-9.656-6.101-16.273-13.553-16.273-13.553
				l-22.121,10.296l-2.03-20.276l20.875-7.109C425.495,400.787,436.103,403.87,442.727,407.337z"/>
		</g>
	</g>
	<g>
		<g>
			<path fill="#FFFFFF" d="M216.859,500.04c-5.627,0-8.048-2.887-9.091-5.312l-4.016-9.223v13.848h-14.546v-26.766
				c0-1.652,0.623-3.998,3.596-5.805c2.072-1.246,4.761-1.877,8.004-1.877c1.027,0,2.07,0.063,3.145,0.182
				c4.375,0.544,7.106,2.244,8.139,5.055l4.59,12.453l5.138-12.52c1.138-2.769,3.829-4.444,8-4.984
				c1.108-0.122,2.177-0.186,3.235-0.186c3.196,0,5.868,0.627,7.938,1.869c2.12,1.294,3.044,2.855,3.403,4.239v-5.757h15.051v5.201
				c1.804-3.486,5.755-5.201,11.798-5.201h24.384v4.317c1.979-2.883,5.751-4.317,11.266-4.317h38.703v6.853
				c0.051-0.205,0.114-0.418,0.185-0.635c1.511-4.144,5.946-6.218,13.206-6.218h12.996c9.688,0,12.709,3.481,13.328,6.924
				c0.28-2.078,1.439-3.853,3.399-5.174c2.073-1.396,4.641-2.102,7.634-2.102c1.305,0,2.649,0.122,3.99,0.367
				c3.777,0.844,6.309,2.779,7.595,5.78l3.88,8.703v-14.476h14.468v26.912c0,1.589-0.611,3.86-3.518,5.646
				c-1.987,1.234-4.476,1.9-7.386,1.983l-0.457,0.004c-6.929,0-9.905-3.435-11.183-6.313l-3.943-8.741v14.581h-14.547v-6.676
				c-0.753,3.372-3.899,6.676-13.327,6.676h-12.93c-3.817,0-6.641-0.422-8.628-1.289c-2.259-1.018-3.773-2.713-4.519-5.043
				c-0.103-0.3-0.182-0.6-0.244-0.896v7.228h-15.048v-5.157c-0.737,1.467-2.145,2.906-4.712,3.924
				c-2.169,0.832-4.641,1.233-7.574,1.233h-23.754v-4.483c-0.811,1.227-2.161,2.39-4.343,3.25c-2.114,0.819-4.655,1.233-7.565,1.233
				H230.12v-13.923l-4.089,9.313c-0.375,0.935-0.905,1.774-1.548,2.438C222.985,499.03,220.38,500.04,216.859,500.04z
				 M360.524,488.672c0.114,0,0.571,0.146,1.581,0.146h6.754c0.868,0,1.356-0.094,1.605-0.169v-12.772c-0.004,0-0.008,0-0.016,0
				c-0.123,0-0.58-0.146-1.59-0.146h-6.754c-1.404,0-1.778,0.276-1.782,0.28C360.323,476.011,360.52,488.672,360.524,488.672z
				 M315.698,488.817c0.232-0.062,0.414-0.142,0.544-0.205v-1.053c-0.122-0.023-0.279-0.043-0.473-0.055l-9.014,0.004
				c-4.188,0-7.528-1.068-9.927-3.175c-1.979-1.738-2.396-3.561-2.396-4.782v-3.825l-20.205,0.083
				c-0.16,0.004-0.293,0.02-0.402,0.031c0,0,0.008,1.025,0.012,1.025c0.142,0,0.449,0.067,0.944,0.099l8.535-0.004
				c2.588,0,4.938,0.41,6.989,1.219c4.391,1.62,5.321,4.55,5.321,6.723v3.915H315.698z M280.044,488.817
				c0.229-0.062,0.408-0.138,0.536-0.2v-1.062c-0.12-0.02-0.272-0.039-0.461-0.051l-9.026,0.004c-4.178,0-7.514-1.068-9.919-3.175
				c-0.814-0.713-1.364-1.442-1.729-2.141v6.624H280.044z M318.963,476.961c2.595,0,4.949,0.41,6.999,1.219
				c2.484,0.918,3.86,2.255,4.586,3.639v-6.092l-20.662,0.083c-0.165,0.004-0.3,0.02-0.41,0.031c0,0,0.004,1.021,0.008,1.021
				c0.139,0,0.446,0.071,0.951,0.103L318.963,476.961z"/>
			<path d="M396.344,466.926c1.183,0,2.394,0.11,3.628,0.335c3.024,0.674,5.074,2.192,6.104,4.59l7.752,17.394V467.3h10.43v24.894
				c0,1.565-0.844,2.874-2.555,3.927c-1.712,1.062-3.849,1.613-6.384,1.685c-0.139,0.004-0.272,0.004-0.406,0.004
				c-4.7,0-7.815-1.692-9.334-5.114l-7.808-17.307v21.947h-10.508v-24.147c0-1.83,0.855-3.344,2.574-4.504
				C391.584,467.509,393.745,466.926,396.344,466.926 M233.054,466.926c2.847,0,5.142,0.528,6.9,1.581
				c1.743,1.064,2.619,2.413,2.619,4.081v24.747h-10.434v-21.521l-7.958,18.118c-0.288,0.718-0.662,1.345-1.144,1.838
				c-1.226,1.506-3.289,2.252-6.179,2.252c-3.64,0-6.061-1.356-7.236-4.09l-7.89-18.118v21.521h-10.508v-24.747
				c0-1.668,0.875-3.017,2.626-4.081c1.75-1.053,4.069-1.581,6.956-1.581c0.955,0,1.924,0.059,2.922,0.169
				c3.549,0.442,5.706,1.676,6.467,3.746l6.384,17.318l7.106-17.318c0.852-2.07,2.981-3.304,6.392-3.746
				C231.074,466.984,232.068,466.926,233.054,466.926 M371.982,467.276c7.63,0,11.439,2.133,11.439,6.424v17.117
				c0,4.349-3.845,6.518-11.506,6.518h-12.93c-3.498,0-6.112-0.375-7.819-1.12c-1.695-0.765-2.831-2.019-3.403-3.809
				c-0.189-0.552-0.279-1.053-0.279-1.511l-0.079-17.195c0-0.497,0.106-1.029,0.292-1.586c1.179-3.233,4.94-4.838,11.289-4.838
				H371.982 M362.105,490.837h6.754c2.422,0,3.624-0.623,3.624-1.838v-13.186c0-1.388-1.202-2.102-3.624-2.102h-6.754
				c-2.453,0-3.684,0.714-3.684,2.102l0.071,12.93C358.493,490.131,359.692,490.837,362.105,490.837 M343.576,467.276v30.059
				h-11.009v-30.059H343.576 M329.259,467.276v6.436l-19.381,0.078c-1.608,0.056-2.421,0.537-2.421,1.416v2.015
				c0,0.229,0.035,0.363,0.079,0.422c0.24,0.77,1.155,1.23,2.764,1.337h8.663c2.37,0,4.456,0.367,6.258,1.076
				c2.697,0.998,4.038,2.619,4.038,4.847v6.096c0,2.39-1.396,4.145-4.168,5.245c-1.908,0.733-4.176,1.092-6.829,1.092h-21.735
				v-6.498h19.171c1.711-0.343,2.563-0.927,2.563-1.767v-2.169c0-0.82-0.789-1.301-2.351-1.411h-9.156
				c-3.695,0-6.565-0.892-8.596-2.674c-1.136-0.998-1.708-2.094-1.708-3.265v-6.349c0-0.493,0.095-1.002,0.288-1.503
				c1.285-2.965,4.672-4.424,10.153-4.424H329.259 M293.609,467.276v6.436l-19.389,0.078c-1.609,0.056-2.413,0.537-2.413,1.416
				v2.015c0,0.229,0.027,0.363,0.075,0.422c0.233,0.77,1.151,1.23,2.768,1.337h8.667c2.366,0,4.448,0.367,6.25,1.076
				c2.701,0.998,4.042,2.619,4.042,4.847v6.096c0,2.39-1.392,4.145-4.184,5.245c-1.893,0.733-4.172,1.092-6.826,1.092h-21.727
				v-6.498h19.172c1.708-0.343,2.555-0.927,2.555-1.767v-2.169c0-0.82-0.777-1.301-2.338-1.411h-9.168
				c-3.691,0-6.553-0.892-8.588-2.674c-1.136-0.998-1.708-2.094-1.708-3.265v-6.349c0-0.493,0.103-1.002,0.284-1.503
				c1.282-2.965,4.669-4.424,10.162-4.424H293.609 M257.426,467.276v30.059h-11.013v-30.059H257.426 M396.344,462.888
				c-3.399,0-6.349,0.824-8.762,2.444c-0.927,0.627-1.716,1.349-2.354,2.149c-2.09-2.354-6.017-4.243-13.245-4.243h-12.996
				c-4.929,0-8.73,0.911-11.372,2.721v-2.721h-4.038h-10.279h-4.038h-22.366c-3.795,0-6.885,0.639-9.247,1.901v-1.901h-4.038
				h-22.366c-4.087,0-7.354,0.737-9.779,2.2v-2.2h-4.038h-11.013h-4.038v2.023c-0.104-0.067-0.209-0.135-0.315-0.201
				c-2.419-1.447-5.439-2.173-9.006-2.173c-1.106,0-2.257,0.067-3.42,0.193c-6.23,0.809-8.697,3.829-9.683,6.222l-3.17,7.729
				l-2.795-7.586c-0.903-2.457-3.33-5.556-9.757-6.356c-1.234-0.138-2.336-0.201-3.421-0.201c-3.614,0-6.654,0.726-9.036,2.157
				c-3.99,2.429-4.584,5.769-4.584,7.543v24.747v4.038h4.038h10.508h4.038v-4.038v-2.137l0.15,0.347
				c1.043,2.421,3.858,6.514,10.938,6.514c4.081,0,7.174-1.21,9.197-3.604c0.771-0.828,1.4-1.842,1.873-3.021l0.171-0.391v2.291
				v4.038h4.038h10.434h4.038h10.225h4.038H282.6c3.16,0,5.946-0.458,8.284-1.364c0.584-0.229,1.116-0.481,1.605-0.745v2.109h4.038
				h21.735c3.186,0,5.895-0.446,8.276-1.36c0.741-0.296,1.399-0.619,1.991-0.967v2.327h4.038h11.009h4.038v-2.567
				c0.579,0.418,1.21,0.781,1.893,1.089c2.291,1.001,5.379,1.479,9.479,1.479h12.93c5.406,0,8.975-1.057,11.309-2.579v2.579h4.038
				h10.508h4.038v-4.038v-3.178l0.091,0.196c1.506,3.407,5.004,7.492,13.013,7.492l0.488-0.004c3.301-0.095,6.128-0.863,8.427-2.291
				c3.884-2.39,4.468-5.635,4.468-7.357V467.3v-4.037h-4.038h-10.43h-4.037v4.037v2.966l-0.028-0.06
				c-1.049-2.444-3.466-5.674-8.911-6.885C399.233,463.021,397.771,462.888,396.344,462.888L396.344,462.888z M362.472,477.749
				h5.974v9.05h-5.926L362.472,477.749L362.472,477.749z"/>
		</g>
		<g>
			<path fill="#FFFFFF" d="M366.384,533.104v-5.11c-0.245,0.513-0.553,0.958-0.919,1.349c-2.314,2.523-6.12,3.762-11.616,3.762
				h-13.939c-5.836,0-9.759-1.349-12.003-4.121c-0.879-1.151-1.289-2.76-1.289-4.968v-23.198h14.893v22.022
				c0.34,0.056,0.876,0.11,1.696,0.11h7.342c0.867,0,1.411-0.059,1.739-0.114l-0.036-22.019h14.886v4.673
				c1.846-3.127,5.693-4.673,11.49-4.673H402.7v10.075l-21.128,0.087c-0.142,0.004-0.26,0.016-0.362,0.027v0.674
				c0.186,0.048,0.477,0.099,0.906,0.127l8.407-0.004c2.591,0,4.913,0.39,6.9,1.163c4.35,1.53,5.276,4.341,5.276,6.427v5.722
				c0,2.181-0.942,5.134-5.426,6.838c-2.134,0.769-4.626,1.151-7.449,1.151H366.384z M387.313,522.949
				c0.205-0.051,0.367-0.114,0.493-0.169v-0.777c-0.106-0.012-0.24-0.027-0.398-0.035l-8.931,0.004c-4.105,0-7.39-1.001-9.76-2.98
				c-0.662-0.564-1.19-1.16-1.581-1.787v5.745H387.313z M301.787,533.104c-1.399,0-2.792-0.174-4.256-0.524
				c-5.445-1.191-7.348-3.837-7.849-6.266c-0.569,3.355-3.531,6.79-13.252,6.79h-12.737c-3.762,0-6.54-0.398-8.493-1.223
				c-2.196-0.919-3.75-2.571-4.485-4.779c-0.258-0.709-0.393-1.396-0.393-2.054l-0.012-3.076h-20.252v11.132h-14.89v-24.534
				c0-2.232,0.949-6.155,7.305-7.394c1.31-0.24,3.311-0.359,6.134-0.359h23.45v3.601c2.155-2.397,6.051-3.601,11.636-3.601h12.819
				c9.615,0,12.575,3.364,13.162,6.672c0.481-2.854,2.102-4.31,3.496-5.051c2.009-1.088,5.363-1.621,10.23-1.621h23.154v10.083
				h-21.62c-0.213,0.02-0.381,0.056-0.505,0.087v11.541c0,0.197,0.02,0.324,0.036,0.395c0.016-0.004,0.04-0.004,0.071-0.004
				c0.158,0,0.513,0.031,1.1,0.031h20.918v10.154H301.787z M265.273,522.848c0.181,0,0.641,0.102,1.494,0.102h6.648
				c0.816,0,1.297-0.078,1.558-0.146V510.99c-0.016,0.004-0.038,0.008-0.063,0.008c-0.187,0-0.648-0.099-1.494-0.099h-6.648
				c-1.402,0-1.786,0.261-1.788,0.261l0.237,11.695C265.23,522.852,265.25,522.848,265.273,522.848z M250.266,511.803l-0.004-0.903
				h-18.505c-0.942,0-1.453,0.106-1.699,0.189v0.714H250.266z"/>
			<path d="M400.681,502.836v6.045l-19.116,0.078c-1.585,0.06-2.374,0.493-2.374,1.333v1.893c0,0.197,0.021,0.327,0.063,0.383
				c0.232,0.737,1.14,1.151,2.732,1.254h8.537c2.338,0,4.393,0.335,6.171,1.025c2.662,0.938,3.986,2.452,3.986,4.546v5.722
				c0,2.252-1.372,3.904-4.124,4.949c-1.869,0.674-4.113,1.021-6.731,1.021h-21.423v-6.115h18.911
				c1.672-0.315,2.512-0.867,2.512-1.645v-2.043c0-0.788-0.765-1.241-2.303-1.328h-9.045c-3.628,0-6.463-0.84-8.467-2.512
				c-1.115-0.95-1.691-1.96-1.691-3.076v-5.946c0-0.469,0.11-0.95,0.296-1.419c1.258-2.772,4.594-4.164,10.012-4.164H400.681
				 M365.118,502.836v21.179c0,1.837-0.375,3.15-1.12,3.938c-1.917,2.09-5.3,3.131-10.149,3.131h-13.939
				c-5.134,0-8.616-1.123-10.434-3.371c-0.56-0.733-0.84-1.96-0.84-3.698v-21.179h10.855v21.028
				c0.178,0.729,1.424,1.104,3.715,1.104h7.342c2.2,0,3.419-0.335,3.651-1.025l0.071-0.244v-20.863H365.118 M324.535,502.836v6.045
				h-19.602c-1.404,0.118-2.244,0.528-2.524,1.258v12.389c0,1.041,0.324,1.759,0.99,2.126c0.371,0.209,1.116,0.315,2.236,0.315h18.9
				v6.115h-22.749c-1.226,0-2.476-0.153-3.781-0.469c-4.306-0.942-6.455-2.871-6.455-5.809v-15.536c0-2.456,0.864-4.147,2.563-5.047
				c1.704-0.923,4.795-1.388,9.286-1.388H324.535 M276.511,502.836c7.508,0,11.262,2.026,11.262,6.045v16.076
				c0,4.085-3.782,6.127-11.344,6.127h-12.737c-3.454,0-6.025-0.354-7.708-1.064c-1.68-0.701-2.8-1.889-3.356-3.557
				c-0.193-0.532-0.288-0.997-0.288-1.415l-0.067-16.167c0-0.462,0.094-0.959,0.28-1.479c1.163-3.049,4.877-4.566,11.139-4.566
				H276.511 M266.768,524.969h6.648c2.39,0,3.576-0.576,3.576-1.731v-12.385c0-1.313-1.187-1.972-3.576-1.972h-6.648
				c-2.429,0-3.639,0.658-3.639,1.972l0.071,12.145C263.199,524.302,264.386,524.969,266.768,524.969 M250.037,502.836v6.045
				h-18.281c-2.149,0-3.363,0.48-3.639,1.411c-0.051,0.067-0.079,0.189-0.079,0.402v3.127h21.999v6.132h-21.999v11.131h-10.852
				v-22.515c0-2.875,1.896-4.677,5.67-5.41c1.167-0.217,3.087-0.323,5.749-0.323H250.037 M404.719,498.798h-4.038h-22.054
				c-3.932,0-7.094,0.67-9.472,2.003v-2.003h-4.037h-10.848h-4.038v4.038v18.095h-6.703v-18.095v-4.038h-4.038h-10.855h-0.063
				h-4.037h-21.136c-5.286,0-8.846,0.596-11.208,1.877c-0.759,0.398-1.753,1.08-2.63,2.165c-2.074-2.248-5.952-4.042-13.05-4.042
				h-12.819c-3.939,0-7.151,0.572-9.617,1.711v-1.711h-4.038h-21.431c-2.989,0-5.049,0.126-6.486,0.391
				c-8.1,1.573-8.971,7.086-8.971,9.381v22.515v4.038h4.038h10.852h4.038v-4.038v-7.094h16.222l0.004,1.073
				c0,0.879,0.174,1.794,0.531,2.775c0.891,2.678,2.837,4.756,5.593,5.907c2.194,0.923,5.229,1.376,9.266,1.376h12.737
				c7.405,0,11.324-1.948,13.349-4.333c1.432,1.569,3.725,2.973,7.364,3.77c1.536,0.374,3.084,0.563,4.645,0.563h22.749h4.037
				v-2.808c2.705,1.896,6.439,2.808,11.337,2.808h13.939c4.42,0,7.894-0.765,10.516-2.326v2.326h4.038h21.423
				c3.057,0,5.781-0.426,8.1-1.262c5.919-2.243,6.794-6.443,6.794-8.746v-5.722c0-1.676-0.485-4.368-3.158-6.479l3.158-0.012v-4.021
				v-6.045V498.798L404.719,498.798z M306.448,512.918h18.087h0.062v8.013h-0.062h-18.087V512.918L306.448,512.918z
				 M267.178,512.918h5.777v8.013h-5.729L267.178,512.918L267.178,512.918z"/>
		</g>
	</g>
	<g>
		<linearGradient id="SVGID_6_" gradientUnits="userSpaceOnUse" x1="306.4966" y1="202.7241" x2="306.4966" y2="476.7942">
			<stop  offset="0" style="stop-color:#FFFFFF"/>
			<stop  offset="0.4898" style="stop-color:#FFDB9C"/>
			<stop  offset="1" style="stop-color:#FDBB30"/>
		</linearGradient>
		<path fill="url(#SVGID_6_)" d="M167.144,370.496c0.059,5.607,0.335,11.149,0.765,16.63c13.584,6.064,31.289,10.678,53.276,10.165
			l-27.429-23.45C193.756,373.841,180.851,374.792,167.144,370.496z M237.135,191.092c-18.193,18.667-33.65,40.985-45.366,65.906
			c12.598,0.258,48.872,6.28,44.782,67.674l18.722,46.405l-12.717,5.621l-22.401-64.812c0,0-23.339-9.737-34.668-40.382
			c-8.73,21.979-14.622,45.676-17.074,70.468c13.707-3.938,41.612-8.586,41.908,18.667l23.927,25.516l-5.926,10.794
			c12.5-0.899,26.292-3.437,41.411-8.231c1.723-0.548,3.415-1.092,5.087-1.617l0.477-73.591
			C244.296,285.229,238.298,215.331,237.135,191.092z M419.253,373.841l-0.232,0.193c7.918,3.847,16.467,8.726,25.974,14.748
			c0.501-6.018,0.797-12.119,0.855-18.287C432.151,374.792,419.253,373.841,419.253,373.841z M421.24,256.998
			c-11.723-24.92-27.176-47.239-45.361-65.906c-1.168,24.239-7.165,94.137-38.178,122.419l0.347,54.179
			c8.214-2.084,15.718-3.588,22.839-4.438l15.56-38.58C372.369,263.278,408.635,257.256,421.24,256.998z M444.58,341.973
			c-2.448-24.792-8.34-48.489-17.066-70.468c-11.324,30.645-34.668,40.382-34.668,40.382l-17.495,50.603
			c7.531,0.148,14.857,1.214,22.46,3.336l4.865-5.186C402.976,333.387,430.886,338.036,444.58,341.973z M296.874,326.009
			l-19.034,24.844l15.536-1.161v31.446c10.11-3.249,19.207-6.159,27.566-8.665v-39.353l20.193-31.19L296.874,326.009z"/>
	</g>
</g>
</svg>
